<?xml version="1.0"?>
<svg width="40" height="32" xmlns="http://www.w3.org/2000/svg" xmlns:svg="http://www.w3.org/2000/svg" xmlns:xlink="http://www.w3.org/1999/xlink">
 <g class="layer">
  <title>Layer 1</title>
  <path d="m-0.1,0l40,0l0,32l-40,0" fill="#ee1c25" id="svg_1"/>
  <line fill="none" id="svg_8" x1="-1293.52" x2="-484.92" y1="-842.58" y2="-222.42"/>
  <line fill="none" id="svg_9" opacity="0.5" x1="496.64" x2="495.23" y1="254.3" y2="252.89"/>
  <use id="svg_33" transform="matrix(1 0 0 1 0 0) matrix(0.252221 0 0 0.252221 -0.898715 -0.898715)" x="9.78" xlink:href="#svg_32" y="7.14"/>
  <g id="svg_12" transform="matrix(1 0 0 1 0 0)">
   <g id="svg_5">
    <line fill="#ffffff" id="svg_20" stroke="#000000" stroke-width="0.8" x1="22.69" x2="22.69" y1="11.19" y2="12.86"/>
    <line fill="#ffffff" id="svg_21" stroke="#000000" stroke-width="0.8" x1="22.53" x2="23.74" y1="12.47" y2="12.47"/>
   </g>
   <g id="svg_10">
    <line fill="#ffffff" id="svg_18" stroke="#000000" stroke-width="0.8" x1="20.42" x2="21.51" y1="12.45" y2="12.45"/>
    <line fill="#ffffff" id="svg_17" stroke="#000000" stroke-width="0.8" x1="21.37" x2="21.37" y1="11.16" y2="12.84"/>
   </g>
   <g id="svg_11">
    <line fill="#ffffff" id="svg_14" stroke="#000000" stroke-width="0.8" x1="19.37" x2="24.74" y1="10.82" y2="10.82"/>
    <line fill="#ffffff" id="svg_15" stroke="#000000" stroke-width="0.8" x1="19.78" x2="19.78" y1="10.67" y2="13.78"/>
    <line fill="#ffffff" id="svg_16" stroke="#000000" stroke-width="0.8" x1="24.35" x2="24.35" y1="10.59" y2="13.72"/>
    <line fill="#ffffff" id="svg_22" stroke="#000000" stroke-width="0.8" x1="19.38" x2="24.74" y1="13.61" y2="13.61"/>
   </g>
  </g>
  <g id="svg_13" transform="matrix(1 0 0 1 0 0)">
   <line fill="#ffffff" id="svg_4" stroke="#000000" stroke-width="0.8" x1="13.88" x2="18.44" y1="11.56" y2="11.56"/>
   <line fill="#ffffff" id="svg_3" stroke="#000000" stroke-width="0.8" x1="15.56" x2="14.3" y1="12.54" y2="13.8"/>
   <line fill="#ffffff" id="svg_6" stroke="#000000" stroke-width="0.8" x1="16.89" x2="18.21" y1="12.49" y2="13.81"/>
   <line fill="#ffffff" id="svg_7" stroke="#000000" stroke-width="0.8" x1="15.56" x2="16.54" y1="9.78" y2="10.77"/>
  </g>
 </g>
 <defs>
  <symbol height="50" id="svg_32" width="50" xmlns="http://www.w3.org/2000/svg" xmlns:svg="http://www.w3.org/2000/svg">
   <g class="layer" id="svg_2">
    <title>Layer 1</title>
    <path d="m0.05,25l49.9,0m-24.95,-24.95l0,49.9" fill="#ffffff" id="svg_31" stroke="#ffffff" stroke-width="20" transform="matrix(1 0 0 1 0 0)"/>
    <path d="m0.01,25.01l50,0m-25,-25l0,50" fill="#ffffff" id="svg_30" stroke="#000000" stroke-width="10"/>
   </g>
  </symbol>
 </defs>
</svg>