<?xml version="1.0"?>
<svg width="500" height="329" xmlns="http://www.w3.org/2000/svg" xmlns:svg="http://www.w3.org/2000/svg" xmlns:xlink="http://www.w3.org/1999/xlink" clip-rule="evenodd" fill-rule="nonezero">
 <!-- Created with SVG-edit - https://github.com/SVG-Edit/svgedit-->
 <defs>
  <symbol height="600" id="svg_4" viewBox="-75 -40 120 80" width="900" xmlns="http://www.w3.org/2000/svg">
   <title>Flag of Pakistan</title>
   <rect fill="#fff" height="80" id="svg_8" width="120" x="-75" y="-40"/>
   <rect fill="#01411C" height="80" id="svg_14" width="90" x="-45" y="-40"/>
   <circle fill="#fff" id="svg_15" r="24"/>
   <circle cx="-7" cy="-40" fill="#01411C" id="svg_16" r="22" transform="rotate(-41.63354, 45, -40)"/>
   <polygon fill="#fff" id="svg_17" points="0,-513674 301930,415571 -488533,-158734 488533,-158734 -301930,415571" transform="rotate(-41.63354) translate(16) rotate(18) scale(0.00001557408)"/>
  </symbol>
  <symbol height="329" id="svg_74" width="420" xmlns="http://www.w3.org/2000/svg" xmlns:svg="http://www.w3.org/2000/svg" xmlns:xlink="http://www.w3.org/1999/xlink">
   <!-- Created with SVG-edit - https://github.com/SVG-Edit/svgedit-->
   <defs>
    <symbol id="svg_66" viewBox="0 0 640 480" xmlns="http://www.w3.org/2000/svg" xmlns:xlink="http://www.w3.org/1999/xlink">
     <defs>
      <path d="m-0.6,0.8l0.6,-1.8l0.6,1.8l-1.6,-1.1l2,0l-1.6,1.1z" fill="#ff0" id="svg_68"/>
     </defs>
     <path d="m0,0l640,0l0,480l-640,0l0,-480z" fill="#ee1c25" id="svg_73"/>
     <use height="20" id="svg_72" transform="matrix(71.9991 0 0 72 120 120)" width="30" xlink:href="#svg_68"/>
     <use height="20" id="svg_71" transform="matrix(-12.33562 -20.5871 20.58684 -12.33577 240.3 48)" width="30" xlink:href="#svg_68"/>
     <use height="20" id="svg_70" transform="matrix(-3.38573 -23.75998 23.75968 -3.38578 288 95.8)" width="30" xlink:href="#svg_68"/>
     <use height="20" id="svg_69" transform="matrix(6.5991 -23.0749 23.0746 6.59919 288 168)" width="30" xlink:href="#svg_68"/>
     <use height="20" id="svg_67" transform="matrix(14.9991 -18.73557 18.73533 14.99929 240 216)" width="30" xlink:href="#svg_68"/>
    </symbol>
   </defs>
   <g class="layer" id="svg_18">
    <title>Layer 1</title>
    <g id="svg_59">
     <use id="svg_65" transform="matrix(0.995313 0 0 0.995313 0 0)" x="1" xlink:href="#svg_66" y="-1"/>
     <g id="svg_60" opacity="0.2">
      <g class="layer" id="svg_61">
       <title>Layer 1</title>
       <path d="m4,162.69l413.79,0l0,154.66l-413.79,0l0,-154.66z" fill="#d52b1e" id="svg_64" opacity="0.95"/>
       <path d="m4,8l413.79,0l0,154.69l-413.79,0l0,-154.69z" fill="#0d0d0d" id="svg_63"/>
       <path d="m4,111.11l413.79,0l0,103.14l-413.79,0l0,-103.14z" fill="#ffffff" id="svg_62"/>
      </g>
     </g>
    </g>
   </g>
  </symbol>
  <symbol fill-rule="evenodd" height="635px" id="svg_57" width="525px" xmlns="http://www.w3.org/2000/svg" xmlns:xlink="http://www.w3.org/1999/xlink">
   <g id="svg_76">
    <path d="m-0.5,-0.5c175,0 350,0 525,0c0,211.67 0,423.33 0,635c-175,0 -350,0 -525,0c0,-211.67 0,-423.33 0,-635z" fill="#000000" id="svg_77"/>
   </g>
   <g id="svg_78">
    <path d="m392.5,479.5c-2.89,0.46 -5.39,-0.21 -7.5,-2c-1.26,3.56 -2.09,7.23 -2.5,11c-3.5,-2.39 -7.5,-3.89 -12,-4.5c-5.49,-2.82 -10.49,-6.32 -15,-10.5c-15.66,-0.82 -31.33,-1.49 -47,-2c-15.33,0.67 -30.66,1.17 -46,1.5c-1.12,1.04 -2.46,1.71 -4,2c-5.99,0.7 -11.99,1.2 -18,1.5c0.71,-3.48 1.71,-6.81 3,-10c-2.31,-3.53 -3.47,-7.53 -3.5,-12c-2.02,-1.49 -3.69,-1.16 -5,1c0.09,3.75 -0.08,7.42 -0.5,11c-2.18,0.09 -4.18,0.75 -6,2c-0.97,2.14 -2.64,3.3 -5,3.5c-0.73,3.2 -2.73,4.7 -6,4.5c0.33,3 -1,4.33 -4,4c0.18,4.04 0.34,8.04 0.5,12c-7.14,4.49 -12.14,10.82 -15,19c-0.81,2.4 -0.65,4.74 0.5,7c2.08,-1.79 4.24,-3.45 6.5,-5c3.93,-5.53 7.1,-11.53 9.5,-18c2.62,-1.07 4.78,-0.41 6.5,2c2.63,-3.66 5.46,-3.66 8.5,0c0.81,-2.27 1.31,-4.6 1.5,-7c0.56,-0.52 1.23,-0.86 2,-1c7.38,4.7 14.54,9.7 21.5,15c4.91,2.34 9.91,4 15,5c0.17,-2.36 0.51,-4.69 1,-7c2.36,-0.16 4.69,0 7,0.5c4.33,2.83 9,5.17 14,7c4,0 8,0 12,0c2,0.67 3.33,2 4,4c5.31,0.81 10.65,1.48 16,2c0.67,1 1.33,2 2,3c11.02,0.45 22.02,0.45 33,0c2.02,1.19 2.36,2.69 1,4.5c-2.29,0.97 -4.29,2.3 -6,4c-12.81,1.53 -25.48,3.53 -38,6c0.42,-4.57 -1.58,-6.07 -6,-4.5c-0.81,0.31 -1.48,0.81 -2,1.5c-1.78,4.08 -1.11,7.58 2,10.5c8.99,0.5 17.99,0.67 27,0.5c0,1.33 0,2.67 0,4c-8.26,1.72 -16.26,1.06 -24,-2c-2.57,2.46 -5.24,2.46 -8,0c-5.21,2.12 -10.54,2.46 -16,1c-2.46,-1.29 -3.96,-3.29 -4.5,-6c-1.11,3.35 -0.11,6.35 3,9c0.49,1.63 0.66,3.3 0.5,5c3.73,-0.23 7.23,-1.23 10.5,-3c2.45,0.91 4.95,1.74 7.5,2.5c0.99,3.75 1.65,7.58 2,11.5c1.62,0.14 2.79,-0.53 3.5,-2c-0.1,-3.14 0.07,-6.14 0.5,-9c4.8,-0.43 8.97,0.9 12.5,4c6.12,-0.94 12.28,-1.11 18.5,-0.5c2.21,-3.42 4.87,-6.42 8,-9c-2.54,-0.93 -3.54,-2.76 -3,-5.5c5.81,0.36 8.81,-2.31 9,-8c2.35,-0.34 4.69,-0.84 7,-1.5c3.92,-3.88 7.92,-7.71 12,-11.5c2.35,1.7 3.35,4.04 3,7c2.67,0.67 5.33,1.33 8,2c1.26,6.8 2.76,13.47 4.5,20c-0.99,1.44 -2.32,2.44 -4,3c-0.19,2.4 -0.69,4.73 -1.5,7c-5.07,0.64 -10.07,1.64 -15,3c-0.49,0.95 -0.82,1.95 -1,3c1.26,2.52 1.93,5.19 2,8c3.35,0.28 6.02,-0.89 8,-3.5c2.65,-0.5 5.31,-0.66 8,-0.5c-0.81,2.97 -2.81,4.8 -6,5.5c-1.82,2.82 -3.99,5.32 -6.5,7.5c-2.88,3.82 -4.71,8.16 -5.5,13c-2.33,0 -4.67,0 -7,0c0,1.33 0,2.67 0,4c4.97,0.69 4.97,2.19 0,4.5c-7.22,0.61 -14.22,2.11 -21,4.5c-5.46,0.99 -10.96,1.66 -16.5,2c-5.53,-0.64 -11.03,-1.14 -16.5,-1.5c-3.59,3.25 -6.76,6.75 -9.5,10.5c-0.48,0.95 -0.65,1.95 -0.5,3c-2.17,0.38 -3.83,-0.28 -5,-2c0.74,-2.14 1.41,-4.3 2,-6.5c-0.52,-2.97 -2.02,-3.8 -4.5,-2.5c-3.84,9.36 -6.01,8.69 -6.5,-2c-1.43,-0.73 -2.6,-1.73 -3.5,-3c-2.86,1.68 -6.02,2.68 -9.5,3c-1.4,-0.37 -2.4,-1.2 -3,-2.5c-0.33,-2.58 -1.33,-4.74 -3,-6.5c-1.72,1.17 -2.38,2.84 -2,5c-3.33,-1.15 -6.66,-1.31 -10,-0.5c-0.75,-2.13 -2.09,-3.8 -4,-5c-2.73,-0.18 -5.39,-0.68 -8,-1.5c-1.07,-2.62 -0.41,-4.78 2,-6.5c-3.19,-0.59 -6.36,-0.43 -9.5,0.5c-1.84,1.66 -4.01,2.66 -6.5,3c-0.06,-2.52 0.61,-4.85 2,-7c-1.23,-3.29 -2.9,-6.29 -5,-9c-1.34,3.24 -3.51,4.24 -6.5,3c-2.11,-3.85 -4.11,-7.85 -6,-12c-2.4,-3.06 -5.4,-5.4 -9,-7c-0.5,-1 -1,-2 -1.5,-3c1.07,-2.94 1.24,-5.94 0.5,-9c-1.01,-0.84 -2.18,-1.17 -3.5,-1c-0.1,-4.22 -1.43,-7.89 -4,-11c-0.5,-2 -1,-4 -1.5,-6c-2.12,-0.47 -3.62,-1.63 -4.5,-3.5c3,-5.58 1.33,-9.42 -5,-11.5c-1.36,-1.53 -2.53,-3.2 -3.5,-5c0.29,-4.27 0.46,-8.61 0.5,-13c-1.64,-0.21 -3.14,0.12 -4.5,1c-2.27,-2.9 -4.27,-5.9 -6,-9c-0.77,0.14 -1.44,0.48 -2,1c-0.33,1.33 -0.67,2.67 -1,4c-0.9,-2.3 -1.73,-4.64 -2.5,-7c-2.98,-1.71 -5.32,-1.21 -7,1.5c0.79,2.1 1.12,4.27 1,6.5c-3.23,1.08 -6.57,1.74 -10,2c-0.12,-3.36 -0.45,-6.69 -1,-10c-2.51,0.66 -4.68,2 -6.5,4c-0.57,-6.02 -0.41,-12.02 0.5,-18c-6.1,-0.47 -11.93,0.53 -17.5,3c-0.83,-0.33 -1.67,-0.67 -2.5,-1c1.94,-1.24 3.6,-2.74 5,-4.5c-3.06,-2.58 -6.22,-5.08 -9.5,-7.5c-0.48,-0.95 -0.65,-1.95 -0.5,-3c-1.05,0.15 -2.05,-0.02 -3,-0.5c-3.38,-2.37 -5.54,-5.54 -6.5,-9.5c-8.55,-7.97 -10.72,-6.47 -6.5,4.5c-0.5,0.5 -1,1 -1.5,1.5c-2.69,-1.38 -5.53,-1.88 -8.5,-1.5c-0.67,3.33 -1.33,6.67 -2,10c-2.18,0.35 -4.18,-0.15 -6,-1.5c-1.63,0.55 -3.3,0.88 -5,1c-0.5,-2.99 -1,-5.99 -1.5,-9c-2.39,-0.64 -4.89,-0.64 -7.5,0c-0.24,-1.97 0.09,-3.8 1,-5.5c9.08,0.66 10.75,-2.17 5,-8.5c-1.48,2.07 -3.48,3.07 -6,3c0.17,-5.68 0,-11.34 -0.5,-17c-1.33,-1.33 -2.67,-1.33 -4,0c-0.43,2.68 -0.27,5.35 0.5,8c-0.08,1.8 -0.58,3.47 -1.5,5c-2.87,-3.95 -5.37,-8.12 -7.5,-12.5c0.41,-0.94 1.07,-1.61 2,-2c1.97,-0.5 3.97,-0.66 6,-0.5c0.16,-2.69 0,-5.35 -0.5,-8c-0.39,-0.93 -1.05,-1.6 -2,-2c-4.49,2.58 -9.33,3.42 -14.5,2.5c-0.72,-2.56 -2.39,-3.72 -5,-3.5c-0.13,-2.97 -1.63,-4.97 -4.5,-6c-2.75,-3.15 -4.75,-6.82 -6,-11c-5,-5.58 -10,-11.25 -15,-17c-1.64,-9.61 -2.3,-19.28 -2,-29c0.64,-1.15 1.48,-2.15 2.5,-3c-0.79,-1.69 -0.46,-3.36 1,-5c1.57,-1.7 3.4,-3.03 5.5,-4c2.36,-2.92 2.86,-6.09 1.5,-9.5c0.5,-1.5 1,-3 1.5,-4.5c6.51,-9.85 12.85,-19.85 19,-30c2.26,-3.56 3.6,-7.56 4,-12c1.67,-1.33 3.33,-1.33 5,0c-0.77,5.31 -0.6,10.64 0.5,16c4.38,-0.33 8.72,0.01 13,1c1.25,1.54 1.25,3.04 0,4.5c-4.26,2.2 -8.76,4.04 -13.5,5.5c-1.96,3.73 -3.3,7.73 -4,12c-1.9,1.9 -4.06,3.4 -6.5,4.5c-4.05,4.28 -6.38,9.44 -7,15.5c1.09,3.9 2.42,7.57 4,11c1.79,0.29 3.45,-0.05 5,-1c0.94,-1.47 2.27,-2.47 4,-3c1.53,-1.79 2.53,-3.79 3,-6c2.1,0.02 3.93,-0.64 5.5,-2c0.77,0.14 1.44,0.48 2,1c1.42,6.1 3.92,11.76 7.5,17c0.83,-7.31 1.33,-14.64 1.5,-22c1.11,-1.54 2.61,-2.2 4.5,-2c1.36,-3.1 1.2,-6.1 -0.5,-9c-0.67,-4 -0.67,-8 0,-12c2.18,-0.49 4.01,-1.49 5.5,-3c-2.03,-6.26 -2.36,-12.59 -1,-19c3.01,0.33 5.51,1.66 7.5,4c0.33,8.67 0.67,17.33 1,26c2.03,1.24 2.87,2.74 2.5,4.5c1.44,0.78 2.78,0.61 4,-0.5c0.93,-2.3 1.77,-4.63 2.5,-7c3.36,-3.86 6.52,-7.86 9.5,-12c2.87,-0.71 5.7,-1.37 8.5,-2c0.85,-2.53 0.19,-4.53 -2,-6c-1.15,-2.25 -1.48,-4.59 -1,-7c2.6,-2.35 5.1,-4.85 7.5,-7.5c0.6,-5.16 1.26,-10.33 2,-15.5c2.17,-5.89 4.51,-11.56 7,-17c1.43,0.08 2.76,-0.25 4,-1c0.98,-2.93 1.32,-5.93 1,-9c2.82,-0.18 4.49,1.15 5,4c0.5,1.02 1.17,1.19 2,0.5c0.8,-4.41 1.3,-8.91 1.5,-13.5c1.01,-0.84 2.18,-1.17 3.5,-1c0.31,-2.85 1.97,-4.35 5,-4.5c2.24,-2.79 4.91,-5.13 8,-7c3.54,-12.03 6.71,-24.2 9.5,-36.5c1.44,-1.66 3.28,-2.32 5.5,-2c2.35,-4.81 1.01,-7.98 -4,-9.5c0.67,-1 1.33,-2 2,-3c2.26,-0.24 4.43,-0.74 6.5,-1.5c-0.12,-5.11 1.22,-9.78 4,-14c10.81,-13.74 24.81,-22.07 42,-25c1.57,0.62 3.24,0.96 5,1c6.97,-1.26 13.97,-2.26 21,-3c2.71,0.08 5.38,0.41 8,1c12.44,-1.57 24.94,-2.57 37.5,-3c3.3,-0.21 6.3,0.63 9,2.5c7.37,0.27 14.7,0.77 22,1.5c0.57,2.98 1.57,5.81 3,8.5c2.67,0.33 5.33,0.67 8,1c0.76,1.51 1.76,2.85 3,4c4.38,2.81 9.22,4.65 14.5,5.5c2.32,2.6 5.16,3.43 8.5,2.5c1.58,-2.08 3.58,-3.58 6,-4.5c4.2,1.01 8.2,2.51 12,4.5c6.05,0.26 12.05,0.93 18,2c3.52,2.24 7.02,4.41 10.5,6.5c3.09,1.07 6.26,1.73 9.5,2c0.91,2.39 1.07,4.72 0.5,7c2.38,1.05 4.88,1.72 7.5,2c-0.64,2.61 -0.64,5.11 0,7.5c5.33,0.33 10.67,0.67 16,1c0.84,1.01 1.17,2.18 1,3.5c8.56,-1.95 10.89,0.88 7,8.5c2.11,3.01 4.78,3.35 8,1c0.73,-1.4 1.23,-2.9 1.5,-4.5c0.69,0.86 1.52,1.52 2.5,2c3.24,11.44 6.74,22.77 10.5,34c1.38,6.62 1.71,13.28 1,20c-1.15,2 -2.65,2.33 -4.5,1c-0.54,-2.6 -0.7,-5.27 -0.5,-8c-0.61,-2.53 -2.11,-3.37 -4.5,-2.5c-1.22,3.45 -1.22,6.95 0,10.5c-1.48,3.52 -3.15,6.85 -5,10c-3.85,1.02 -7.35,2.69 -10.5,5c-1.66,0.11 -2.83,-0.55 -3.5,-2c-6.67,-0.67 -13.33,-1.33 -20,-2c-0.65,-1.62 -1.15,-3.28 -1.5,-5c-0.73,-0.56 -1.56,-0.89 -2.5,-1c-4.4,1.99 -8.9,2.32 -13.5,1c-2.13,0.63 -4.3,1.13 -6.5,1.5c-0.63,3.13 -1.3,6.3 -2,9.5c-1.87,2.73 -2.87,2.4 -3,-1c-1.18,0.22 -2.18,-0.11 -3,-1c-1.75,-2.71 -3.75,-5.21 -6,-7.5c-2.95,-0.11 -4.28,-1.61 -4,-4.5c-4.73,-1.12 -9.06,-2.95 -13,-5.5c-3.03,-0.5 -6.03,-0.33 -9,0.5c0.28,2.89 -1.05,4.39 -4,4.5c-0.29,3.09 -1.96,4.59 -5,4.5c0.15,1.05 -0.02,2.05 -0.5,3c-2.59,2.94 -5.09,5.94 -7.5,9c0.9,3.32 2.9,5.49 6,6.5c1.67,2.33 3.33,4.67 5,7c1.52,1.01 3.19,1.51 5,1.5c-0.28,2.89 1.05,4.39 4,4.5c1.52,2.92 0.85,5.25 -2,7c-0.86,3.14 -1.53,6.3 -2,9.5c-2.58,-0.42 -4.75,0.25 -6.5,2c-1.52,8.55 0.31,16.22 5.5,23c-0.21,0.59 -0.54,1.09 -1,1.5c2.67,1.8 4.83,3.96 6.5,6.5c2.14,-1.14 3.97,-2.64 5.5,-4.5c2.03,-1.2 4.03,-1.37 6,-0.5c-2.96,3.46 -6.12,6.79 -9.5,10c-0.48,0.95 -0.65,1.95 -0.5,3c-11.2,2.72 -14.87,9.72 -11,21c-0.22,1.56 -0.89,2.89 -2,4c2.66,2.49 5.5,4.83 8.5,7c0.32,1.56 1.15,2.73 2.5,3.5c-0.33,0.33 -0.67,0.67 -1,1c1.33,0.67 2.67,0.67 4,0c2.03,-2.26 4.36,-2.76 7,-1.5c-0.21,0.59 -0.54,1.09 -1,1.5c1.91,2.79 3.07,5.96 3.5,9.5c9.07,7 13.91,16.33 14.5,28c-11.52,-1.81 -22.52,-0.31 -33,4.5c-0.57,1.2 -1.24,2.37 -2,3.5c-3.05,-1.37 -4.38,-3.71 -4,-7c-2.1,-0.3 -4.1,0.03 -6,1c-1.68,1.28 -3.51,2.28 -5.5,3c-1.73,-1.51 -3.23,-3.18 -4.5,-5c-3.71,1.31 -7.37,1.14 -11,-0.5c-0.88,-1.36 -1.21,-2.86 -1,-4.5c-1,0 -2,0 -3,0c0.59,-4.24 -1.24,-5.91 -5.5,-5c-9.24,0.59 -18.24,2.26 -27,5c-3.71,-2.26 -7.88,-3.43 -12.5,-3.5c-2.14,-2.72 -3.81,-5.72 -5,-9c1.14,-12.14 7.31,-20.64 18.5,-25.5c1.44,-4.19 2.94,-8.19 4.5,-12c-6.11,2.49 -12.44,4.82 -19,7c-2.31,3.09 -5.31,5.26 -9,6.5c-2.56,4.31 -5.23,8.48 -8,12.5c-0.82,0.89 -1.82,1.22 -3,1c0,1 0,2 0,3c-1.33,0 -2.67,0 -4,0c-0.54,2.08 -1.38,4.08 -2.5,6c-1.11,1.54 -2.61,2.2 -4.5,2c0.03,3.25 -1.14,5.92 -3.5,8c-0.33,2.67 -0.67,5.33 -1,8c-1.46,1.25 -2.96,1.25 -4.5,0c-2.93,4.33 -5.76,8.66 -8.5,13c-1.46,4.24 -1.79,8.57 -1,13c1.19,-2.11 2.86,-3.77 5,-5c0.48,-0.95 0.65,-1.95 0.5,-3c3.04,0.09 4.71,-1.41 5,-4.5c0.95,-0.48 1.95,-0.65 3,-0.5c1.29,-3.91 3.12,-7.58 5.5,-11c5.58,-5.01 9.91,-11.01 13,-18c2.56,-0.72 3.72,-2.39 3.5,-5c1.67,0 3.33,0 5,0c-0.17,6.01 0,12.01 0.5,18c1.99,3.08 4.82,4.75 8.5,5c0.25,2.97 1.91,4.3 5,4c0,1 0,2 0,3c1.98,-0.12 3.65,0.55 5,2c5.3,0.83 10.64,1.33 16,1.5c0.84,1.01 1.17,2.18 1,3.5c-3.48,-0.32 -6.81,0.18 -10,1.5c0.77,2.4 1.27,4.9 1.5,7.5c2.48,-1.67 5.31,-2.5 8.5,-2.5c0.92,-2.04 1.26,-4.21 1,-6.5c1.78,-0.29 3.44,-0.95 5,-2c3.92,2.04 3.92,4.21 0,6.5c2.48,2.14 4.98,4.31 7.5,6.5c1.79,3.35 3.45,6.68 5,10c1.68,0.56 3.01,1.56 4,3c1.66,-2.59 1.99,-5.26 1,-8c1.57,-1.35 3.41,-2.01 5.5,-2c4.08,1.4 8.25,2.73 12.5,4c2.61,-1.82 5.44,-2.32 8.5,-1.5c0.88,1.36 1.21,2.86 1,4.5c9,0.52 17.67,-1.31 26,-5.5c3.57,-1.71 3.73,-3.54 0.5,-5.5c-1.16,-5.91 1.34,-8.25 7.5,-7c-1.45,2.33 -2.79,4.83 -4,7.5c0.92,0.37 1.75,0.87 2.5,1.5c2.33,-1.33 4.67,-1.33 7,0c0.67,1 0.67,2 0,3c-3.25,1.75 -4.41,4.25 -3.5,7.5c4.1,0.41 6.77,-1.42 8,-5.5c2.53,11.19 5.86,22.02 10,32.5c-2.36,3.04 -5.03,5.87 -8,8.5c-2.26,-0.92 -3.26,-2.59 -3,-5c-3.28,-0.53 -4.61,-2.53 -4,-6z" fill="#fefefe" id="svg_79"/>
   </g>
   <g id="svg_80">
    <path d="m239.5,214.5c2.67,0 5.33,0 8,0c0.22,1.18 -0.11,2.18 -1,3c-1.8,0.64 -3.14,1.8 -4,3.5c-1.97,0.5 -3.97,0.66 -6,0.5c0,-1.67 0,-3.33 0,-5c1.68,0.22 2.68,-0.45 3,-2z" fill="#000000" id="svg_81"/>
   </g>
   <g id="svg_82">
    <path d="m250.5,222.5c1.05,-0.15 2.05,0.02 3,0.5c0.71,2.54 2.04,4.71 4,6.5c-2.63,1.75 -5.3,2.08 -8,1c-0.22,-2.78 0.11,-5.45 1,-8z" fill="#000000" id="svg_83"/>
   </g>
   <g id="svg_84">
    <path d="m214.5,223.5c2.42,-0.31 4.76,0.03 7,1c2.43,1.65 5.09,2.81 8,3.5c6.44,5.44 12.61,11.28 18.5,17.5c0.26,2.76 1.76,4.43 4.5,5c2.13,2.69 4.13,5.53 6,8.5c0.95,0.48 1.95,0.65 3,0.5c-0.15,1.05 0.02,2.05 0.5,3c2.03,1.19 3.53,2.86 4.5,5c2.97,1.01 5.97,1.01 9,0c0.13,-2.97 1.63,-4.97 4.5,-6c0.31,-1.27 0.81,-2.43 1.5,-3.5c-0.69,-1.07 -1.19,-2.23 -1.5,-3.5c-3.06,-1.45 -5.73,-3.45 -8,-6c-0.49,-1.29 -0.66,-2.63 -0.5,-4c6.85,0.07 13.35,1.4 19.5,4c4.69,-2.02 8.86,-4.85 12.5,-8.5c0.95,-0.48 1.95,-0.65 3,-0.5c-0.22,-1.18 0.11,-2.18 1,-3c2.67,-2 5.33,-4 8,-6c0.89,-0.82 1.22,-1.82 1,-3c3.02,-0.16 6.02,0 9,0.5c2.86,2.86 5.69,5.69 8.5,8.5c0.48,0.95 0.65,1.95 0.5,3c3.9,0.11 6.57,1.95 8,5.5c-1.17,2.5 -2.33,5 -3.5,7.5c-2.65,1.66 -4.99,3.65 -7,6c-0.04,2.98 0.12,5.98 0.5,9c-1,0 -2,0 -3,0c0.33,-3 -1,-4.33 -4,-4c0.15,1.05 -0.02,2.05 -0.5,3c-2.15,1.31 -3.65,3.14 -4.5,5.5c-4.04,1.71 -6.7,4.71 -8,9c0.85,1.02 1.85,1.86 3,2.5c3.12,-2.59 6.12,-2.59 9,0c-2.69,1.01 -5.03,2.51 -7,4.5c1.42,1.42 2.42,3.09 3,5c-2.87,6.54 -4.54,13.37 -5,20.5c-2.42,0.31 -4.76,-0.03 -7,-1c1.32,-1.31 2.32,-2.81 3,-4.5c-2.44,-1.71 -5.1,-2.88 -8,-3.5c-1.94,5.59 -2.28,11.26 -1,17c3.09,-0.3 4.75,1.03 5,4c2.69,-0.16 5.35,0 8,0.5c2.4,3 5.07,5.67 8,8c2.31,0.66 4.65,1.16 7,1.5c0.36,3.38 1.7,6.38 4,9c-1.13,0.76 -2.3,1.43 -3.5,2c-0.18,3.46 -0.85,6.79 -2,10c-2.39,2.27 -4.89,4.43 -7.5,6.5c-2.35,-0.14 -4.68,-0.64 -7,-1.5c-1,-2.67 -2,-5.33 -3,-8c-1.05,0.15 -2.05,-0.02 -3,-0.5c-3.06,-2.71 -5.9,-5.54 -8.5,-8.5c0.99,-3.07 0.66,-6.07 -1,-9c-1.01,-0.84 -2.18,-1.17 -3.5,-1c0,-1 0,-2 0,-3c-2.97,-0.13 -4.97,-1.63 -6,-4.5c-6,-1.12 -12,-1.79 -18,-2c-4.61,1.61 -7.44,4.77 -8.5,9.5c-2.17,0.83 -3.67,2.33 -4.5,4.5c-3.34,3.25 -7.34,5.58 -12,7c-0.84,1.01 -1.17,2.18 -1,3.5c-2.44,-0.38 -3.11,0.29 -2,2c-3.28,1.02 -6.11,2.69 -8.5,5c-7.31,0.12 -14.48,1.45 -21.5,4c-0.19,-2.06 -0.69,-4.06 -1.5,-6c-3.45,-1.12 -5.95,-3.29 -7.5,-6.5c1.01,-5.5 1.18,-11 0.5,-16.5c1.11,-1.54 2.61,-2.2 4.5,-2c0,-1 0,-2 0,-3c3,0.33 4.33,-1 4,-4c1.05,0.15 2.05,-0.02 3,-0.5c1.5,-2.17 3.33,-4 5.5,-5.5c0.48,-0.95 0.65,-1.95 0.5,-3c5.5,-0.66 8.83,-3.66 10,-9c3.24,-0.62 5.9,-2.29 8,-5c-5.88,-0.49 -11.55,-1.82 -17,-4c-12.33,5.41 -23.33,3.58 -33,-5.5c-1.29,-0.49 -2.63,-0.66 -4,-0.5c0.22,-1.18 -0.11,-2.18 -1,-3c-1.56,-0.57 -3.06,-1.24 -4.5,-2c-0.68,-1.28 -0.52,-2.45 0.5,-3.5c3.33,-0.67 6.67,-0.67 10,0c0.84,1.01 1.17,2.18 1,3.5c3.32,-0.01 5.66,1.49 7,4.5c7.65,-0.58 15.32,-0.41 23,0.5c0,-1 0,-2 0,-3c2.89,-0.11 5.22,-1.28 7,-3.5c-1.96,-1.3 -3.13,-3.13 -3.5,-5.5c-1.09,-0.79 -2.25,-1.46 -3.5,-2c-4.55,-5.93 -9.55,-11.43 -15,-16.5c-2.95,-0.11 -4.28,-1.61 -4,-4.5c-1.05,0.15 -2.05,-0.02 -3,-0.5c-2.09,-2.11 -4.09,-4.28 -6,-6.5c4.72,-8.56 11.05,-15.72 19,-21.5c0.75,-0.67 1.09,-1.5 1,-2.5z" fill="#000000" id="svg_85"/>
   </g>
   <g id="svg_86">
    <path d="m267.5,226.5c3.09,-0.3 4.75,1.03 5,4c2.67,0.43 5.33,0.93 8,1.5c1.7,2.24 2.7,4.74 3,7.5c-4.01,-0.17 -8.01,0 -12,0.5c-0.84,1.01 -1.17,2.18 -1,3.5c-3.87,-1.43 -7.87,-2.59 -12,-3.5c-1.66,-3.15 -0.66,-4.65 3,-4.5c-0.15,-1.05 0.02,-2.05 0.5,-3c2.38,-1.54 4.21,-3.54 5.5,-6z" fill="#000000" id="svg_87"/>
   </g>
   <g id="svg_88">
    <path d="m289.5,231.5c4.01,-0.17 8.01,0 12,0.5c1.33,1 1.33,2 0,3c-4.04,1.69 -8.04,1.69 -12,0c-1.18,-1.15 -1.18,-2.31 0,-3.5z" fill="#000000" id="svg_89"/>
   </g>
   <g id="svg_90">
    <path d="m393.5,254.5c1.07,-0.93 2.4,-1.27 4,-1c0,1.33 0,2.67 0,4c-1,0 -2,0 -3,0c0.24,-1.29 -0.1,-2.29 -1,-3z" fill="#000000" id="svg_91"/>
   </g>
   <g id="svg_92">
    <path d="m40.5,259.5c4.71,-0.33 9.38,0.01 14,1c0.92,2.26 2.59,3.26 5,3c-0.33,3 1,4.33 4,4c1.6,4.53 0.27,7.86 -4,10c-2.64,-1.48 -4.98,-3.32 -7,-5.5c-4.39,-2.26 -9.05,-3.6 -14,-4c-0.56,-0.73 -0.89,-1.56 -1,-2.5c0.61,-2.26 1.61,-4.26 3,-6z" fill="#fefffe" id="svg_93"/>
   </g>
   <g id="svg_94">
    <path d="m65.5,281.5c1.1,-1.1 2.43,-1.26 4,-0.5c1.3,2.15 3.14,3.65 5.5,4.5c1.28,2.87 1.44,5.7 0.5,8.5c-1.73,0.65 -3.4,0.49 -5,-0.5c-1.31,-3.23 -2.31,-6.56 -3,-10c-0.25,-1.21 -0.91,-1.88 -2,-2z" fill="#fefffe" id="svg_95"/>
   </g>
   <g id="svg_96">
    <path d="m415.5,281.5c1.37,-0.16 2.71,0.01 4,0.5c0.88,1.58 2.21,2.58 4,3c1.02,1.05 1.18,2.22 0.5,3.5c-7.33,2.83 -10.16,0.49 -8.5,-7z" fill="#fefffe" id="svg_97"/>
   </g>
   <g id="svg_98">
    <path d="m471.5,288.5c4.7,-0.06 7.2,2.27 7.5,7c-1.07,12.88 -0.57,25.71 1.5,38.5c-0.39,3.33 -0.73,6.66 -1,10c0.52,4.2 1.19,8.37 2,12.5c-4.77,0.15 -7.1,-2.18 -7,-7c-4.65,0.19 -7.65,-1.81 -9,-6c3.05,-0.01 6.05,-0.34 9,-1c-0.41,-4.33 -2.74,-6.83 -7,-7.5c-1.59,-2.48 -1.09,-4.31 1.5,-5.5c1.77,0.73 3.6,1.07 5.5,1c-0.35,-6.34 -0.85,-12.67 -1.5,-19c-1.91,-5.45 -3.08,-11.12 -3.5,-17c0.67,-2.03 1.34,-4.03 2,-6z" fill="#fefffe" id="svg_99"/>
   </g>
   <g id="svg_100">
    <path d="m24.5,303.5c1,0 2,0 3,0c0.16,1.37 -0.01,2.71 -0.5,4c-1.69,3.11 -3.52,6.11 -5.5,9c-1.59,-5.01 -0.59,-9.34 3,-13z" fill="#fefffe" id="svg_101"/>
   </g>
   <g id="svg_102">
    <path d="m448.5,316.5c2.03,-0.16 4.03,0 6,0.5c3.09,4.06 2.09,5.73 -3,5c-2.18,-1.19 -3.18,-3.02 -3,-5.5z" fill="#fefffe" id="svg_103"/>
   </g>
   <g id="svg_104">
    <path d="m99.5,325.5c1.76,1.05 2.42,2.72 2,5c-1.17,0.22 -2.17,-0.11 -3,-1c0.75,-1.24 1.08,-2.57 1,-4z" fill="#000000" id="svg_105"/>
   </g>
   <g id="svg_106">
    <path d="m448.5,331.5c3.54,0.89 5.2,3.22 5,7c-1.33,0 -2.67,0 -4,0c-0.49,-2.31 -0.83,-4.64 -1,-7z" fill="#fefffe" id="svg_107"/>
   </g>
   <g id="svg_108">
    <path d="m429.5,340.5c1.33,0 2.67,0 4,0c0,1.33 0,2.67 0,4c-1.7,0.16 -3.37,-0.01 -5,-0.5c0.84,-1.01 1.17,-2.18 1,-3.5z" fill="#fefffe" id="svg_109"/>
   </g>
   <g id="svg_110">
    <path d="m435.5,346.5c1.33,0 2.67,0 4,0c0,1 0,2 0,3c1,0 2,0 3,0c0,2.33 0,4.67 0,7c1.95,0.27 3.45,-0.39 4.5,-2c1.1,1.55 2.43,2.89 4,4c-0.2,2.74 -0.03,5.4 0.5,8c4.33,4.16 8.83,8.16 13.5,12c1.01,1.52 1.51,3.19 1.5,5c2.32,0.27 4.32,-0.4 6,-2c0.69,0.52 1.19,1.19 1.5,2c0.67,5.33 0.67,10.67 0,16c-2.81,3.16 -5.31,6.66 -7.5,10.5c2.68,3.4 3.51,7.24 2.5,11.5c-1.7,0.91 -3.53,1.24 -5.5,1c-1.42,3.19 -2.59,6.52 -3.5,10c-2.89,2.13 -5.55,4.47 -8,7c-0.25,2.7 -0.25,5.37 0,8c-1.17,1.39 -2.67,2.23 -4.5,2.5c-1.14,3.67 -3.64,5.83 -7.5,6.5c-2.24,-0.59 -4.41,-1.26 -6.5,-2c0.54,-3.17 -0.3,-5.83 -2.5,-8c-0.8,2.66 -2.13,5 -4,7c-0.33,3 -0.67,6 -1,9c-4.41,1.93 -6.24,0.43 -5.5,-4.5c0.26,-3.07 1.26,-5.74 3,-8c-0.21,-1.37 -0.54,-2.7 -1,-4c1.15,-2.44 1.65,-4.94 1.5,-7.5c-3.47,-3.38 -7.64,-4.72 -12.5,-4c-0.26,-1.48 0.07,-2.81 1,-4c2.75,-1 4.75,-2.83 6,-5.5c-0.4,-0.94 -1.07,-1.61 -2,-2c-3.69,-0.19 -7.19,-1.02 -10.5,-2.5c0.37,-2.27 0.37,-4.6 0,-7c-2.64,-3.62 -4.47,-7.62 -5.5,-12c-2.54,-0.93 -5.04,-1.93 -7.5,-3c-3.29,-6.57 -7.12,-12.9 -11.5,-19c0.42,-1.17 1.08,-2.17 2,-3c2.66,-0.83 5.33,-1.67 8,-2.5c-0.46,-0.41 -0.79,-0.91 -1,-1.5c2.37,-2.37 5.04,-4.37 8,-6c4.47,0.99 8.63,2.65 12.5,5c4.94,0.95 9.78,1.95 14.5,3c-0.17,-2.49 0.83,-4.33 3,-5.5c5.31,-0.81 10.65,-1.48 16,-2c1.65,-1.44 2.32,-3.28 2,-5.5c-4.01,-0.17 -8.01,0 -12,0.5c-1.47,0.71 -2.14,1.88 -2,3.5c-4.35,2.42 -9.02,3.25 -14,2.5c-4.08,-2.78 -4.75,-6.12 -2,-10c6.27,-1.26 12.6,-1.76 19,-1.5c1.21,-3.35 1.21,-6.69 0,-10z" fill="#fefefe" id="svg_111"/>
   </g>
   <g id="svg_112">
    <path d="m41.5,362.5c3.14,-1.14 6.47,-1.31 10,-0.5c-0.84,1.01 -1.17,2.18 -1,3.5c-2.67,0 -5.33,0 -8,0c0.24,-1.29 -0.1,-2.29 -1,-3z" fill="#000000" id="svg_113"/>
   </g>
   <g id="svg_114">
    <path d="m26.5,365.5c3.89,0.36 4.89,2.36 3,6c-1.53,-1.79 -2.53,-3.79 -3,-6z" fill="#000000" id="svg_115"/>
   </g>
   <g id="svg_116">
    <path d="m58.5,372.5c0.06,-0.54 0.39,-0.88 1,-1c3.16,0.76 6.16,1.93 9,3.5c0.64,1.71 0.64,3.54 0,5.5c-1.17,0.22 -2.17,-0.11 -3,-1c-2.77,-1.95 -5.1,-4.28 -7,-7z" fill="#000000" id="svg_117"/>
   </g>
   <g id="svg_118">
    <path d="m60.5,392.5c2.1,-0.3 4.1,0.03 6,1c-2.89,4.11 -6.56,7.27 -11,9.5c-2.62,0.82 -5.28,1.32 -8,1.5c2.09,-6.43 6.43,-10.43 13,-12z" fill="#000000" id="svg_119"/>
   </g>
   <g id="svg_120">
    <path d="m311.5,422.5c5.16,2.23 4.83,2.89 -1,2c0.36,-0.68 0.7,-1.35 1,-2z" fill="#fefffe" id="svg_121"/>
   </g>
   <g id="svg_122">
    <path d="m436.5,432.5c1.98,0.5 3.98,1 6,1.5c2,4.33 0.67,6 -4,5c-1.22,-1.59 -2.55,-3.09 -4,-4.5c0.74,-0.68 1.41,-1.35 2,-2z" fill="#000000" id="svg_123"/>
   </g>
   <g id="svg_124">
    <path d="m353.5,435.5c1.55,0.32 2.21,1.32 2,3c-1.05,0.15 -2.05,-0.02 -3,-0.5c0.75,-0.67 1.09,-1.5 1,-2.5z" fill="#fefffe" id="svg_125"/>
   </g>
   <g id="svg_126">
    <path d="m218.5,443.5c1.33,0 2.67,0 4,0c-2.54,7.31 -4.37,14.98 -5.5,23c-2.53,2.67 -4.36,5.67 -5.5,9c-1.33,0 -2.67,0 -4,0c0,-1 0,-2 0,-3c-1,0 -2,0 -3,0c2.02,-4.62 3.02,-9.62 3,-15c-3.02,-0.2 -6.02,-0.54 -9,-1c-0.44,-5.12 1.89,-7.78 7,-8c6.43,3.61 10.76,1.95 13,-5z" fill="#000000" id="svg_127"/>
   </g>
   <g id="svg_128">
    <path d="m119.5,458.5c1.33,0 2.67,0 4,0c0.26,1.48 -0.07,2.81 -1,4c-2.05,-0.58 -3.05,-1.91 -3,-4z" fill="#000000" id="svg_129"/>
   </g>
   <g id="svg_130">
    <path d="m446.5,459.5c2.47,0.45 2.64,1.45 0.5,3c-0.48,-0.95 -0.65,-1.95 -0.5,-3z" fill="#fefffe" id="svg_131"/>
   </g>
   <g id="svg_132">
    <path d="m128.5,465.5c1,0 2,0 3,0c0,1.67 0,3.33 0,5c-1,0 -2,0 -3,0c0,-1.67 0,-3.33 0,-5z" fill="#000000" id="svg_133"/>
   </g>
   <g id="svg_134">
    <path d="m442.5,465.5c1,0 2,0 3,0c0.17,7.18 -1.16,7.68 -4,1.5c0.56,-0.38 0.89,-0.88 1,-1.5z" fill="#fefffe" id="svg_135"/>
   </g>
   <g id="svg_136">
    <path d="m70.5,468.5c2.33,0 4.67,0 7,0c0.15,1.05 -0.02,2.05 -0.5,3c-1.98,0.98 -3.64,2.31 -5,4c-1.73,-0.23 -2.57,-1.23 -2.5,-3c0.35,-1.35 0.68,-2.68 1,-4z" fill="#fefffe" id="svg_137"/>
   </g>
   <g id="svg_138">
    <path d="m418.5,468.5c5.36,-0.27 7.03,2.06 5,7c-6.7,1.45 -8.37,-0.88 -5,-7z" fill="#fefffe" id="svg_139"/>
   </g>
   <g id="svg_140">
    <path d="m392.5,479.5c-0.38,-4.26 1.29,-7.26 5,-9c0.33,0.83 0.67,1.67 1,2.5c-0.92,2.09 -1.58,4.25 -2,6.5c-1.33,0 -2.67,0 -4,0z" fill="#000000" id="svg_141"/>
   </g>
   <g id="svg_142">
    <path d="m83.5,472.5c1,-0.03 1.66,0.47 2,1.5c1.6,4.4 1.27,8.56 -1,12.5c-2.42,-1.23 -3.42,-3.23 -3,-6c0.21,-2.84 0.87,-5.5 2,-8z" fill="#fefffe" id="svg_143"/>
   </g>
   <g id="svg_144">
    <path d="m159.5,472.5c1.33,0 2.67,0 4,0c0.28,1.85 -0.39,3.18 -2,4c-1.61,-0.82 -2.28,-2.15 -2,-4z" fill="#000000" id="svg_145"/>
   </g>
   <g id="svg_146">
    <path d="m290.5,476.5c3.36,0.7 3.69,2.04 1,4c-2.14,-0.94 -2.48,-2.27 -1,-4z" fill="#fefffe" id="svg_147"/>
   </g>
   <g id="svg_148">
    <path d="m293.5,485.5c3.02,-0.17 6.02,0 9,0.5c3.21,2.51 6.54,4.85 10,7c7.33,0.67 14.67,1.33 22,2c0.46,0.41 0.79,0.91 1,1.5c-6,1.33 -12,1.33 -18,0c-0.21,-0.59 -0.54,-1.09 -1,-1.5c-7.64,-0.98 -15.31,-1.64 -23,-2c-1.28,-2.5 -1.28,-5 0,-7.5z" fill="#fefffe" id="svg_149"/>
   </g>
   <g id="svg_150">
    <path d="m164.5,497.5c1.96,1.6 3.29,3.77 4,6.5c-0.15,0.77 -0.48,1.44 -1,2c-1.63,0.49 -3.3,0.66 -5,0.5c-0.41,-3.36 0.26,-6.36 2,-9z" fill="#fefffe" id="svg_151"/>
   </g>
   <g id="svg_152">
    <path d="m306.5,502.5c2.75,-0.31 5.41,0.02 8,1c2.38,6.12 0.38,8.29 -6,6.5c-1.6,-1.24 -3.27,-2.4 -5,-3.5c1.79,-0.78 2.79,-2.12 3,-4z" fill="#fefffe" id="svg_153"/>
   </g>
   <g id="svg_154">
    <path d="m324.5,507.5c3.4,-0.32 6.73,0.01 10,1c-2.31,0.77 -4.65,1.44 -7,2c-1.71,-0.38 -2.71,-1.38 -3,-3z" fill="#fefffe" id="svg_155"/>
   </g>
   <g id="svg_156">
    <path d="m281.5,511.5c1.33,0 2.67,0 4,0c0,1 0,2 0,3c-1.33,0 -2.67,0 -4,0c0,-1 0,-2 0,-3z" fill="#000000" id="svg_157"/>
   </g>
   <g id="svg_158">
    <path d="m410.5,523.5c3,-0.33 4.33,1 4,4c-3.99,0.63 -5.32,-0.71 -4,-4z" fill="#fefffe" id="svg_159"/>
   </g>
   <g id="svg_160">
    <path d="m293.5,524.5c3.67,2.84 6.84,6.17 9.5,10c0.49,1.29 0.66,2.63 0.5,4c-5.07,-0.19 -9.4,-2.02 -13,-5.5c1.68,-2.54 2.68,-5.37 3,-8.5z" fill="#000000" id="svg_161"/>
   </g>
   <g id="svg_162">
    <path d="m380.5,532.5c1.23,0.65 1.89,1.82 2,3.5c-0.59,4.45 -1.59,4.45 -3,0c0.49,-1.14 0.82,-2.3 1,-3.5z" fill="#000000" id="svg_163"/>
   </g>
   <g id="svg_164">
    <path d="m200.5,533.5c1,0 2,0 3,0c0.51,2.01 0.68,4.01 0.5,6c-1.01,0.84 -2.18,1.17 -3.5,1c-1.33,-2.33 -1.33,-4.67 0,-7z" fill="#000000" id="svg_165"/>
   </g>
   <g id="svg_166">
    <path d="m186.5,538.5c3,-0.33 4.33,1 4,4c-1.33,0 -2.67,0 -4,0c0,-1.33 0,-2.67 0,-4z" fill="#fefffe" id="svg_167"/>
   </g>
   <g id="svg_168">
    <path d="m321.5,559.5c3,3.17 2.33,4.67 -2,4.5c1.08,-1.33 1.75,-2.83 2,-4.5z" fill="#000000" id="svg_169"/>
   </g>
  </symbol>
 </defs>
 <g class="layer">
  <title>Layer 1</title>
  <g id="svg_38">
   <rect fill="#f0f0f0" height="324.43" id="svg_1" stroke="#000000" stroke-width="5" width="246.53" x="0" y="1.83"/>
   <rect fill="#f0f0f0" height="324.43" id="svg_37" stroke="#000000" stroke-width="5" width="246.53" x="250.75" y="1.92"/>
   <text fill="#bfbfbf" font-family="Serif" font-size="24" id="svg_174" stroke="#000000" stroke-width="0" text-anchor="middle" x="647.5" xml:space="preserve" y="100.83"/>
  </g>
  <use id="svg_5" transform="matrix(0.10765 0 0 0.10765 -1.19234 -1.19234)" x="2503.13" xlink:href="#svg_4" y="595.95"/>
  <g id="svg_39" transform="matrix(1 0 0 1 0 0)">
   <text fill="#000000" font-family="Serif" font-size="24" id="svg_2" stroke="#000000" stroke-width="0" text-anchor="middle" transform="matrix(0.798417 0 0 1.07403 -2.67676 2.63662)" x="158.66" xml:space="preserve" y="31.3">اچھی شہریت کا سرٹیفکیٹ</text>
   <text fill="#000000" font-family="Serif" font-size="24" id="svg_3" stroke="#000000" stroke-width="0" text-anchor="middle" x="117" xml:space="preserve" y="66.83">良民证</text>
  </g>
  <g id="svg_40">
   <text fill="#000000" font-family="Serif" font-size="24" id="svg_6" stroke="#000000" stroke-width="0" text-anchor="middle" transform="matrix(0.744883 0 0 0.744883 2.002 18.5374)" x="24" xml:space="preserve" y="93.33">نام</text>
   <text fill="#000000" font-family="Serif" font-size="24" id="svg_7" stroke="#000000" stroke-width="0" text-anchor="middle" transform="matrix(0.744883 0 0 0.744883 2.002 18.5374)" x="95.67" xml:space="preserve" y="93.92">姓名：</text>
   <text fill="#000000" font-family="Serif" font-size="24" id="svg_9" stroke="#000000" stroke-width="0" text-anchor="middle" transform="matrix(0.744883 0 0 0.744883 2.002 18.5374)" x="229.92" xml:space="preserve" y="91.34">مویشی</text>
  </g>
  <g id="svg_41" transform="matrix(1 0 0 1 0 0)">
   <text fill="#000000" font-family="Serif" font-size="24" id="svg_10" stroke="#000000" stroke-width="0" text-anchor="middle" transform="matrix(0.744883 0 0 0.744883 2.002 18.5374)" x="24.93" xml:space="preserve" y="124.9">جنس</text>
   <text fill="#000000" font-family="Serif" font-size="24" id="svg_11" stroke="#000000" stroke-width="0" text-anchor="middle" transform="matrix(0.744883 0 0 0.744883 2.002 18.5374)" x="95.64" xml:space="preserve" y="126.07">性别：</text>
   <text fill="#000000" font-family="Serif" font-size="24" id="svg_12" stroke="#000000" stroke-width="0" text-anchor="middle" transform="matrix(0.744883 0 0 0.744883 2.002 18.5374)" x="205.1" xml:space="preserve" y="124.39">مرد</text>
   <text fill="#000000" font-family="Serif" font-size="24" id="svg_13" stroke="#000000" stroke-width="0" text-anchor="middle" transform="matrix(0.744883 0 0 0.744883 2.002 18.5374)" x="245.37" xml:space="preserve" y="125.43">男</text>
  </g>
  <g id="svg_42">
   <text fill="#000000" font-family="Serif" font-size="24" id="svg_21" stroke="#000000" stroke-width="0" text-anchor="middle" transform="matrix(0.744883 0 0 0.744883 2.002 18.5374)" x="25.26" xml:space="preserve" y="155.63">عمر</text>
   <text fill="#000000" font-family="Serif" font-size="24" id="svg_20" stroke="#000000" stroke-width="0" text-anchor="middle" transform="matrix(0.744883 0 0 0.744883 2.002 18.5374)" x="95.96" xml:space="preserve" y="156.8">年龄：</text>
   <text fill="#000000" font-family="Serif" font-size="24" id="svg_19" stroke="#000000" stroke-width="0" text-anchor="middle" transform="matrix(0.744883 0 0 0.744883 2.002 18.5374)" x="221.43" xml:space="preserve" y="155.12">24</text>
  </g>
  <g id="svg_43">
   <text fill="#000000" font-family="Serif" font-size="24" id="svg_25" stroke="#000000" stroke-width="0" text-anchor="middle" transform="matrix(0.744883 0 0 0.744883 2.002 18.5374)" x="25.78" xml:space="preserve" y="187.12">پتہ</text>
   <text fill="#000000" font-family="Serif" font-size="24" id="svg_24" stroke="#000000" stroke-width="0" text-anchor="middle" transform="matrix(0.744883 0 0 0.744883 2.002 18.5374)" x="96.48" xml:space="preserve" y="188.3">住址：</text>
   <text fill="#000000" font-family="Serif" font-size="24" id="svg_23" stroke="#000000" stroke-width="0" text-anchor="middle" transform="matrix(0.538399 0 0 0.538399 2.52952 59.5226)" x="226.08" xml:space="preserve" y="220.69">P-3874, Ashrafabad Sheikhupura Road,</text>
   <text fill="#000000" font-family="Serif" font-size="24" id="svg_26" stroke="#000000" stroke-width="0" text-anchor="middle" transform="matrix(1 0 0 1 0 0) matrix(0.744883 0 0 0.744883 2.002 18.5374)" x="164.31" xml:space="preserve" y="239.66">Punjab, Karachi, Sindh</text>
   <text fill="#000000" font-family="Serif" font-size="24" id="svg_51" stroke="#000000" stroke-width="0" text-anchor="middle" transform="matrix(0.394909 0 0 0.394909 26.8504 79.4944)" x="353.96" xml:space="preserve" y="177.75">پی 3874، اشرف آباد شیخوپورہ روڈ</text>
   <text fill="#000000" font-family="Serif" font-size="24" id="svg_52" stroke="#000000" stroke-width="0" text-anchor="middle" transform="matrix(0.394909 0 0 0.394909 26.8504 79.4944)" x="359.79" xml:space="preserve" y="212.09">پنجاب, کراچی, سندھ</text>
  </g>
  <g id="svg_44" transform="matrix(1 0 0 1 0 0)">
   <text fill="#000000" font-family="Serif" font-size="24" id="svg_27" stroke="#000000" stroke-width="0" text-anchor="middle" transform="matrix(0.744883 0 0 0.744883 2.002 18.5374)" x="87.89" xml:space="preserve" y="268.24">ٹیلی فون نمبر</text>
   <text fill="#000000" font-family="Serif" font-size="24" id="svg_28" stroke="#000000" stroke-width="0" text-anchor="middle" transform="matrix(0.744883 0 0 0.744883 2.002 18.5374)" x="240.73" xml:space="preserve" y="270.13">电话号码：</text>
   <text fill="#000000" font-family="Serif" font-size="24" id="svg_29" stroke="#000000" stroke-width="0" text-anchor="middle" transform="matrix(0.744883 0 0 0.744883 2.002 18.5374)" x="150.36" xml:space="preserve" y="300.08">92 212573940</text>
  </g>
  <g id="svg_45" transform="matrix(1 0 0 1 0 0)">
   <text fill="#000000" font-family="Serif" font-size="24" id="svg_33" stroke="#000000" stroke-width="0" text-anchor="middle" transform="matrix(0.744883 0 0 0.744883 2.002 18.5374)" x="29.91" xml:space="preserve" y="327.57">سر</text>
   <text fill="#000000" font-family="Serif" font-size="24" id="svg_32" stroke="#000000" stroke-width="0" text-anchor="middle" transform="matrix(0.744883 0 0 0.744883 2.002 18.5374)" x="93.9" xml:space="preserve" y="329.77">保长：</text>
   <text fill="#000000" font-family="Serif" font-size="24" id="svg_31" stroke="#000000" stroke-width="0" text-anchor="middle" transform="matrix(0.744883 0 0 0.744883 2.002 18.5374)" x="233.31" xml:space="preserve" y="327.06">کتاغلام</text>
  </g>
  <g id="svg_46" transform="matrix(1 0 0 1 0 0)">
   <text fill="#000000" font-family="Serif" font-size="24" id="svg_34" stroke="#000000" stroke-width="0" text-anchor="middle" transform="matrix(0.744883 0 0 0.744883 2.002 18.5374)" x="92.46" xml:space="preserve" y="365.82">اجراء کی تاریخ</text>
   <text fill="#000000" font-family="Serif" font-size="24" id="svg_35" stroke="#000000" stroke-width="0" text-anchor="middle" transform="matrix(0.744883 0 0 0.744883 2.002 18.5374)" x="242.79" xml:space="preserve" y="366.68">颁发日期：</text>
   <text fill="#000000" font-family="Serif" font-size="24" id="svg_36" stroke="#000000" stroke-width="0" text-anchor="middle" transform="matrix(0.744883 0 0 0.744883 2.002 18.5374)" x="144.68" xml:space="preserve" y="397.67">2039.06.04</text>
  </g>
  <text fill="#000000" font-family="Serif" font-size="24" id="svg_47" stroke="#000000" stroke-width="0" text-anchor="middle" transform="matrix(0.744883 0 0 0.744883 2.002 18.5374)" x="434.82" xml:space="preserve" y="10.27">اتھارٹی جاری کرنا</text>
  <text fill="#000000" font-family="Serif" font-size="24" id="svg_48" stroke="#000000" stroke-width="0" text-anchor="middle" transform="matrix(0.744883 0 0 0.744883 2.002 18.5374)" x="597.17" xml:space="preserve" y="11.32">颁发机构：</text>
  <text fill="#000000" font-family="Serif" font-size="24" id="svg_49" stroke="#000000" stroke-width="0" text-anchor="middle" transform="matrix(0.452637 0 0 0.452637 58.8499 40.7316)" x="694.34" xml:space="preserve" y="1.09">سنگھ صوبائی حکومت، اسلامی جمہوریہ پاکستان</text>
  <text fill="#000000" font-family="Serif" font-size="24" id="svg_50" stroke="#000000" stroke-width="0" text-anchor="middle" transform="matrix(1 0 0 1 0 0) matrix(0.458239 0 0 0.458239 56.4848 40.8742)" x="699.07" xml:space="preserve" y="33.71">巴基斯坦伊斯兰共和国Sindh省政府</text>
  <use id="svg_75" transform="matrix(0.222427 0 0 0.228038 408.57 104.149)" x="-63.23" xlink:href="#svg_74" y="-190.79">中巴亲善</use>
  <text fill="#000000" font-family="Serif" font-size="24" id="svg_22" stroke="#000000" stroke-width="0" text-anchor="middle" transform="matrix(1 0 0 1 0 0) matrix(0.744883 0 0 0.744883 2.002 18.5374)" x="506.12" xml:space="preserve" y="199.54">پاکستان اور چین دوست ہیں</text>
  <text fill="#000000" font-family="Serif" font-size="24" id="svg_30" stroke="#000000" stroke-width="0" text-anchor="middle" transform="matrix(2.13545 0 0 2.13545 -303.167 -192.895)" x="316.87" xml:space="preserve" y="194.41">中巴亲善</text>
  <text fill="#000000" font-family="Serif" font-size="24" id="svg_53" stroke="#000000" stroke-width="0" text-anchor="middle" transform="matrix(0.676305 0 0 0.676305 87.3771 80.2049)" x="499.95" xml:space="preserve" y="279.36">习近平主席万岁！</text>
  <text fill="#000000" font-family="Serif" font-size="24" id="svg_54" stroke="#000000" stroke-width="0" text-anchor="middle" transform="matrix(0.676305 0 0 0.676305 -77.5446 -42.1769)" x="667.04" xml:space="preserve" y="422.79">صدر شی جن پنگ زندہ باد</text>
  <text fill="#000000" font-family="Serif" font-size="24" id="svg_55" stroke="#000000" stroke-width="0" text-anchor="middle" transform="matrix(0.598666 0 0 0.598666 -150.336 -87.027)" x="876.73" xml:space="preserve" y="672.16">پورا سیارہ ایک ساتھ پھلتا پھولتا ہے</text>
  <text fill="#000000" font-family="Serif" font-size="24" id="svg_56" stroke="#000000" stroke-width="0" text-anchor="middle" transform="matrix(1.03263 0 0 1.03263 -310.331 -204.146)" x="715.07" xml:space="preserve" y="485.86">大地球共荣！</text>
  <use id="svg_58" transform="matrix(0.0798213 0 0 0.0798213 294.125 133.955)" x="-60" xlink:href="#svg_57" y="1498.3"/>
  <text fill="#bfbfbf" font-family="Serif" font-size="24" id="svg_170" stroke="#000000" stroke-width="0" text-anchor="middle" x="273.5" xml:space="preserve" y="131.83"/>
  <text fill="#bfbfbf" font-family="Serif" font-size="24" id="svg_171" stroke="#000000" stroke-width="0" text-anchor="middle" x="276.5" xml:space="preserve" y="150.83"/>
  <text fill="#bfbfbf" font-family="Serif" font-size="24" id="svg_172" stroke="#000000" stroke-width="0" text-anchor="middle" x="287.5" xml:space="preserve" y="141.83"/>
  <text fill="#bfbfbf" font-family="Serif" font-size="24" id="svg_173" stroke="#000000" stroke-width="0" text-anchor="middle" x="287.5" xml:space="preserve" y="141.83"/>
  <text fill="#bfbfbf" font-family="Serif" font-size="24" id="svg_175" stroke="#000000" stroke-width="0" text-anchor="middle" x="257.5" xml:space="preserve" y="148.83"/>
  <text fill="#bfbfbf" font-family="Serif" font-size="24" id="svg_176" stroke="#000000" stroke-width="0" text-anchor="middle" x="618.5" xml:space="preserve" y="116.83"/>
  <text fill="#bfbfbf" font-family="Serif" font-size="24" id="svg_177" stroke="#000000" stroke-width="0" text-anchor="middle" x="618.5" xml:space="preserve" y="116.83"/>
  <text fill="#bfbfbf" font-family="Serif" font-size="24" id="svg_178" stroke="#000000" stroke-width="0" text-anchor="middle" x="617.5" xml:space="preserve" y="116.83"/>
  <text fill="#bfbfbf" font-family="Serif" font-size="24" id="svg_179" stroke="#000000" stroke-width="0" text-anchor="middle" x="-366.5" xml:space="preserve" y="-45.17"/>
  <text fill="#bfbfbf" font-family="Serif" font-size="24" id="svg_180" stroke="#000000" stroke-width="0" text-anchor="middle" x="527.5" xml:space="preserve" y="509.33"/>
  <text fill="#bfbfbf" font-family="Serif" font-size="24" id="svg_181" stroke="#000000" stroke-width="0" text-anchor="middle" x="371.5" xml:space="preserve" y="557.33"/>
  <text fill="#bfbfbf" font-family="Serif" font-size="24" id="svg_182" stroke="#000000" stroke-width="0" text-anchor="middle" x="300.5" xml:space="preserve" y="149.33"/>
  <text fill="#bfbfbf" font-family="Serif" font-size="24" id="svg_183" stroke="#000000" stroke-width="0" text-anchor="middle" x="300.5" xml:space="preserve" y="149.33"/>
  <text fill="#bfbfbf" font-family="Serif" font-size="24" id="svg_184" stroke="#000000" stroke-width="0" text-anchor="middle" x="300.5" xml:space="preserve" y="149.33"/>
  <text fill="#fafafa" font-family="Serif" font-size="24" id="svg_185" stroke="#000000" stroke-width="0" text-anchor="middle" transform="matrix(1 0 0 1 0 0) matrix(0.532675 0 0 0.532675 169.351 68.7605)" x="280" xml:space="preserve" y="146.83">Maker: louiesun</text>
 </g>
</svg>