<svg width="640" height="479.99999999999994" xmlns="http://www.w3.org/2000/svg" xmlns:xlink="http://www.w3.org/1999/xlink">
 <!-- Created with SVG-edit - https://github.com/SVG-Edit/svgedit-->
 <defs>
  <symbol viewBox="0 0 640 480" id="svg_3" xmlns:xlink="http://www.w3.org/1999/xlink" xmlns="http://www.w3.org/2000/svg">
   <defs>
    <path id="svg_2" fill="#ff0" d="m-0.6,0.8l0.6,-1.8l0.6,1.8l-1.6,-1.1l2,0l-1.6,1.1z"/>
   </defs>
   <path id="svg_1" fill="#ee1c25" d="m0,0l640,0l0,480l-640,0l0,-480z"/>
   <use xlink:href="#svg_2" width="30" transform="matrix(71.9991 0 0 72 120 120)" id="svg_5" height="20"/>
   <use xlink:href="#svg_2" width="30" transform="matrix(-12.33562 -20.5871 20.58684 -12.33577 240.3 48)" id="svg_9" height="20"/>
   <use xlink:href="#svg_2" width="30" transform="matrix(-3.38573 -23.75998 23.75968 -3.38578 288 95.8)" id="svg_12" height="20"/>
   <use xlink:href="#svg_2" width="30" transform="matrix(6.5991 -23.0749 23.0746 6.59919 288 168)" id="svg_15" height="20"/>
   <use xlink:href="#svg_2" width="30" transform="matrix(14.9991 -18.73557 18.73533 14.99929 240 216)" id="svg_23" height="20"/>
  </symbol>
  <symbol viewBox="0 0 640 480" id="svg_10" xmlns="http://www.w3.org/2000/svg">
   <path id="svg_58" fill="#012169" d="m0,0l640,0l0,480l-640,0l0,-480z"/>
   <path id="svg_59" fill="#FFF" d="m75,0l244,181l243,-181l78,0l0,62l-240,179l240,178l0,61l-80,0l-240,-179l-239,179l-81,0l0,-60l239,-178l-239,-178l0,-64l75,0z"/>
   <path id="svg_60" fill="#C8102E" d="m424,281l216,159l0,40l-271,-199l55,0zm-184,20l6,35l-192,144l-54,0l240,-179zm400,-301l0,3l-249,188l2,-44l197,-147l50,0zm-640,0l239,176l-60,0l-179,-134l0,-42z"/>
   <path id="svg_61" fill="#FFF" d="m241,0l0,480l160,0l0,-480l-160,0zm-241,160l0,160l640,0l0,-160l-640,0z"/>
   <path id="svg_62" fill="#C8102E" d="m0,193l0,96l640,0l0,-96l-640,0zm273,-193l0,480l96,0l0,-480l-96,0z"/>
  </symbol>
  <symbol viewBox="0 0 640 480" id="svg_13" xmlns="http://www.w3.org/2000/svg">
   <g stroke-width="1pt" id="svg_63" fill-rule="evenodd">
    <path id="svg_64" fill="#fff" d="m0,0l640,0l0,480l-640,0l0,-480z"/>
    <path id="svg_65" fill="#0039a6" d="m0,160l640,0l0,320l-640,0l0,-320z"/>
    <path id="svg_66" fill="#d52b1e" d="m0,320l640,0l0,160l-640,0l0,-160z"/>
   </g>
  </symbol>
  <symbol viewBox="0 0 640 480" id="svg_21" xmlns:xlink="http://www.w3.org/1999/xlink" xmlns="http://www.w3.org/2000/svg">
   <defs>
    <g id="svg_17">
     <g id="svg_19">
      <path id="svg_20" d="m0,-1l-0.3,1l0.5,0.1l-0.2,-1.1z"/>
      <use xlink:href="#svg_20" transform="scale(-1 1)" id="svg_67"/>
     </g>
     <g id="svg_18">
      <use xlink:href="#svg_19" transform="rotate(72)" id="svg_68"/>
      <use xlink:href="#svg_19" transform="rotate(144)" id="svg_69"/>
     </g>
     <use xlink:href="#svg_18" transform="scale(-1 1)" id="svg_70"/>
    </g>
   </defs>
   <path id="svg_71" fill="#039" d="m0,0l640,0l0,480l-640,0l0,-480z"/>
   <g transform="translate(320 242.3)scale(23.7037)" id="svg_72" fill="#fc0">
    <use y="-6" xlink:href="#svg_17" width="100%" id="svg_73" height="100%"/>
    <use y="6" xlink:href="#svg_17" width="100%" id="svg_74" height="100%"/>
    <g id="svg_16">
     <use xlink:href="#svg_17" x="-6" width="100%" id="svg_75" height="100%"/>
     <use xlink:href="#svg_17" width="100%" transform="rotate(-144 -2.3 -2.1)" id="svg_76" height="100%"/>
     <use xlink:href="#svg_17" width="100%" transform="rotate(144 -2.1 -2.3)" id="svg_77" height="100%"/>
     <use xlink:href="#svg_17" width="100%" transform="rotate(72 -4.7 -2)" id="svg_78" height="100%"/>
     <use xlink:href="#svg_17" width="100%" transform="rotate(72 -5 .5)" id="svg_79" height="100%"/>
    </g>
    <use xlink:href="#svg_16" width="100%" transform="scale(-1 1)" id="svg_80" height="100%"/>
   </g>
  </symbol>
  <symbol viewBox="0 0 640 480" id="svg_28" xmlns:xlink="http://www.w3.org/1999/xlink" xmlns="http://www.w3.org/2000/svg">
   <path id="svg_81" fill="#f93" d="m0,0l640,0l0,160l-640,0l0,-160z"/>
   <path id="svg_82" fill="#fff" d="m0,160l640,0l0,160l-640,0l0,-160z"/>
   <path id="svg_83" fill="#128807" d="m0,320l640,0l0,160l-640,0l0,-160z"/>
   <g transform="matrix(3.2 0 0 3.2 320 240)" id="svg_84">
    <circle r="20" id="svg_85" fill="#008"/>
    <circle r="17.5" id="svg_86" fill="#fff"/>
    <circle r="3.5" id="svg_87" fill="#008"/>
    <g id="svg_24">
     <g id="svg_25">
      <g id="svg_26">
       <g id="svg_27" fill="#008">
        <circle transform="rotate(7.5 -8.8 133.5)" r="0.9" id="svg_88"/>
        <path id="svg_89" d="m0,17.5l0.6,-10.5l-0.6,-5l-0.6,5l0.6,10.5z"/>
       </g>
       <use xlink:href="#svg_27" width="100%" transform="rotate(15)" id="svg_90" height="100%"/>
      </g>
      <use xlink:href="#svg_26" width="100%" transform="rotate(30)" id="svg_91" height="100%"/>
     </g>
     <use xlink:href="#svg_25" width="100%" transform="rotate(60)" id="svg_92" height="100%"/>
    </g>
    <use xlink:href="#svg_24" width="100%" transform="rotate(120)" id="svg_93" height="100%"/>
    <use xlink:href="#svg_24" width="100%" transform="rotate(-120)" id="svg_94" height="100%"/>
   </g>
  </symbol>
  <symbol width="640" id="svg_39" height="480" xmlns:svg="http://www.w3.org/2000/svg" xmlns="http://www.w3.org/2000/svg">
   <g id="svg_96" class="layer">
    <title>Layer 1</title>
    <path id="svg_38" fill="#fff" d="m0,0l640,0l0,480l-640,0l0,-480z"/>
    <path id="svg_37" fill="#002640" d="m0,0l213.3,0l0,480l-213.3,0l0,-480z"/>
    <path id="svg_36" fill="#cd1125" d="m426.7,0l213.3,0l0,480l-213.3,0l0,-480z"/>
   </g>
  </symbol>
  <symbol viewBox="0 0 640 480" id="svg_44" xmlns="http://www.w3.org/2000/svg">
   <g stroke-width="1pt" id="svg_97" fill-rule="evenodd">
    <path id="svg_98" fill="#fff" d="m0,0l640,0l0,480l-640,0l0,-480z"/>
    <path id="svg_99" fill="#009246" d="m0,0l213.3,0l0,480l-213.3,0l0,-480z"/>
    <path id="svg_100" fill="#ce2b37" d="m426.7,0l213.3,0l0,480l-213.3,0l0,-480z"/>
   </g>
  </symbol>
  <symbol width="648" viewBox="0 0 648 432" id="svg_50" height="432" xmlns:xlink="http://www.w3.org/1999/xlink" xmlns="http://www.w3.org/2000/svg">
   <path id="svg_101" fill="#d81e05" d="m0,0l648,0l0,432l-648,0l0,-432z"/>
   <path id="svg_102" fill="#fff" d="m0,0l648,0l0,288l-648,0l0,-288z"/>
   <path id="svg_103" fill="#008d46" d="m324,288l324,0l0,144l-324,0l0,-144z"/>
   <path id="svg_104" fill="#d81e05" d="m0,0l648,0l0,144l-648,0l0,-144z"/>
   <use xlink:href="#svg_49" transform="matrix(1 0 0 1 313 0)" id="svg_105"/>
   <path id="svg_49" fill="#d81e05" d="m233.9,282l-66.47,4.85l-66.47,-4.85l0,-132l132.9,0l0.04,132z"/>
   <path stroke-width="6" stroke="#fc0" id="svg_48" fill="none" d="m97.99,147l0,127.2c0,5.27 2.88,10.8 9.5,10.8l52.96,0c0.86,0 1.68,0.37 2.25,1.02l4.76,5.4s4.22,-4.79 4.77,-5.4c0.57,-0.64 1.39,-1.01 2.24,-1.01l52.96,0c6.57,0 9.51,-5.54 9.51,-10.8l0,-127.2l-138.95,-0.01z"/>
   <path id="svg_106" fill="#008d46" d="m512.4,252c-2.31,1.82 -4.43,3.8 -6.31,6.06l-2.27,-2.15c-1.62,-1.54 -5.23,-1.51 -7.45,-0.38c-6.5,3.3 -10.13,11.28 -11.99,18.3l-3.28,12.37l64.76,-1.76l3.68,-10.17l1.23,-0.44s-5.49,-15 -11.99,-18.3c-2.22,-1.13 -5.83,-1.16 -7.45,0.38l-2.27,2.15c-1.88,-2.27 -4,-4.24 -6.31,-6.06l-10.35,0z"/>
   <g stroke="#fff" id="svg_107" fill="none">
    <path stroke-width="6" id="svg_108" d="m500.7,183.3l34.21,0m-17.08,62.97l0.03,-80.07m-21.25,35.09l42.27,0"/>
    <path stroke-width="3" id="svg_109" d="m512.8,165.6l10.09,0m12.94,12.63l0,10.09m-36.02,-10.47l-0.08,10.38m40.07,8.03l0.09,10.04m-44.09,-10.04l-0.04,10.04"/>
   </g>
   <path id="svg_110" fill="#fc0" d="m512.6,246l10.1,0l0,6.06l-10.1,0l0,-6.06z"/>
   <path stroke="#fc0" id="svg_111" fill="none" d="m514.3,246.8l-2.79,-2.15m6.31,2.15l0,-3.21m3.79,3.21l2.13,-2.15"/>
   <path id="svg_112" fill="#fc0" d="m411.3,117.1l0.29,-16.42l15.86,21.52l2.35,-32.23l15.63,23.79l5.08,-26.29l8.21,17.85c2.15,-17.04 17.49,-23.92 17.49,-23.92l0,-17.85l10.31,-0.36l-0.08,18.29s11.98,3.98 16.91,23.67l9.34,-18.93l4.17,30.04l15.02,-26.76l4.16,32.94l13.13,-21.33l2.22,17.95l-12.83,25.19s-23.55,-11.97 -37.56,-11.97l-37.56,0c-12.71,0 -28.85,5.15 -37.56,11.97l-14.58,-27.15z"/>
   <g stroke-width="4" stroke="#fc0" id="svg_113" fill="none">
    <path id="svg_114" d="m425.6,144.1l-23.6,-42.02c-1.96,-1.79 -0.13,-13.63 -0.13,-13.63c-0.38,-9.21 23.6,-17.42 32.06,-20.07c10.2,-3.2 42.66,-6.69 47.96,-6.69c5.55,0 39.76,3.53 45.94,6.69c0,0 26.51,8.2 33.07,20.07c0,0 2.06,12.02 0.63,13.63l-22.72,42.02"/>
    <path id="svg_115" d="m482.4,61.03l-16.06,-25.88"/>
    <path id="svg_116" d="m464.4,46.93l12.67,-8.93"/>
   </g>
   <path id="svg_117" fill="#fc0" d="m168.4,59.07l0,-11.23l6.25,0l0,-1.8l-6.25,0l0,-7.98l-1.8,0l0,7.98l-6.36,0l0,1.8l6.36,0l0,11.23c-1.14,2.12 -3.02,6.37 -5.15,7.76c-2.87,1.89 -7.68,1.89 -15.54,0.97c-8.85,-1.03 -15.58,-4.75 -22.35,-3.63c-5.74,0.95 -10.03,7.96 -10.03,7.96c0.2,-0.07 -25.92,-3.13 -28.31,19.76c-1.04,9.91 5.6,17.99 5.6,17.99s-5.9,0.11 -6.93,4.1c-1.03,3.98 3.54,6.96 7.08,6.96s7.81,-0.44 13.12,5.9s8.55,19.31 8.55,19.31s8.85,-6.52 25.46,-11.38s42.17,-4.86 58.78,0s25.46,11.38 25.46,11.38s3.24,-12.97 8.55,-19.31s9.58,-5.9 13.12,-5.9s8.11,-2.98 7.08,-6.96s-6.93,-4.1 -6.93,-4.1s6.64,-8.07 5.6,-17.99c-2.39,-22.88 -28.5,-19.83 -28.31,-19.76c0,0 -4.29,-7.01 -10.02,-7.96c-6.77,-1.13 -13.5,2.59 -22.35,3.63c-7.85,0.92 -12.67,0.92 -15.54,-0.97c-2.12,-1.4 -4.01,-5.65 -5.14,-7.76z"/>
   <ellipse ry="6.56" rx="4.8" id="svg_118" fill="#d81e05" cy="97.07" cx="167.4"/>
   <ellipse ry="4.93" rx="7.33" id="svg_119" fill="#d81e05" cy="121.7" cx="167.4"/>
   <g id="svg_47">
    <path id="svg_120" fill="#d81e05" d="m161.7,109.2c-1.22,4.2 -5.02,4.98 -8.48,1.75s-5.28,-9.27 -4.05,-13.47c0,-0.01 0.01,-0.03 0.01,-0.04c1.22,-4.2 5.02,-4.98 8.48,-1.75s5.27,9.27 4.05,13.47c-0.01,0.01 -0.01,0.03 -0.01,0.04zm-17.06,-0.18c-2.12,4.2 -6.09,4.98 -8.86,1.75c-2.77,-3.24 -3.29,-9.27 -1.17,-13.47c0.01,-0.01 0.01,-0.02 0.02,-0.04c2.12,-4.2 6.09,-4.98 8.86,-1.75c2.77,3.24 3.29,9.27 1.17,13.47c-0.01,0.01 -0.02,0.02 -0.02,0.04zm-21.79,3.64c-0.63,2.21 -3.06,2.62 -5.42,0.92s-3.77,-4.88 -3.14,-7.09l0.01,-0.02c0.63,-2.21 3.06,-2.62 5.42,-0.92s3.77,4.88 3.14,7.09c0,0.01 0,0.02 -0.01,0.02zm-9.86,5.62c-0.63,2.21 -3.06,2.62 -5.42,0.92s-3.77,-4.88 -3.14,-7.09c0,-0.01 0,-0.02 0.01,-0.02c0.63,-2.21 3.06,-2.62 5.42,-0.92s3.77,4.88 3.14,7.09c0,0.01 0,0.02 -0.01,0.02zm16.83,-11.5c-1.44,2.22 -4.24,1.95 -6.27,-0.6s-2.51,-6.4 -1.07,-8.62c0,-0.01 0.01,-0.02 0.01,-0.02c1.44,-2.22 4.24,-1.95 6.27,0.6s2.51,6.4 1.07,8.62c-0.01,0.01 -0.01,0.02 -0.01,0.02zm-28.9,11.17c-0.73,2.48 -3.52,2.95 -6.24,1.03c-2.72,-1.91 -4.34,-5.48 -3.61,-7.96c0,-0.01 0.01,-0.02 0.01,-0.02c0.73,-2.48 3.52,-2.95 6.24,-1.03c2.72,1.91 4.34,5.48 3.61,7.96c0,0.01 0,0.02 -0.01,0.02zm18.52,-22.46c-0.23,2.38 -6.83,5.92 -10.15,7.59c-3.32,1.66 -7.75,2.6 -12.04,1.51s-7.76,-12.12 -4.28,-19.2c3.58,-7.27 15.63,-8.14 19.61,-6.23c2.2,1.06 7.09,13.94 6.86,16.33zm43.98,-10.14c-1.94,4.02 -17.17,9.97 -23.53,10.38c-6.37,0.42 -10.62,-3.4 -10.62,-3.4c-4.8,-6.89 -10.44,-17.79 -5.33,-21.11c4.99,-3.24 16.83,2.13 28.58,2.13c6.58,0 12.43,-2.13 12.43,-2.13s0.42,10.1 -1.52,14.12l-0.01,0.01zm-21.08,36.76c1.78,2.2 0.34,5.4 -3.22,7.15c-3.56,1.76 -7.88,1.4 -9.66,-0.8c-0.01,-0.01 -0.01,-0.02 -0.02,-0.02c-1.78,-2.2 -0.34,-5.4 3.22,-7.16c3.56,-1.75 7.88,-1.4 9.66,0.81l0.02,0.02z"/>
    <path id="svg_121" fill="#fff" d="m162.3,62.71c0.01,2.17 -1.71,3.93 -3.83,3.94s-3.84,-1.75 -3.85,-3.91l0,-0.02c-0.01,-2.17 1.71,-3.93 3.83,-3.94s3.84,1.75 3.85,3.91l0,0.02zm-11.61,0c0.01,2.17 -1.71,3.93 -3.83,3.94s-3.84,-1.75 -3.85,-3.91l0,-0.02c-0.01,-2.17 1.71,-3.93 3.83,-3.94s3.84,1.75 3.85,3.92l0,0.01zm-11.61,-2.52c0.01,2.17 -1.71,3.93 -3.83,3.94s-3.84,-1.75 -3.85,-3.91l0,-0.02c-0.01,-2.17 1.71,-3.93 3.83,-3.94s3.84,1.75 3.85,3.91l0,0.02zm-13.38,0c0.01,2.17 -1.71,3.93 -3.83,3.94s-3.84,-1.75 -3.85,-3.91l0,-0.02c-0.01,-2.17 1.71,-3.93 3.82,-3.94c2.12,-0.01 3.84,1.75 3.85,3.91l0.01,0.02zm-11.86,5.81c0.01,2.17 -1.71,3.93 -3.83,3.94s-3.84,-1.75 -3.85,-3.92l0,-0.02c-0.01,-2.17 1.71,-3.93 3.83,-3.94s3.84,1.75 3.85,3.92l0,0.02zm-14.14,3.03c0.01,2.17 -1.71,3.93 -3.83,3.94s-3.84,-1.75 -3.85,-3.92l0,-0.02c-0.01,-2.17 1.71,-3.93 3.82,-3.94c2.12,-0.01 3.84,1.75 3.85,3.91l0.01,0.03zm-12.37,9.59c0.01,2.17 -1.71,3.93 -3.83,3.94s-3.84,-1.75 -3.85,-3.91l0,-0.02c-0.01,-2.17 1.71,-3.93 3.83,-3.94s3.84,1.75 3.85,3.92l0,0.01zm-4.29,13.38c0.01,2.17 -1.71,3.93 -3.83,3.94s-3.84,-1.75 -3.84,-3.91l0,-0.02c-0.01,-2.17 1.71,-3.93 3.83,-3.94s3.84,1.75 3.85,3.92l-0.01,0.01zm1.26,13.38c0.01,2.17 -1.71,3.93 -3.83,3.94s-3.84,-1.75 -3.85,-3.91l0,-0.02c-0.01,-2.17 1.71,-3.93 3.83,-3.94s3.84,1.75 3.85,3.91l0,0.02zm29.28,28.78c0.01,2.17 -1.71,3.93 -3.83,3.94s-3.84,-1.75 -3.85,-3.91l0,-0.02c-0.01,-2.17 1.71,-3.93 3.83,-3.94s3.84,1.75 3.85,3.91l0,0.02zm0.51,-27.01c0.01,2.17 -1.71,3.93 -3.83,3.94s-3.84,-1.75 -3.85,-3.91l0,-0.02c-0.01,-2.17 1.71,-3.93 3.83,-3.94s3.84,1.75 3.85,3.91l0,0.02zm36.35,-9.59c0.01,2.17 -1.71,3.93 -3.82,3.94c-2.12,0.01 -3.84,-1.75 -3.85,-3.92l0,-0.02c-0.01,-2.17 1.71,-3.93 3.83,-3.94s3.84,1.75 3.85,3.91l-0.01,0.03z"/>
   </g>
   <path id="svg_46" fill="#fff" d="m413.4,69.04c0.01,2.17 -1.71,3.93 -3.83,3.94s-3.84,-1.75 -3.85,-3.91l0,-0.02c-0.01,-2.17 1.71,-3.93 3.83,-3.94s3.84,1.75 3.85,3.91l0,0.02zm-14.55,36.77c0.01,2.17 -1.71,3.93 -3.83,3.94s-3.84,-1.75 -3.85,-3.91l0,-0.02c-0.01,-2.17 1.71,-3.93 3.82,-3.94c2.12,-0.01 3.84,1.75 3.85,3.91l0.01,0.02zm-2.23,-13.74c0.01,2.17 -1.71,3.93 -3.83,3.94s-3.84,-1.75 -3.85,-3.92l0,-0.02c-0.01,-2.17 1.71,-3.93 3.83,-3.94s3.84,1.75 3.85,3.91l0,0.03zm4.28,-13.75c0.01,2.17 -1.71,3.93 -3.83,3.94s-3.84,-1.75 -3.85,-3.92l0,-0.02c-0.01,-2.17 1.71,-3.93 3.83,-3.94s3.84,1.75 3.85,3.91l0,0.03zm26.77,-14.99c0.01,2.17 -1.71,3.93 -3.83,3.94s-3.84,-1.75 -3.85,-3.92l0,-0.02c-0.01,-2.17 1.71,-3.93 3.83,-3.94s3.84,1.75 3.85,3.91l0,0.03zm14.64,-4.29c0.01,2.17 -1.71,3.93 -3.83,3.94s-3.84,-1.75 -3.85,-3.91l0,-0.02c-0.01,-2.17 1.71,-3.93 3.83,-3.94s3.84,1.75 3.85,3.91l0,0.02zm14.46,-2.86c0.01,2.17 -1.71,3.93 -3.83,3.94s-3.84,-1.75 -3.85,-3.91l0,-0.02c-0.01,-2.17 1.71,-3.93 3.82,-3.94c2.12,-0.01 3.84,1.75 3.85,3.92l0.01,0.01zm14.46,-1.96c0.01,2.17 -1.71,3.93 -3.83,3.94s-3.84,-1.75 -3.85,-3.91l0,-0.02c-0.01,-2.17 1.71,-3.93 3.83,-3.94s3.84,1.75 3.85,3.91l0,0.02z"/>
   <path id="svg_122" fill="#fff" d="m413.8,167.2l66.46,0l0,15.71l-66.46,0l0,-15.71zm0,32.31l66.46,0l0,15.71l-66.46,0l0,-15.71zm0,33.74l66.46,0l0,15.71l-66.46,0l0,-15.71zm0,33.92l66.46,0l0,20.26l-66.46,0l0,-20.26zm-313,-73.16l0,44l132.9,0l0,-44l-132.9,0z"/>
   <use xlink:href="#svg_48" transform="matrix(1 0 0 1 313 0)" id="svg_123" fill="none"/>
   <use xlink:href="#svg_47" transform="matrix(-1 0 0 1 334.9 0)" id="svg_124"/>
   <use xlink:href="#svg_46" transform="matrix(-1 0 0 1 963.1 0)" id="svg_125"/>
  </symbol>
  <symbol width="1235" viewBox="0 0 7410 3900" id="svg_139" height="650" xmlns:xlink="http://www.w3.org/1999/xlink" xmlns="http://www.w3.org/2000/svg">
   <rect width="7410" id="svg_6" height="3900" fill="#b22234"/>
   <path stroke-width="300" stroke="#fff" id="svg_7" d="m0,450l7410,0m0,600l-7410,0m0,600l7410,0m0,600l-7410,0m0,600l7410,0m0,600l-7410,0"/>
   <rect width="2964" id="svg_8" height="2100" fill="#3c3b6e"/>
   <g id="svg_43" fill="#fff">
    <g id="svg_136">
     <g id="svg_135">
      <g id="svg_134">
       <g id="svg_137">
        <path id="svg_138" d="m247,90l70.53,217.08l-184.66,-134.16l228.26,0l-184.66,134.16l70.53,-217.08z"/>
        <use y="420" xlink:href="#svg_138" id="svg_52"/>
        <use y="840" xlink:href="#svg_138" id="svg_53"/>
        <use y="1260" xlink:href="#svg_138" id="svg_56"/>
       </g>
       <use y="1680" xlink:href="#svg_138" id="svg_57"/>
      </g>
      <use y="210" xlink:href="#svg_137" x="247" id="svg_126"/>
     </g>
     <use xlink:href="#svg_135" x="494" id="svg_127"/>
    </g>
    <use xlink:href="#svg_136" x="988" id="svg_128"/>
    <use xlink:href="#svg_135" x="1976" id="svg_129"/>
    <use xlink:href="#svg_134" x="2470" id="svg_130"/>
   </g>
  </symbol>
 </defs>
 <g class="layer">
  <title>Layer 1</title>
  <rect y="1.66229" x="0.98006" width="639" stroke="#000000" id="svg_30" height="479" fill="#bfbfbf">l</rect>
  <use y="324" xlink:href="#svg_3" x="388" transform="matrix(0.25 0 0 0.25 0 0)" id="svg_4"/>
  <use y="1288.62" xlink:href="#svg_10" x="1470.76" transform="matrix(0.249662 0 0 0.248457 1.80317 2.58025)" id="svg_11"/>
  <use y="804.89922" xlink:href="#svg_13" x="388" transform="matrix(0.25 0 0 0.25 0 0)" id="svg_14"/>
  <use y="811.95" xlink:href="#svg_21" x="1475.98" transform="matrix(0.25 0 0 0.25 0.00620191 0.0123282)" id="svg_22"/>
  <use y="1284.89922" xlink:href="#svg_28" x="388" transform="matrix(0.25 0 0 0.25 0 0)" id="svg_29"/>
  <use y="811.16002" xlink:href="#svg_10" x="1473.38" transform="matrix(0.248457 0 0 0.248457 3.57407 2.58025)" id="svg_41" fill-opacity="0.2" fill="#bfbfbf"/>
  <use y="1293.44" xlink:href="#svg_13" x="1478.16037" transform="matrix(0.247589 0 0 0.245988 3.55988 5.18265)" id="svg_42" fill-opacity="0.2" fill="#bfbfbf"/>
  <use y="1284" xlink:href="#svg_44" x="390.20156" transform="matrix(0.248795 0 0 0.249198 0.46848 1.02892)" id="svg_45" fill-opacity="0.2" fill="#bfbfbf"/>
  <use y="803.56189" xlink:href="#svg_50" x="318.2" transform="matrix(0.247206 0 0 0.275849 18.3558 -20.5925)" id="svg_51" fill-opacity="0.2" fill="#bfbfbf"/>
  <text y="478.31" xml:space="preserve" x="642.82" transform="matrix(0.369966 0 0 0.369966 353.399 293.089)" text-anchor="middle" stroke-width="0" stroke="#000000" id="svg_54" font-size="24" font-family="Serif" fill="#ffffff">author: louiesun</text>
  <text y="28.19" xml:space="preserve" x="316.72" transform="matrix(1 0 0 1 1 24)" text-anchor="middle" stroke-width="0" stroke="#000000" id="svg_55" font-size="24" font-family="Serif" fill="#ffffff">International Situation</text>
  <use y="3677.67" xlink:href="#svg_139" x="14887.45" transform="matrix(0.1294 0 0 0.18881 -1557.51 -614.165)" id="svg_140"/>
  <use y="-65.55039" xlink:href="#svg_39" x="389.55039" transform="matrix(0.248192 0 0 0.254012 272.702 97.2692)" id="svg_40" fill-opacity="0.2" fill="#bfbfbf"/>
  <g stroke="null" opacity="0.2">
   <g stroke="null" class="layer">
    <title stroke="null">Layer 1</title>
    <path stroke="null" opacity="0.95" id="svg_133" fill="#d52b1e" d="m97.5,141.16666l158.79365,0l0,59.16666l-158.79365,0l0,-59.16666z"/>
    <path stroke="null" id="svg_132" fill="#0d0d0d" d="m97.5,82l158.79365,0l0,59.16666l-158.79365,0l0,-59.16666z"/>
    <path stroke="null" id="svg_131" fill="#ffffff" d="m97.5,121.44444l158.79365,0l0,39.44444l-158.79365,0l0,-39.44444z"/>
   </g>
  </g>
 </g>
</svg>