<?xml version="1.0"?>
<svg width="640" height="479.99999999999994" xmlns="http://www.w3.org/2000/svg" xmlns:svg="http://www.w3.org/2000/svg" xmlns:xlink="http://www.w3.org/1999/xlink">
 <!-- Created with SVG-edit - https://github.com/SVG-Edit/svgedit-->
 <defs>
  <symbol id="svg_3" viewBox="0 0 640 480" xmlns="http://www.w3.org/2000/svg" xmlns:xlink="http://www.w3.org/1999/xlink">
   <defs>
    <path d="m-0.6,0.8l0.6,-1.8l0.6,1.8l-1.6,-1.1l2,0l-1.6,1.1z" fill="#ff0" id="svg_2"/>
   </defs>
   <path d="m0,0l640,0l0,480l-640,0l0,-480z" fill="#ee1c25" id="svg_1"/>
   <use height="20" id="svg_5" transform="matrix(71.9991 0 0 72 120 120)" width="30" xlink:href="#svg_2"/>
   <use height="20" id="svg_9" transform="matrix(-12.33562 -20.5871 20.58684 -12.33577 240.3 48)" width="30" xlink:href="#svg_2"/>
   <use height="20" id="svg_12" transform="matrix(-3.38573 -23.75998 23.75968 -3.38578 288 95.8)" width="30" xlink:href="#svg_2"/>
   <use height="20" id="svg_15" transform="matrix(6.5991 -23.0749 23.0746 6.59919 288 168)" width="30" xlink:href="#svg_2"/>
   <use height="20" id="svg_23" transform="matrix(14.9991 -18.73557 18.73533 14.99929 240 216)" width="30" xlink:href="#svg_2"/>
  </symbol>
  <symbol id="svg_10" viewBox="0 0 640 480" xmlns="http://www.w3.org/2000/svg">
   <path d="m0,0l640,0l0,480l-640,0l0,-480z" fill="#012169" id="svg_58"/>
   <path d="m75,0l244,181l243,-181l78,0l0,62l-240,179l240,178l0,61l-80,0l-240,-179l-239,179l-81,0l0,-60l239,-178l-239,-178l0,-64l75,0z" fill="#FFF" id="svg_59"/>
   <path d="m424,281l216,159l0,40l-271,-199l55,0zm-184,20l6,35l-192,144l-54,0l240,-179zm400,-301l0,3l-249,188l2,-44l197,-147l50,0zm-640,0l239,176l-60,0l-179,-134l0,-42z" fill="#C8102E" id="svg_60"/>
   <path d="m241,0l0,480l160,0l0,-480l-160,0zm-241,160l0,160l640,0l0,-160l-640,0z" fill="#FFF" id="svg_61"/>
   <path d="m0,193l0,96l640,0l0,-96l-640,0zm273,-193l0,480l96,0l0,-480l-96,0z" fill="#C8102E" id="svg_62"/>
  </symbol>
  <symbol id="svg_13" viewBox="0 0 640 480" xmlns="http://www.w3.org/2000/svg">
   <g fill-rule="evenodd" id="svg_63" stroke-width="1pt">
    <path d="m0,0l640,0l0,480l-640,0l0,-480z" fill="#fff" id="svg_64"/>
    <path d="m0,160l640,0l0,320l-640,0l0,-320z" fill="#0039a6" id="svg_65"/>
    <path d="m0,320l640,0l0,160l-640,0l0,-160z" fill="#d52b1e" id="svg_66"/>
   </g>
  </symbol>
  <symbol id="svg_21" viewBox="0 0 640 480" xmlns="http://www.w3.org/2000/svg" xmlns:xlink="http://www.w3.org/1999/xlink">
   <defs>
    <g id="svg_17">
     <g id="svg_19">
      <path d="m0,-1l-0.3,1l0.5,0.1l-0.2,-1.1z" id="svg_20"/>
      <use id="svg_67" transform="scale(-1 1)" xlink:href="#svg_20"/>
     </g>
     <g id="svg_18">
      <use id="svg_68" transform="rotate(72)" xlink:href="#svg_19"/>
      <use id="svg_69" transform="rotate(144)" xlink:href="#svg_19"/>
     </g>
     <use id="svg_70" transform="scale(-1 1)" xlink:href="#svg_18"/>
    </g>
   </defs>
   <path d="m0,0l640,0l0,480l-640,0l0,-480z" fill="#039" id="svg_71"/>
   <g fill="#fc0" id="svg_72" transform="translate(320 242.3)scale(23.7037)">
    <use height="100%" id="svg_73" width="100%" xlink:href="#svg_17" y="-6"/>
    <use height="100%" id="svg_74" width="100%" xlink:href="#svg_17" y="6"/>
    <g id="svg_16">
     <use height="100%" id="svg_75" width="100%" x="-6" xlink:href="#svg_17"/>
     <use height="100%" id="svg_76" transform="rotate(-144 -2.3 -2.1)" width="100%" xlink:href="#svg_17"/>
     <use height="100%" id="svg_77" transform="rotate(144 -2.1 -2.3)" width="100%" xlink:href="#svg_17"/>
     <use height="100%" id="svg_78" transform="rotate(72 -4.7 -2)" width="100%" xlink:href="#svg_17"/>
     <use height="100%" id="svg_79" transform="rotate(72 -5 .5)" width="100%" xlink:href="#svg_17"/>
    </g>
    <use height="100%" id="svg_80" transform="scale(-1 1)" width="100%" xlink:href="#svg_16"/>
   </g>
  </symbol>
  <symbol id="svg_28" viewBox="0 0 640 480" xmlns="http://www.w3.org/2000/svg" xmlns:xlink="http://www.w3.org/1999/xlink">
   <path d="m0,0l640,0l0,160l-640,0l0,-160z" fill="#f93" id="svg_81"/>
   <path d="m0,160l640,0l0,160l-640,0l0,-160z" fill="#fff" id="svg_82"/>
   <path d="m0,320l640,0l0,160l-640,0l0,-160z" fill="#128807" id="svg_83"/>
   <g id="svg_84" transform="matrix(3.2 0 0 3.2 320 240)">
    <circle fill="#008" id="svg_85" r="20"/>
    <circle fill="#fff" id="svg_86" r="17.5"/>
    <circle fill="#008" id="svg_87" r="3.5"/>
    <g id="svg_24">
     <g id="svg_25">
      <g id="svg_26">
       <g fill="#008" id="svg_27">
        <circle id="svg_88" r="0.9" transform="rotate(7.5 -8.8 133.5)"/>
        <path d="m0,17.5l0.6,-10.5l-0.6,-5l-0.6,5l0.6,10.5z" id="svg_89"/>
       </g>
       <use height="100%" id="svg_90" transform="rotate(15)" width="100%" xlink:href="#svg_27"/>
      </g>
      <use height="100%" id="svg_91" transform="rotate(30)" width="100%" xlink:href="#svg_26"/>
     </g>
     <use height="100%" id="svg_92" transform="rotate(60)" width="100%" xlink:href="#svg_25"/>
    </g>
    <use height="100%" id="svg_93" transform="rotate(120)" width="100%" xlink:href="#svg_24"/>
    <use height="100%" id="svg_94" transform="rotate(-120)" width="100%" xlink:href="#svg_24"/>
   </g>
  </symbol>
  <symbol height="480" id="svg_39" width="640" xmlns="http://www.w3.org/2000/svg" xmlns:svg="http://www.w3.org/2000/svg">
   <g class="layer" id="svg_96">
    <title>Layer 1</title>
    <path d="m0,0l640,0l0,480l-640,0l0,-480z" fill="#fff" id="svg_38"/>
    <path d="m0,0l213.3,0l0,480l-213.3,0l0,-480z" fill="#002640" id="svg_37"/>
    <path d="m426.7,0l213.3,0l0,480l-213.3,0l0,-480z" fill="#cd1125" id="svg_36"/>
   </g>
  </symbol>
  <symbol id="svg_44" viewBox="0 0 640 480" xmlns="http://www.w3.org/2000/svg">
   <g fill-rule="evenodd" id="svg_97" stroke-width="1pt">
    <path d="m0,0l640,0l0,480l-640,0l0,-480z" fill="#fff" id="svg_98"/>
    <path d="m0,0l213.3,0l0,480l-213.3,0l0,-480z" fill="#009246" id="svg_99"/>
    <path d="m426.7,0l213.3,0l0,480l-213.3,0l0,-480z" fill="#ce2b37" id="svg_100"/>
   </g>
  </symbol>
  <symbol height="432" id="svg_50" viewBox="0 0 648 432" width="648" xmlns="http://www.w3.org/2000/svg" xmlns:xlink="http://www.w3.org/1999/xlink">
   <path d="m0,0l648,0l0,432l-648,0l0,-432z" fill="#d81e05" id="svg_101"/>
   <path d="m0,0l648,0l0,288l-648,0l0,-288z" fill="#fff" id="svg_102"/>
   <path d="m324,288l324,0l0,144l-324,0l0,-144z" fill="#008d46" id="svg_103"/>
   <path d="m0,0l648,0l0,144l-648,0l0,-144z" fill="#d81e05" id="svg_104"/>
   <use id="svg_105" transform="matrix(1 0 0 1 313 0)" xlink:href="#svg_49"/>
   <path d="m233.9,282l-66.47,4.85l-66.47,-4.85l0,-132l132.9,0l0.04,132z" fill="#d81e05" id="svg_49"/>
   <path d="m97.99,147l0,127.2c0,5.27 2.88,10.8 9.5,10.8l52.96,0c0.86,0 1.68,0.37 2.25,1.02l4.76,5.4s4.22,-4.79 4.77,-5.4c0.57,-0.64 1.39,-1.01 2.24,-1.01l52.96,0c6.57,0 9.51,-5.54 9.51,-10.8l0,-127.2l-138.95,-0.01z" fill="none" id="svg_48" stroke="#fc0" stroke-width="6"/>
   <path d="m512.4,252c-2.31,1.82 -4.43,3.8 -6.31,6.06l-2.27,-2.15c-1.62,-1.54 -5.23,-1.51 -7.45,-0.38c-6.5,3.3 -10.13,11.28 -11.99,18.3l-3.28,12.37l64.76,-1.76l3.68,-10.17l1.23,-0.44s-5.49,-15 -11.99,-18.3c-2.22,-1.13 -5.83,-1.16 -7.45,0.38l-2.27,2.15c-1.88,-2.27 -4,-4.24 -6.31,-6.06l-10.35,0z" fill="#008d46" id="svg_106"/>
   <g fill="none" id="svg_107" stroke="#fff">
    <path d="m500.7,183.3l34.21,0m-17.08,62.97l0.03,-80.07m-21.25,35.09l42.27,0" id="svg_108" stroke-width="6"/>
    <path d="m512.8,165.6l10.09,0m12.94,12.63l0,10.09m-36.02,-10.47l-0.08,10.38m40.07,8.03l0.09,10.04m-44.09,-10.04l-0.04,10.04" id="svg_109" stroke-width="3"/>
   </g>
   <path d="m512.6,246l10.1,0l0,6.06l-10.1,0l0,-6.06z" fill="#fc0" id="svg_110"/>
   <path d="m514.3,246.8l-2.79,-2.15m6.31,2.15l0,-3.21m3.79,3.21l2.13,-2.15" fill="none" id="svg_111" stroke="#fc0"/>
   <path d="m411.3,117.1l0.29,-16.42l15.86,21.52l2.35,-32.23l15.63,23.79l5.08,-26.29l8.21,17.85c2.15,-17.04 17.49,-23.92 17.49,-23.92l0,-17.85l10.31,-0.36l-0.08,18.29s11.98,3.98 16.91,23.67l9.34,-18.93l4.17,30.04l15.02,-26.76l4.16,32.94l13.13,-21.33l2.22,17.95l-12.83,25.19s-23.55,-11.97 -37.56,-11.97l-37.56,0c-12.71,0 -28.85,5.15 -37.56,11.97l-14.58,-27.15z" fill="#fc0" id="svg_112"/>
   <g fill="none" id="svg_113" stroke="#fc0" stroke-width="4">
    <path d="m425.6,144.1l-23.6,-42.02c-1.96,-1.79 -0.13,-13.63 -0.13,-13.63c-0.38,-9.21 23.6,-17.42 32.06,-20.07c10.2,-3.2 42.66,-6.69 47.96,-6.69c5.55,0 39.76,3.53 45.94,6.69c0,0 26.51,8.2 33.07,20.07c0,0 2.06,12.02 0.63,13.63l-22.72,42.02" id="svg_114"/>
    <path d="m482.4,61.03l-16.06,-25.88" id="svg_115"/>
    <path d="m464.4,46.93l12.67,-8.93" id="svg_116"/>
   </g>
   <path d="m168.4,59.07l0,-11.23l6.25,0l0,-1.8l-6.25,0l0,-7.98l-1.8,0l0,7.98l-6.36,0l0,1.8l6.36,0l0,11.23c-1.14,2.12 -3.02,6.37 -5.15,7.76c-2.87,1.89 -7.68,1.89 -15.54,0.97c-8.85,-1.03 -15.58,-4.75 -22.35,-3.63c-5.74,0.95 -10.03,7.96 -10.03,7.96c0.2,-0.07 -25.92,-3.13 -28.31,19.76c-1.04,9.91 5.6,17.99 5.6,17.99s-5.9,0.11 -6.93,4.1c-1.03,3.98 3.54,6.96 7.08,6.96s7.81,-0.44 13.12,5.9s8.55,19.31 8.55,19.31s8.85,-6.52 25.46,-11.38s42.17,-4.86 58.78,0s25.46,11.38 25.46,11.38s3.24,-12.97 8.55,-19.31s9.58,-5.9 13.12,-5.9s8.11,-2.98 7.08,-6.96s-6.93,-4.1 -6.93,-4.1s6.64,-8.07 5.6,-17.99c-2.39,-22.88 -28.5,-19.83 -28.31,-19.76c0,0 -4.29,-7.01 -10.02,-7.96c-6.77,-1.13 -13.5,2.59 -22.35,3.63c-7.85,0.92 -12.67,0.92 -15.54,-0.97c-2.12,-1.4 -4.01,-5.65 -5.14,-7.76z" fill="#fc0" id="svg_117"/>
   <ellipse cx="167.4" cy="97.07" fill="#d81e05" id="svg_118" rx="4.8" ry="6.56"/>
   <ellipse cx="167.4" cy="121.7" fill="#d81e05" id="svg_119" rx="7.33" ry="4.93"/>
   <g id="svg_47">
    <path d="m161.7,109.2c-1.22,4.2 -5.02,4.98 -8.48,1.75s-5.28,-9.27 -4.05,-13.47c0,-0.01 0.01,-0.03 0.01,-0.04c1.22,-4.2 5.02,-4.98 8.48,-1.75s5.27,9.27 4.05,13.47c-0.01,0.01 -0.01,0.03 -0.01,0.04zm-17.06,-0.18c-2.12,4.2 -6.09,4.98 -8.86,1.75c-2.77,-3.24 -3.29,-9.27 -1.17,-13.47c0.01,-0.01 0.01,-0.02 0.02,-0.04c2.12,-4.2 6.09,-4.98 8.86,-1.75c2.77,3.24 3.29,9.27 1.17,13.47c-0.01,0.01 -0.02,0.02 -0.02,0.04zm-21.79,3.64c-0.63,2.21 -3.06,2.62 -5.42,0.92s-3.77,-4.88 -3.14,-7.09l0.01,-0.02c0.63,-2.21 3.06,-2.62 5.42,-0.92s3.77,4.88 3.14,7.09c0,0.01 0,0.02 -0.01,0.02zm-9.86,5.62c-0.63,2.21 -3.06,2.62 -5.42,0.92s-3.77,-4.88 -3.14,-7.09c0,-0.01 0,-0.02 0.01,-0.02c0.63,-2.21 3.06,-2.62 5.42,-0.92s3.77,4.88 3.14,7.09c0,0.01 0,0.02 -0.01,0.02zm16.83,-11.5c-1.44,2.22 -4.24,1.95 -6.27,-0.6s-2.51,-6.4 -1.07,-8.62c0,-0.01 0.01,-0.02 0.01,-0.02c1.44,-2.22 4.24,-1.95 6.27,0.6s2.51,6.4 1.07,8.62c-0.01,0.01 -0.01,0.02 -0.01,0.02zm-28.9,11.17c-0.73,2.48 -3.52,2.95 -6.24,1.03c-2.72,-1.91 -4.34,-5.48 -3.61,-7.96c0,-0.01 0.01,-0.02 0.01,-0.02c0.73,-2.48 3.52,-2.95 6.24,-1.03c2.72,1.91 4.34,5.48 3.61,7.96c0,0.01 0,0.02 -0.01,0.02zm18.52,-22.46c-0.23,2.38 -6.83,5.92 -10.15,7.59c-3.32,1.66 -7.75,2.6 -12.04,1.51s-7.76,-12.12 -4.28,-19.2c3.58,-7.27 15.63,-8.14 19.61,-6.23c2.2,1.06 7.09,13.94 6.86,16.33zm43.98,-10.14c-1.94,4.02 -17.17,9.97 -23.53,10.38c-6.37,0.42 -10.62,-3.4 -10.62,-3.4c-4.8,-6.89 -10.44,-17.79 -5.33,-21.11c4.99,-3.24 16.83,2.13 28.58,2.13c6.58,0 12.43,-2.13 12.43,-2.13s0.42,10.1 -1.52,14.12l-0.01,0.01zm-21.08,36.76c1.78,2.2 0.34,5.4 -3.22,7.15c-3.56,1.76 -7.88,1.4 -9.66,-0.8c-0.01,-0.01 -0.01,-0.02 -0.02,-0.02c-1.78,-2.2 -0.34,-5.4 3.22,-7.16c3.56,-1.75 7.88,-1.4 9.66,0.81l0.02,0.02z" fill="#d81e05" id="svg_120"/>
    <path d="m162.3,62.71c0.01,2.17 -1.71,3.93 -3.83,3.94s-3.84,-1.75 -3.85,-3.91l0,-0.02c-0.01,-2.17 1.71,-3.93 3.83,-3.94s3.84,1.75 3.85,3.91l0,0.02zm-11.61,0c0.01,2.17 -1.71,3.93 -3.83,3.94s-3.84,-1.75 -3.85,-3.91l0,-0.02c-0.01,-2.17 1.71,-3.93 3.83,-3.94s3.84,1.75 3.85,3.92l0,0.01zm-11.61,-2.52c0.01,2.17 -1.71,3.93 -3.83,3.94s-3.84,-1.75 -3.85,-3.91l0,-0.02c-0.01,-2.17 1.71,-3.93 3.83,-3.94s3.84,1.75 3.85,3.91l0,0.02zm-13.38,0c0.01,2.17 -1.71,3.93 -3.83,3.94s-3.84,-1.75 -3.85,-3.91l0,-0.02c-0.01,-2.17 1.71,-3.93 3.82,-3.94c2.12,-0.01 3.84,1.75 3.85,3.91l0.01,0.02zm-11.86,5.81c0.01,2.17 -1.71,3.93 -3.83,3.94s-3.84,-1.75 -3.85,-3.92l0,-0.02c-0.01,-2.17 1.71,-3.93 3.83,-3.94s3.84,1.75 3.85,3.92l0,0.02zm-14.14,3.03c0.01,2.17 -1.71,3.93 -3.83,3.94s-3.84,-1.75 -3.85,-3.92l0,-0.02c-0.01,-2.17 1.71,-3.93 3.82,-3.94c2.12,-0.01 3.84,1.75 3.85,3.91l0.01,0.03zm-12.37,9.59c0.01,2.17 -1.71,3.93 -3.83,3.94s-3.84,-1.75 -3.85,-3.91l0,-0.02c-0.01,-2.17 1.71,-3.93 3.83,-3.94s3.84,1.75 3.85,3.92l0,0.01zm-4.29,13.38c0.01,2.17 -1.71,3.93 -3.83,3.94s-3.84,-1.75 -3.84,-3.91l0,-0.02c-0.01,-2.17 1.71,-3.93 3.83,-3.94s3.84,1.75 3.85,3.92l-0.01,0.01zm1.26,13.38c0.01,2.17 -1.71,3.93 -3.83,3.94s-3.84,-1.75 -3.85,-3.91l0,-0.02c-0.01,-2.17 1.71,-3.93 3.83,-3.94s3.84,1.75 3.85,3.91l0,0.02zm29.28,28.78c0.01,2.17 -1.71,3.93 -3.83,3.94s-3.84,-1.75 -3.85,-3.91l0,-0.02c-0.01,-2.17 1.71,-3.93 3.83,-3.94s3.84,1.75 3.85,3.91l0,0.02zm0.51,-27.01c0.01,2.17 -1.71,3.93 -3.83,3.94s-3.84,-1.75 -3.85,-3.91l0,-0.02c-0.01,-2.17 1.71,-3.93 3.83,-3.94s3.84,1.75 3.85,3.91l0,0.02zm36.35,-9.59c0.01,2.17 -1.71,3.93 -3.82,3.94c-2.12,0.01 -3.84,-1.75 -3.85,-3.92l0,-0.02c-0.01,-2.17 1.71,-3.93 3.83,-3.94s3.84,1.75 3.85,3.91l-0.01,0.03z" fill="#fff" id="svg_121"/>
   </g>
   <path d="m413.4,69.04c0.01,2.17 -1.71,3.93 -3.83,3.94s-3.84,-1.75 -3.85,-3.91l0,-0.02c-0.01,-2.17 1.71,-3.93 3.83,-3.94s3.84,1.75 3.85,3.91l0,0.02zm-14.55,36.77c0.01,2.17 -1.71,3.93 -3.83,3.94s-3.84,-1.75 -3.85,-3.91l0,-0.02c-0.01,-2.17 1.71,-3.93 3.82,-3.94c2.12,-0.01 3.84,1.75 3.85,3.91l0.01,0.02zm-2.23,-13.74c0.01,2.17 -1.71,3.93 -3.83,3.94s-3.84,-1.75 -3.85,-3.92l0,-0.02c-0.01,-2.17 1.71,-3.93 3.83,-3.94s3.84,1.75 3.85,3.91l0,0.03zm4.28,-13.75c0.01,2.17 -1.71,3.93 -3.83,3.94s-3.84,-1.75 -3.85,-3.92l0,-0.02c-0.01,-2.17 1.71,-3.93 3.83,-3.94s3.84,1.75 3.85,3.91l0,0.03zm26.77,-14.99c0.01,2.17 -1.71,3.93 -3.83,3.94s-3.84,-1.75 -3.85,-3.92l0,-0.02c-0.01,-2.17 1.71,-3.93 3.83,-3.94s3.84,1.75 3.85,3.91l0,0.03zm14.64,-4.29c0.01,2.17 -1.71,3.93 -3.83,3.94s-3.84,-1.75 -3.85,-3.91l0,-0.02c-0.01,-2.17 1.71,-3.93 3.83,-3.94s3.84,1.75 3.85,3.91l0,0.02zm14.46,-2.86c0.01,2.17 -1.71,3.93 -3.83,3.94s-3.84,-1.75 -3.85,-3.91l0,-0.02c-0.01,-2.17 1.71,-3.93 3.82,-3.94c2.12,-0.01 3.84,1.75 3.85,3.92l0.01,0.01zm14.46,-1.96c0.01,2.17 -1.71,3.93 -3.83,3.94s-3.84,-1.75 -3.85,-3.91l0,-0.02c-0.01,-2.17 1.71,-3.93 3.83,-3.94s3.84,1.75 3.85,3.91l0,0.02z" fill="#fff" id="svg_46"/>
   <path d="m413.8,167.2l66.46,0l0,15.71l-66.46,0l0,-15.71zm0,32.31l66.46,0l0,15.71l-66.46,0l0,-15.71zm0,33.74l66.46,0l0,15.71l-66.46,0l0,-15.71zm0,33.92l66.46,0l0,20.26l-66.46,0l0,-20.26zm-313,-73.16l0,44l132.9,0l0,-44l-132.9,0z" fill="#fff" id="svg_122"/>
   <use fill="none" id="svg_123" transform="matrix(1 0 0 1 313 0)" xlink:href="#svg_48"/>
   <use id="svg_124" transform="matrix(-1 0 0 1 334.9 0)" xlink:href="#svg_47"/>
   <use id="svg_125" transform="matrix(-1 0 0 1 963.1 0)" xlink:href="#svg_46"/>
  </symbol>
  <symbol height="650" id="svg_139" viewBox="0 0 7410 3900" width="1235" xmlns="http://www.w3.org/2000/svg" xmlns:xlink="http://www.w3.org/1999/xlink">
   <rect fill="#b22234" height="3900" id="svg_6" width="7410"/>
   <path d="m0,450l7410,0m0,600l-7410,0m0,600l7410,0m0,600l-7410,0m0,600l7410,0m0,600l-7410,0" id="svg_7" stroke="#fff" stroke-width="300"/>
   <rect fill="#3c3b6e" height="2100" id="svg_8" width="2964"/>
   <g fill="#fff" id="svg_43">
    <g id="svg_136">
     <g id="svg_135">
      <g id="svg_134">
       <g id="svg_137">
        <path d="m247,90l70.53,217.08l-184.66,-134.16l228.26,0l-184.66,134.16l70.53,-217.08z" id="svg_138"/>
        <use id="svg_52" xlink:href="#svg_138" y="420"/>
        <use id="svg_53" xlink:href="#svg_138" y="840"/>
        <use id="svg_56" xlink:href="#svg_138" y="1260"/>
       </g>
       <use id="svg_57" xlink:href="#svg_138" y="1680"/>
      </g>
      <use id="svg_126" x="247" xlink:href="#svg_137" y="210"/>
     </g>
     <use id="svg_127" x="494" xlink:href="#svg_135"/>
    </g>
    <use id="svg_128" x="988" xlink:href="#svg_136"/>
    <use id="svg_129" x="1976" xlink:href="#svg_135"/>
    <use id="svg_130" x="2470" xlink:href="#svg_134"/>
   </g>
  </symbol>
  <symbol height="600" id="svg_33" width="900" xmlns="http://www.w3.org/2000/svg">
   <path d="m0,0l900,0l0,600l-900,0l0,-600z" fill="#FFF"/>
   <path d="m0,0l900,0l0,400l-900,0l0,-400z" fill="#ffcd01"/>
   <path d="m0,0l900,0l0,200l-900,0l0,-200z"/>
  </symbol>
 </defs>
 <g class="layer">
  <title>Layer 1</title>
  <rect fill="#bfbfbf" height="479" id="svg_30" stroke="#000000" transform="matrix(1 0 0 1 0 0)" width="639" x="0.98" y="1.66">l</rect>
  <use id="svg_4" transform="matrix(0.25 0 0 0.25 0 0)" x="388" xlink:href="#svg_3" y="324"/>
  <use id="svg_11" transform="matrix(0.249662 0 0 0.248457 1.80317 2.58025)" x="1470.76" xlink:href="#svg_10" y="1288.62"/>
  <use id="svg_14" transform="matrix(0.25 0 0 0.25 0 0)" x="388" xlink:href="#svg_13" y="804.9"/>
  <use id="svg_22" transform="matrix(0.25 0 0 0.25 0.00620191 0.0123282)" x="1475.98" xlink:href="#svg_21" y="811.95"/>
  <use id="svg_29" transform="matrix(0.25 0 0 0.25 0 0)" x="388" xlink:href="#svg_28" y="1284.9"/>
  <use fill="#bfbfbf" fill-opacity="0.2" id="svg_41" transform="matrix(1 0 0 1 0 0) matrix(0.248457 0 0 0.248457 3.57407 2.58025)" x="1473.38" xlink:href="#svg_10" y="811.16"/>
  <use fill="#bfbfbf" fill-opacity="0.2" id="svg_45" transform="matrix(0.248795 0 0 0.249198 0.46848 1.02892)" x="390.2" xlink:href="#svg_44" y="1284"/>
  <use fill="#bfbfbf" fill-opacity="0.2" id="svg_51" transform="matrix(1 0 0 1 0 0) matrix(0.247206 0 0 0.275849 18.3558 -20.5925)" x="318.2" xlink:href="#svg_50" y="803.56"/>
  <text fill="#ffffff" font-family="Serif" font-size="24" id="svg_54" stroke="#000000" stroke-width="0" text-anchor="middle" transform="matrix(0.369966 0 0 0.369966 353.399 293.089)" x="642.82" xml:space="preserve" y="478.31">author: louiesun</text>
  <text fill="#ffffff" font-family="Serif" font-size="24" id="svg_55" stroke="#000000" stroke-width="0" text-anchor="middle" transform="matrix(1 0 0 1 1 24)" x="316.72" xml:space="preserve" y="28.19">International Situation</text>
  <use id="svg_140" transform="matrix(0.1294 0 0 0.18881 -1557.51 -614.165)" x="14887.45" xlink:href="#svg_139" y="3677.67"/>
  <use fill="#bfbfbf" fill-opacity="0.2" id="svg_40" transform="matrix(0.248192 0 0 0.254012 272.702 97.2692)" x="389.55" xlink:href="#svg_39" y="-65.55"/>
  <g id="svg_31" opacity="0.2" transform="matrix(1 0 0 1 0 0)">
   <g class="layer" id="svg_32">
    <title>Layer 1</title>
    <path d="m97.5,141.17l158.79,0l0,59.16l-158.79,0l0,-59.16z" fill="#d52b1e" id="svg_133" opacity="0.95"/>
    <path d="m97.5,82l158.79,0l0,59.17l-158.79,0l0,-59.17z" fill="#0d0d0d" id="svg_132"/>
    <path d="m97.5,121.44l158.79,0l0,39.45l-158.79,0l0,-39.45z" fill="#ffffff" id="svg_131"/>
   </g>
  </g>
  <use fill="#bfbfbf" fill-opacity="0.3" id="svg_34" transform="matrix(0.177778 0 0 0.199049 0 -38.5278)" x="2075.62" xlink:href="#svg_33" y="1816.87"/>
 </g>
</svg>