<svg width="615" height="645" xmlns="http://www.w3.org/2000/svg" xmlns:xlink="http://www.w3.org/1999/xlink" clip-rule="evenodd" fill-rule="evenodd">
 <defs>
  <symbol fill-rule="evenodd" id="a" xmlns="http://www.w3.org/2000/svg" xmlns:xlink="http://www.w3.org/1999/xlink">
   <path d="m149.5,64.5c0.34,2.66 -0.33,4.99 -2,7c-5.31,0.65 -10.64,0.82 -16,0.5c-3.18,1.88 -3.85,4.55 -2,8c-0.83,4.3 -1.5,8.63 -2,13c-0.17,1.66 -0.84,2.99 -2,4c4,0.14 7.84,0.98 11.5,2.5l2,-2c1.77,0.73 3.6,1.07 5.5,1l3,0c-1.38,21.56 -12.72,30.72 -34,27.5c-6.09,-1.36 -11.59,-3.86 -16.5,-7.5c0.55,-3.15 0.38,-6.15 -0.5,-9c0.79,-2.93 2.79,-4.77 6,-5.5c4.31,0.25 8.65,0.25 13,0c6.71,-3.44 9.21,-8.94 7.5,-16.5a25.77,25.77 0 0 1 -2,-8a11.15,11.15 0 0 0 -4.5,-3c-2.2,-0.67 -4.53,-1.33 -7,-2c-0.33,-0.67 -0.67,-1.33 -1,-2c4.94,-0.89 5.11,-1.89 0.5,-3c-2.66,0.25 -4.83,1.42 -6.5,3.5c1.78,-0.98 3.44,-0.65 5,1c-0.46,0.41 -0.79,0.91 -1,1.5c-4.82,0.67 -9.48,1.33 -14,2c-10.18,1 -18.68,5.34 -25.5,13c-2.32,2.97 -3.82,6.3 -4.5,10c-0.53,2.42 -1.36,4.76 -2.5,7c-0.38,-0.56 -0.88,-0.89 -1.5,-1c-5.95,-13.37 -8.12,-27.37 -6.5,-42c1.75,-10.68 6.92,-19.18 15.5,-25.5c-3.73,-0.07 -7.23,-0.9 -10.5,-2.5c-2.7,-4.54 -3.03,-9.21 -1,-14c3.65,-4.81 8.32,-7.81 14,-9c4.2,-0.05 7.87,1.29 11,4c1.08,6.19 -0.92,11.19 -6,15c-0.59,0.98 -0.26,1.65 1,2c10.89,-7.01 22.72,-9.01 35.5,-6c-1.36,-4.04 -2.69,-8.04 -4,-12c-0.17,-2.19 0.49,-4.03 2,-5.5c8.4,-5.18 16.06,-4.18 23,3c3.55,4.22 4.72,9.06 3.5,14.5c-4.97,4.45 -10.47,5.11 -16.5,2c-1.5,-0.05 -2.5,0.62 -3,2c2.02,1.86 4.19,3.52 6.5,5c3.92,6.17 8.09,12.17 12.5,18c4.93,2.64 9.6,5.64 14,9z" fill="#f5cd70" id="svg_1"/>
   <path d="m116.5,76.5c-7.99,0.6 -15.99,0.93 -24,1c4.52,-0.67 9.18,-1.33 14,-2c0.21,-0.59 0.54,-1.09 1,-1.5c-1.56,-1.65 -3.22,-1.98 -5,-1c1.67,-2.08 3.84,-3.25 6.5,-3.5c4.61,1.11 4.44,2.11 -0.5,3c0.33,0.67 0.67,1.33 1,2c2.47,0.67 4.8,1.33 7,2z" fill="#cc9751" id="svg_2"/>
   <path d="m149.5,64.5c1.05,2.84 1.05,5.84 0,9c1.29,0.24 2.29,-0.1 3,-1l1,0c-0.68,1.68 -2.02,2.34 -4,2c-7.37,-1.45 -13.54,0.55 -18.5,6c-1.07,7.63 2.1,12.79 9.5,15.5c5.13,0.54 10.13,0.21 15,-1c-2.46,0.72 -3.46,2.06 -3,4c-0.95,0.48 -1.95,0.65 -3,0.5c0.31,3.21 -0.02,6.21 -1,9l0,-11c-1.6,-0.27 -2.93,0.07 -4,1c-1.9,0.07 -3.73,-0.27 -5.5,-1l-2,2c-3.66,-1.52 -7.5,-2.36 -11.5,-2.5c1.16,-1.01 1.83,-2.34 2,-4c0.5,-4.37 1.17,-8.7 2,-13c-1.85,-3.45 -1.18,-6.12 2,-8c5.36,0.32 10.69,0.15 16,-0.5c1.67,-2.01 2.34,-4.34 2,-7z" fill="#955225" id="svg_3"/>
   <path d="m131.5,73.5c1.7,-0.16 3.37,0.01 5,0.5a33.84,33.84 0 0 1 -6,3.5l-1,-1c0.69,-1.02 1.36,-2.02 2,-3z" fill="#e8b96b" id="svg_4"/>
   <path d="m149.5,74.5c10.68,3.34 16.02,10.67 16,22c0.04,4.46 -0.63,8.8 -2,13c-3.19,3.03 -5.85,6.53 -8,10.5c-3.33,0.67 -6.67,0.67 -10,0c-0.46,-0.41 -0.79,-0.91 -1,-1.5c1.91,-3.14 3.24,-6.47 4,-10c0.98,-2.79 1.31,-5.79 1,-9c1.05,0.15 2.05,-0.02 3,-0.5c-0.46,-1.94 0.54,-3.28 3,-4c-4.87,1.21 -9.87,1.54 -15,1c-7.4,-2.71 -10.57,-7.87 -9.5,-15.5c4.96,-5.45 11.13,-7.45 18.5,-6z" fill="#f5cd70" id="svg_5"/>
   <path d="m93.5,107.5c-0.96,0.45 -1.79,1.12 -2.5,2c-0.3,8.44 -4.8,12.77 -13.5,13c-8.21,0.12 -12.54,-3.88 -13,-12c-0.47,-16.71 7.53,-26.88 24,-30.5c7.33,-0.67 14.67,-0.67 22,0c11.53,4.04 13.86,11.04 7,21c-1.7,0.96 -3.53,1.46 -5.5,1.5c-7.48,-3.34 -13.65,-1.67 -18.5,5z" fill="#f5ce70" id="svg_6"/>
   <path d="m116.5,76.5c1.73,0.62 3.23,1.62 4.5,3c0.24,2.79 0.91,5.46 2,8c1.71,7.56 -0.79,13.06 -7.5,16.5c-4.35,0.25 -8.69,0.25 -13,0c-3.21,0.73 -5.21,2.57 -6,5.5c-0.72,-1.05 -1.72,-1.72 -3,-2c4.85,-6.67 11.02,-8.34 18.5,-5c1.97,-0.04 3.8,-0.54 5.5,-1.5c6.86,-9.96 4.53,-16.96 -7,-21c-7.33,-0.67 -14.67,-0.67 -22,0c-16.47,3.62 -24.47,13.79 -24,30.5c-0.67,-3.33 -1.33,-6.67 -2,-10c0.68,-3.7 2.18,-7.03 4.5,-10c6.82,-7.66 15.32,-12 25.5,-13c8.01,-0.07 16.01,-0.4 24,-1z" fill="#904b21" id="svg_7"/>
   <path d="m129.5,90.5c1.8,1.29 3.46,2.79 5,4.5c-1.63,0.49 -3.3,0.66 -5,0.5l0,-5z" fill="#eec26d" id="svg_8"/>
   <path d="m152.5,72.5c-0.71,0.9 -1.71,1.24 -3,1c1.05,-3.16 1.05,-6.16 0,-9c-4.4,-3.36 -9.07,-6.36 -14,-9c-4.41,-5.83 -8.58,-11.83 -12.5,-18a46.98,46.98 0 0 1 -6.5,-5c0.5,-1.38 1.5,-2.05 3,-2c6.03,3.11 11.53,2.45 16.5,-2c1.22,-5.44 0.05,-10.28 -3.5,-14.5c-6.94,-7.18 -14.6,-8.18 -23,-3c-1.51,1.47 -2.17,3.31 -2,5.5c1.31,3.96 2.64,7.96 4,12c-12.78,-3.01 -24.61,-1.01 -35.5,6c-1.26,-0.35 -1.59,-1.02 -1,-2c5.08,-3.81 7.08,-8.81 6,-15c-3.13,-2.71 -6.8,-4.05 -11,-4c-5.68,1.19 -10.35,4.19 -14,9c-2.03,4.79 -1.7,9.46 1,14c3.27,1.6 6.77,2.43 10.5,2.5c-8.58,6.32 -13.75,14.82 -15.5,25.5c-1.62,14.63 0.55,28.63 6.5,42l0,2c-3.16,-0.89 -5.16,0.44 -6,4c1.11,2.28 2.45,4.45 4,6.5c-0.79,1.63 -1.79,3.13 -3,4.5c3.74,3.18 4.91,7.18 3.5,12c-2.1,3.21 -3.94,6.54 -5.5,10c1.77,3.27 4.1,6.1 7,8.5c1.08,0.47 2.08,0.3 3,-0.5c0.67,0 1,0.33 1,1c-7.99,18.82 -4.65,35.66 10,50.5c3.23,2.11 6.56,3.94 10,5.5c2.95,1.96 6.28,3.13 10,3.5c5.52,0.82 10.85,0.65 16,-0.5c0.88,0.13 1.54,-0.2 2,-1c-1.69,-2.73 -3.36,-5.4 -5,-8c0.71,-0.9 1.71,-1.24 3,-1c-0.27,1.6 0.07,2.93 1,4c3.03,5.37 7.7,8.53 14,9.5c6.48,1.18 11.98,-0.66 16.5,-5.5c10.56,-17.88 5.56,-26.22 -15,-25c-1.03,-0.34 -1.53,-1 -1.5,-2c8.82,-2.77 16.32,-0.77 22.5,6c1.56,2.46 2.56,5.12 3,8l2,-2c1.59,5.09 4.76,8.75 9.5,11c2.33,1.33 4.67,1.33 7,0c5.66,-1.95 8.99,-5.95 10,-12c1.99,-3.9 2.32,-7.9 1,-12c-2.83,-10.08 -9.17,-13.25 -19,-9.5c-2.46,2.41 -4.29,5.24 -5.5,8.5c-0.33,4.67 -0.67,9.33 -1,14c-0.67,-5.67 -0.67,-11.33 0,-17c1.29,-2.29 2.96,-4.29 5,-6c0.92,-6.48 0.42,-12.81 -1.5,-19c-0.33,-3 1,-4.33 4,-4c-0.64,0.98 -1.31,1.98 -2,3c2.34,5.4 3.51,11.06 3.5,17c3.41,-1.12 6.91,-1.29 10.5,-0.5c9.88,9.29 11.72,20.13 5.5,32.5c-5.27,7.96 -12.44,10.12 -21.5,6.5a34.86,34.86 0 0 1 -6.5,-7.5c-3.91,3.85 -6.75,8.35 -8.5,13.5a35.34,35.34 0 0 1 -13.5,5.5c-5.19,-1.23 -10.36,-2.56 -15.5,-4c-19.83,3.56 -36.33,-2.11 -49.5,-17c-4.64,-8.42 -7.14,-17.42 -7.5,-27c0.58,-5.67 0.74,-11.34 0.5,-17c-6.89,-4.67 -8.23,-10.67 -4,-18c1.79,-1.28 2.95,-2.94 3.5,-5c-1.62,-2.9 -2.95,-5.9 -4,-9c-0.11,-1.87 0.56,-3.37 2,-4.5c-4.13,-5.08 -3.8,-9.91 1,-14.5c-6.65,-16.69 -7.49,-33.69 -2.5,-51c2.22,-4.6 5.05,-8.77 8.5,-12.5c-6.38,-1.39 -9.38,-5.39 -9,-12c1.59,-8.27 6.25,-14.27 14,-18c14.43,-3.25 20.59,2.25 18.5,16.5c1.94,-1.36 4.11,-2.2 6.5,-2.5c5.05,-0.78 10.05,-0.61 15,0.5l1,-1c-5.03,-12.34 -0.7,-18.68 13,-19c15.24,1.73 21.41,10.06 18.5,25c-3.41,3.41 -7.58,5.41 -12.5,6c4.08,4.49 7.41,9.49 10,15a65.83,65.83 0 0 1 16.5,12c0.85,3.09 0.35,5.92 -1.5,8.5c0.59,0.46 1.26,0.63 2,0.5z" fill="#88482f" id="svg_9"/>
   <path d="m113.5,19.5c3.94,3.4 8.61,4.9 14,4.5c-3.57,1.84 -7.24,1.84 -11,0c-1.64,-1.13 -2.64,-2.63 -3,-4.5z" fill="#b67e3f" id="svg_10"/>
   <path d="m144.5,98.5c1.07,-0.93 2.4,-1.27 4,-1l0,11c-0.76,3.53 -2.09,6.86 -4,10c0.21,0.59 0.54,1.09 1,1.5c3.33,0.67 6.67,0.67 10,0c2.15,-3.97 4.81,-7.47 8,-10.5c0.03,1.7 0.69,3.03 2,4c-4.62,0.63 -6.62,3.29 -6,8c-5.88,1.64 -11.54,1.31 -17,-1a64.09,64.09 0 0 0 -7,6.5c-11.08,2.5 -21.91,1.67 -32.5,-2.5c-0.5,0.17 -1,0.33 -1.5,0.5c0.95,0.72 1.12,1.55 0.5,2.5a11.51,11.51 0 0 1 -3.5,-5c-1.4,3.36 -2.9,6.7 -4.5,10c-1.11,1.83 -2.61,2.66 -4.5,2.5c4.79,-3.74 6.62,-8.58 5.5,-14.5a36.17,36.17 0 0 1 -3.5,4.5c-0.83,0.69 -1.5,0.52 -2,-0.5c4.49,-3.57 6.32,-8.23 5.5,-14c-4.63,13.05 -13.46,16.89 -26.5,11.5c-3.15,-2.46 -5.15,-5.63 -6,-9.5l0,-3l-4,0l0,-3c0.62,0.11 1.12,0.44 1.5,1c1.14,-2.24 1.97,-4.58 2.5,-7c0.67,3.33 1.33,6.67 2,10c0.46,8.12 4.79,12.12 13,12c8.7,-0.23 13.2,-4.56 13.5,-13c0.71,-0.88 1.54,-1.55 2.5,-2c1.28,0.28 2.28,0.95 3,2c0.88,2.85 1.05,5.85 0.5,9c4.91,3.64 10.41,6.14 16.5,7.5c21.28,3.22 32.62,-5.94 34,-27.5l-3,0z" fill="#90391b" id="svg_11"/>
   <path d="m140.5,110.5c-1.41,0.47 -2.07,1.47 -2,3c-5.83,2.19 -10.66,0.86 -14.5,-4c-1.54,-5.64 0.63,-8.64 6.5,-9c3.33,0.55 6.66,1.05 10,1.5c1.18,2.8 1.18,5.63 0,8.5z" fill="#82361b" id="svg_12"/>
   <path d="m138.5,113.5c-0.07,-1.53 0.59,-2.53 2,-3c-0.93,7.75 -5.43,11.41 -13.5,11c-5.85,-0.1 -10.19,-2.76 -13,-8c-1.28,1.15 -1.61,0.81 -1,-1l2,-2c3.23,8.62 9.4,11.45 18.5,8.5c2.58,-1.08 4.25,-2.91 5,-5.5z" fill="#b78141" id="svg_13"/>
   <path d="m153.5,72.5c10.83,4.91 15.83,13.41 15,25.5c0.02,4.42 -0.98,8.59 -3,12.5c1.97,3.05 2.47,6.38 1.5,10c-4.46,4.17 -8.63,8.66 -12.5,13.5c5.49,0.73 8.82,3.73 10,9c-0.5,3.05 -1.83,5.55 -4,7.5l0,-3c2.08,-2.01 2.41,-4.34 1,-7c-4.69,-0.95 -8.69,-3.11 -12,-6.5c4.61,-4.07 9.11,-8.23 13.5,-12.5c1.71,-2.41 2.54,-5.08 2.5,-8c-1.31,-0.97 -1.97,-2.3 -2,-4c1.37,-4.2 2.04,-8.54 2,-13c0.02,-11.33 -5.32,-18.66 -16,-22c1.98,0.34 3.32,-0.32 4,-2z" fill="#8c4832" id="svg_14"/>
   <path d="m58.5,108.5l0,1c3.93,9.45 7.43,19.12 10.5,29c0.33,-1.33 0.67,-2.67 1,-4c0.72,0.95 1.55,1.12 2.5,0.5a21.81,21.81 0 0 1 -6,-7.5c1.33,-0.33 2.67,-0.67 4,-1c-6.22,-3.12 -9.39,-8.12 -9.5,-15c0.38,0.56 0.88,0.89 1.5,1c0.85,3.87 2.85,7.04 6,9.5c13.04,5.39 21.87,1.55 26.5,-11.5c0.82,5.77 -1.01,10.43 -5.5,14c0.5,1.02 1.17,1.19 2,0.5c1.29,-1.41 2.45,-2.91 3.5,-4.5c1.12,5.92 -0.71,10.76 -5.5,14.5c1.89,0.16 3.39,-0.67 4.5,-2.5c1.6,-3.3 3.1,-6.64 4.5,-10c0.72,1.98 1.88,3.65 3.5,5c0.62,-0.95 0.45,-1.78 -0.5,-2.5c0.5,-0.17 1,-0.33 1.5,-0.5c10.59,4.17 21.42,5 32.5,2.5c2.18,-2.35 4.52,-4.52 7,-6.5c5.46,2.31 11.12,2.64 17,1c-0.62,-4.71 1.38,-7.37 6,-8c0.04,2.92 -0.79,5.59 -2.5,8c-4.39,4.27 -8.89,8.43 -13.5,12.5c3.31,3.39 7.31,5.55 12,6.5c1.41,2.66 1.08,4.99 -1,7c-1.26,0.4 -2.42,1.07 -3.5,2c-3.47,-2.77 -2.97,-4.77 1.5,-6c-2.36,-1.21 -4.53,-0.87 -6.5,1c-2.79,-1.02 -5.62,-1.18 -8.5,-0.5c-19.54,13.63 -41.2,18.63 -65,15a39.7,39.7 0 0 1 -8,-7c-3.62,-2.37 -6.62,-1.87 -9,1.5c-0.92,0.8 -1.92,0.97 -3,0.5c-2.9,-2.4 -5.23,-5.23 -7,-8.5c1.56,-3.46 3.4,-6.79 5.5,-10c1.41,-4.82 0.24,-8.82 -3.5,-12c1.21,-1.37 2.21,-2.87 3,-4.5a39.3,39.3 0 0 1 -4,-6.5c0.84,-3.56 2.84,-4.89 6,-4z" fill="#f53e3c" id="svg_15"/>
   <path d="m58.5,109.5l4,0l0,3c-0.62,-0.11 -1.12,-0.44 -1.5,-1c0.11,6.88 3.28,11.88 9.5,15c-1.33,0.33 -2.67,0.67 -4,1a21.81,21.81 0 0 0 6,7.5c-0.95,0.62 -1.78,0.45 -2.5,-0.5c-0.33,1.33 -0.67,2.67 -1,4c-3.07,-9.88 -6.57,-19.55 -10.5,-29z" fill="#b83224" id="svg_16"/>
   <path d="m131.5,135.5c1.37,-0.16 2.71,0.01 4,0.5c-2.67,0.67 -2.67,1.33 0,2c-7.07,2.18 -14.07,4.18 -21,6a7.38,7.38 0 0 0 3,-2a51.1,51.1 0 0 1 -7,0c7.13,-2.1 14.13,-4.27 21,-6.5z" fill="#b03222" id="svg_17"/>
   <path d="m156.5,154.5c1.92,6.19 2.42,12.52 1.5,19a21.64,21.64 0 0 0 -5,6c-0.67,5.67 -0.67,11.33 0,17c0.33,-4.67 0.67,-9.33 1,-14c1.21,-3.26 3.04,-6.09 5.5,-8.5c9.83,-3.75 16.17,-0.58 19,9.5c0.16,1.37 -0.01,2.71 -0.5,4c-2.9,-8.08 -8.06,-10.08 -15.5,-6c-0.83,1 -1.67,2 -2.5,3c-0.5,4.99 -0.67,9.99 -0.5,15c0.32,2.81 1.32,5.31 3,7.5c-0.59,0.46 -1.26,0.63 -2,0.5c-4.74,-2.25 -7.91,-5.91 -9.5,-11l-2,2c-0.44,-2.88 -1.44,-5.54 -3,-8c-6.18,-6.77 -13.68,-8.77 -22.5,-6c-3.64,-6 -8.97,-9.84 -16,-11.5c-6,-0.67 -12,-0.67 -18,0a12.74,12.74 0 0 0 -6,3c-4.7,-0.45 -8.53,1.05 -11.5,4.5c-0.67,0.67 -0.67,1.33 0,2c1.84,-2.88 4.34,-4.38 7.5,-4.5c-6.59,5.34 -9.76,12.18 -9.5,20.5c2.55,5.2 6.72,8.37 12.5,9.5c4.42,0.77 8.75,0.6 13,-0.5l10,-3c1.64,2.6 3.31,5.27 5,8c-0.46,0.8 -1.12,1.13 -2,1c-8.84,0.3 -17.5,-0.7 -26,-3a74.56,74.56 0 0 1 -10,-5.5c-14.65,-14.84 -17.99,-31.68 -10,-50.5c1.34,-1.61 3,-2.11 5,-1.5c3.05,4.18 7.05,6.85 12,8c24.74,3.11 47.24,-2.39 67.5,-16.5c2.14,0.74 4.14,1.74 6,3c0.9,2.57 2.06,4.9 3.5,7z" fill="#f4cb6f" id="svg_18"/>
   <path d="m160.5,147.5l0,3c-3,-0.33 -4.33,1 -4,4c-1.44,-2.1 -2.6,-4.43 -3.5,-7a25.52,25.52 0 0 0 -6,-3c-20.26,14.11 -42.76,19.61 -67.5,16.5c-4.95,-1.15 -8.95,-3.82 -12,-8c-2,-0.61 -3.66,-0.11 -5,1.5c0,-0.67 -0.33,-1 -1,-1c2.38,-3.37 5.38,-3.87 9,-1.5c2.37,2.71 5.04,5.04 8,7c23.8,3.63 45.46,-1.37 65,-15c2.88,-0.68 5.71,-0.52 8.5,0.5c1.97,-1.87 4.14,-2.21 6.5,-1c-4.47,1.23 -4.97,3.23 -1.5,6c1.08,-0.93 2.24,-1.6 3.5,-2z" fill="#913b1c" id="svg_19"/>
   <path d="m123.5,184.5c-0.03,1 0.47,1.66 1.5,2c20.56,-1.22 25.56,7.12 15,25c-4.52,4.84 -10.02,6.68 -16.5,5.5c-6.3,-0.97 -10.97,-4.13 -14,-9.5l0,-3c2.6,-0.14 4.93,-0.98 7,-2.5c-1.88,-0.58 -3.71,-0.41 -5.5,0.5a9.3,9.3 0 0 1 -2.5,-2c-4.5,2.6 -9.17,4.6 -14,6c-7.01,0.59 -13.67,-0.57 -20,-3.5c-3.28,-4.18 -3.78,-8.68 -1.5,-13.5c8.14,-13.33 19.98,-18.16 35.5,-14.5c5.67,2.18 10.67,5.34 15,9.5zm54,11c-1.01,6.05 -4.34,10.05 -10,12c-1.89,0.2 -3.39,-0.46 -4.5,-2a51.24,51.24 0 0 1 -1.5,-16c0.08,-6.92 3.42,-9.42 10,-7.5c4.59,3.23 6.59,7.73 6,13.5z" fill="#f5cd70" id="svg_20"/>
   <path d="m178.5,183.5c1.32,4.1 0.99,8.1 -1,12c0.59,-5.77 -1.41,-10.27 -6,-13.5c-6.58,-1.92 -9.92,0.58 -10,7.5c-0.67,3.33 -1.33,6.67 -2,10c-0.17,-5.01 0,-10.01 0.5,-15c0.83,-1 1.67,-2 2.5,-3c7.44,-4.08 12.6,-2.08 15.5,6c0.49,-1.29 0.66,-2.63 0.5,-4z" fill="#945324" id="svg_21"/>
   <path d="m123.5,184.5c-4.33,-4.16 -9.33,-7.32 -15,-9.5c-15.52,-3.66 -27.36,1.17 -35.5,14.5c-2.28,4.82 -1.78,9.32 1.5,13.5c6.33,2.93 12.99,4.09 20,3.5c0.67,0 1,0.33 1,1c-4.25,1.1 -8.58,1.27 -13,0.5c-5.78,-1.13 -9.95,-4.3 -12.5,-9.5c-0.26,-8.32 2.91,-15.16 9.5,-20.5c-3.16,0.12 -5.66,1.62 -7.5,4.5c-0.67,-0.67 -0.67,-1.33 0,-2c2.97,-3.45 6.8,-4.95 11.5,-4.5a12.74,12.74 0 0 1 6,-3c6,-0.67 12,-0.67 18,0c7.03,1.66 12.36,5.5 16,11.5z" fill="#935122" id="svg_22"/>
   <path d="m109.5,207.5c-0.93,-1.07 -1.27,-2.4 -1,-4c-1.29,-0.24 -2.29,0.1 -3,1l-10,3c0,-0.67 -0.33,-1 -1,-1c4.83,-1.4 9.5,-3.4 14,-6a9.3,9.3 0 0 0 2.5,2c1.79,-0.91 3.62,-1.08 5.5,-0.5c-2.07,1.52 -4.4,2.36 -7,2.5l0,3z" fill="#bb8643" id="svg_23"/>
   <path d="m161.5,189.5c-0.34,5.43 0.16,10.76 1.5,16c1.11,1.54 2.61,2.2 4.5,2c-2.33,1.33 -4.67,1.33 -7,0c0.74,0.13 1.41,-0.04 2,-0.5c-1.68,-2.19 -2.68,-4.69 -3,-7.5c0.67,-3.33 1.33,-6.67 2,-10z" fill="#b98344" id="svg_24"/>
   <path d="m82.5,210.5c8.5,2.3 17.16,3.3 26,3c-5.15,1.15 -10.48,1.32 -16,0.5c-3.72,-0.37 -7.05,-1.54 -10,-3.5z" fill="#b4783f" id="svg_25"/>
  </symbol>
 </defs>
 <g class="layer">
  <title>Layer 1</title>
  <g id="svg_26">
   <path d="m281.83855,0.19276c127.93,-3.81 224.42,48.86 289.5,158c48.01,90.52 55.01,184.19 21,281c-37.31,95.31 -104.48,159.14 -201.5,191.5c-120.5,30.5 -223.33,0.66 -308.5,-89.5c-71.28,-85.1 -96.28,-182.43 -75,-292c25.77,-107.42 88.94,-183.58 189.5,-228.5c27.6,-10.49 55.93,-17.32 85,-20.5z" fill="#c96458" id="svg_28"/>
   <path d="m281.83855,36.19276l6,0c0.45,6.69 1.12,13.36 2,20c-14.99,1.8 -29.99,3.46 -45,5c-0.55,-5.68 -1.21,-11.34 -2,-17c0.11,-0.94 0.44,-1.78 1,-2.5a759.85,759.85 0 0 0 38,-5.5z" fill="#fcf6f5" id="svg_29"/>
   <path d="m344.83855,36.19276c2.62,0.98 4.95,2.48 7,4.5c-1.17,1.87 -1,3.7 0.5,5.5c6.3,8.64 14.14,15.47 23.5,20.5a31.31,31.31 0 0 1 -5,4.5a45.87,45.87 0 0 1 -11.5,-8c-0.49,1.63 -0.66,3.3 -0.5,5c-10.7,-1.05 -21.37,-2.39 -32,-4c0.16,-1.7 -0.01,-3.37 -0.5,-5a101.75,101.75 0 0 1 -12,6a39.81,39.81 0 0 0 -4.5,-6c14.27,-3.95 25.94,-11.62 35,-23z" fill="#fcf7f6" id="svg_30"/>
   <path d="m275.83855,43.19276l5,0c0.07,2.71 0.41,5.37 1,8c-9.9,1.13 -19.73,2.46 -29.5,4c-0.82,-2.62 -1.32,-5.28 -1.5,-8c8.5,-1.1 16.84,-2.43 25,-4zm69,3c3.76,4.94 7.76,9.77 12,14.5c-9.18,0.61 -18.18,-0.39 -27,-3c5.43,-3.37 10.43,-7.2 15,-11.5z" fill="#cb6a5e" id="svg_31"/>
   <path d="m202.83855,50.19276c2.62,0.98 4.95,2.48 7,4.5c-6.03,3.68 -12.03,7.34 -18,11c0.38,1.63 1.04,3.13 2,4.5c7.73,-3.28 15.23,-6.95 22.5,-11c1.8,2.01 2.3,4.18 1.5,6.5c-5.33,2.33 -10.67,4.67 -16,7c7.61,1.8 15.28,1.96 23,0.5c0.34,2.16 0.34,4.49 0,7c-5.97,0.97 -11.97,1.14 -18,0.5c-3.3,-0.49 -6.3,-1.65 -9,-3.5l-1,1c1.33,2.67 2.67,5.33 4,8c-2.05,2.22 -4.38,2.89 -7,2a60.31,60.31 0 0 0 -4,-8c-3.03,9.39 -8.53,17.05 -16.5,23c-1.8,-1.82 -3.97,-2.98 -6.5,-3.5c6.71,-5.04 12.38,-11.04 17,-18c-6.49,1.78 -12.82,4.28 -19,7.5c-1.25,-1.5 -2.25,-3.17 -3,-5c8.52,-3.76 16.85,-7.76 25,-12c-0.33,-1.67 -1.33,-2.67 -3,-3c-5.89,2.53 -11.72,5.19 -17.5,8c-1.96,-0.79 -3.46,-2.13 -4.5,-4l29,-14.5c4.24,-2.61 8.24,-5.44 12,-8.5z" fill="#fcf8f7" id="svg_32"/>
   <path d="m420.83855,57.19276c1.76,0.96 3.76,1.29 6,1c-0.31,3.54 0.02,6.88 1,10c8.06,3.53 16.06,7.36 24,11.5c-2.14,3.79 -4.14,7.62 -6,11.5c-5.28,-1.57 -6.28,-4.57 -3,-9a417.24,417.24 0 0 0 -44,-18.5c-0.79,2.37 -1.96,4.53 -3.5,6.5c-2.37,-0.79 -4.53,-1.96 -6.5,-3.5c2.31,-4.12 4.48,-8.29 6.5,-12.5c7.99,3.83 16.15,7.16 24.5,10c-0.3,-2.56 0.03,-4.89 1,-7z" fill="#fdf8f8" id="svg_33"/>
   <path d="m283.83855,60.19276l9,0c1.22,7.63 2.22,15.3 3,23c-2.71,0.08 -5.37,0.41 -8,1c-0.85,-5.64 -1.52,-11.31 -2,-17c-11.39,0.86 -22.72,2.2 -34,4c0.88,5.97 1.55,11.97 2,18c-2.63,0.59 -5.29,0.92 -8,1c-0.26,-7.77 -1.26,-15.44 -3,-23c13.76,-2.63 27.42,-4.96 41,-7z" fill="#fcf7f6" id="svg_34"/>
   <path d="m420.83855,57.19276l7,0l0,11c-0.98,-3.12 -1.31,-6.46 -1,-10c-2.24,0.29 -4.24,-0.04 -6,-1z" fill="#eac4bf" id="svg_35"/>
   <path d="m313.83855,69.19276c18.3,2.66 36.63,4.99 55,7l0,6c-9.23,-0.84 -18.4,-2.18 -27.5,-4c-0.83,0.17 -1.67,0.33 -2.5,0.5c1.76,0.97 2.09,2.13 1,3.5c-4.68,2.67 -9.34,5.34 -14,8a141.35,141.35 0 0 0 25,2.5a21.41,21.41 0 0 1 -5,-6c0.79,-1.96 2.13,-3.46 4,-4.5a139.9,139.9 0 0 1 14,18c-3.39,5.38 -6.39,5.21 -9,-0.5a305.79,305.79 0 0 0 -40,-2.5c-0.33,-2.67 -0.67,-5.33 -1,-8c7.68,-2.01 14.35,-5.84 20,-11.5c-6.94,-1.42 -13.94,-2.25 -21,-2.5c-0.18,-2.12 0.16,-4.12 1,-6z" fill="#fcf6f5" id="svg_36"/>
   <path d="m395.83855,71.19276c6.3,1.9 12.47,4.23 18.5,7c1.88,-1.12 2.71,-2.79 2.5,-5c6.76,-0.27 8.42,2.4 5,8c5.51,2.92 11.18,5.59 17,8c1.11,1.22 1.28,2.56 0.5,4c-4.02,8.7 -8.02,17.36 -12,26c-3.53,-0.52 -5.7,-2.52 -6.5,-6a70.17,70.17 0 0 1 -10.5,-5c-2.17,4.33 -4.33,8.67 -6.5,13c-2.38,-0.85 -4.38,-2.18 -6,-4c2.4,-3.78 3.9,-7.78 4.5,-12c-3.67,-1.67 -7.33,-3.33 -11,-5c-2.79,2.58 -5.29,2.25 -7.5,-1c4.2,-9.28 8.2,-18.61 12,-28z" fill="#fdf9f8" id="svg_37"/>
   <path d="m265.83855,72.19276l8,0c1.71,12.08 -2.63,21.25 -13,27.5a91.49,91.49 0 0 1 -17,6.5c-0.28,-2.46 -1.28,-4.63 -3,-6.5c4.89,-1.81 9.89,-3.48 15,-5c8.58,-5 11.91,-12.5 10,-22.5z" fill="#fdf8f8" id="svg_38"/>
   <path d="m399.83855,79.19276c4.33,1.33 8.67,2.67 13,4c-0.11,2.28 -0.94,4.28 -2.5,6a70.17,70.17 0 0 0 -10.5,-5c-0.93,-1.59 -0.93,-3.26 0,-5z" fill="#cb6b60" id="svg_39"/>
   <path d="m234.83855,104.19276c-0.93,1.07 -1.27,2.4 -1,4c-5.86,-0.32 -11.53,0.01 -17,1c-2.03,-0.16 -4.03,0 -6,0.5a90.65,90.65 0 0 1 -24.5,20.5a18.76,18.76 0 0 0 -5.5,-4.5c7.61,-4.61 14.94,-9.61 22,-15c-4.96,0.35 -9.96,0.85 -15,1.5c0.09,-2.18 0.75,-4.18 2,-6l-1,-1c-5.56,2.57 -11.06,5.24 -16.5,8c-0.83,-1.67 -1.67,-3.33 -2.5,-5c6.12,-3.22 12.45,-6.22 19,-9a21.15,21.15 0 0 0 1,-9c2.75,-0.31 5.41,0.02 8,1a6.82,6.82 0 0 0 -1,4c10.31,-3.9 20.47,-8.23 30.5,-13c1.52,1.2 2.69,2.7 3.5,4.5c-4.59,2.26 -9.26,4.42 -14,6.5a42.97,42.97 0 0 0 -3,10c6.97,-0.96 13.97,-1.63 21,-2l0,3z" fill="#fdf8f8" id="svg_40"/>
   <path d="m276.83855,83.19276c9.55,1.63 18.55,4.63 27,9c-0.64,2.29 -1.97,3.96 -4,5c-7.78,-3.15 -15.78,-5.48 -24,-7c0.49,-2.31 0.83,-4.64 1,-7z" fill="#fcf8f7" id="svg_41"/>
   <path d="m418.83855,87.19276a46.99,46.99 0 0 1 12,5c0.55,1.5 0.55,3.17 0,5a88.71,88.71 0 0 1 -12,-4.5c-1.04,-1.78 -1.04,-3.61 0,-5.5zm-23,2c3.72,1.47 7.39,3.13 11,5c1.32,2.36 0.65,4.03 -2,5c-4,-1.33 -7.67,-3.17 -11,-5.5c0.54,-1.58 1.21,-3.08 2,-4.5z" fill="#cc6c60" id="svg_42"/>
   <path d="m479.83855,89.19276c2.38,1.19 4.38,2.86 6,5a70.65,70.65 0 0 0 -9,11c1.84,1.34 3.5,2.84 5,4.5a972.15,972.15 0 0 1 -3.5,5.5a21.64,21.64 0 0 0 -6,-5a20.15,20.15 0 0 0 -3.5,4a7.28,7.28 0 0 1 2,3c-0.85,3.62 -1.18,7.28 -1,11l-7,0c0.13,-2.42 0.29,-4.75 0.5,-7a295.66,295.66 0 0 0 -19,22c-2.3,-1.58 -3.63,-3.58 -4,-6c5.46,-7.13 11.29,-13.96 17.5,-20.5c-4.43,1.78 -9.1,3.28 -14,4.5c-0.27,-2.62 0.06,-5.12 1,-7.5a63.28,63.28 0 0 0 20.5,-7.5c-0.61,-2.96 -2.44,-5.13 -5.5,-6.5a18.76,18.76 0 0 0 4.5,-5.5a55.82,55.82 0 0 0 6.5,6c3.37,-3.37 6.37,-7.04 9,-11z" fill="#fcf8f7" id="svg_43"/>
   <path d="m175.83855,128.19276c0.97,2.11 1.3,4.44 1,7c-6.81,0.99 -13.81,1.32 -21,1c-0.51,8.73 -3.18,16.73 -8,24c-1.62,-0.65 -3.28,-1.15 -5,-1.5c-0.46,-0.41 -0.79,-0.91 -1,-1.5c4.27,-7.14 6.94,-14.81 8,-23a51.72,51.72 0 0 1 -16.5,-7c-0.48,0.95 -0.65,1.95 -0.5,3c-1.37,-0.16 -2.71,0.01 -4,0.5c0.95,0.72 1.12,1.55 0.5,2.5a39.43,39.43 0 0 0 -10.5,10.5c3.47,5.09 7.3,9.92 11.5,14.5c1.82,-4.94 3.49,-9.94 5,-15c1.68,-1.1 3.18,-0.77 4.5,1c0.33,0.67 0.67,1.33 1,2a453.31,453.31 0 0 0 -7,23c-2.36,-0.17 -4.69,-0.51 -7,-1c-0.34,-3.02 -1.51,-5.68 -3.5,-8a354.39,354.39 0 0 1 -14.5,-17c4.04,-3.68 8.04,-7.34 12,-11c-3.01,-3.37 -6.01,-6.71 -9,-10l-14,11c-1.67,-1 -3,-2.33 -4,-4c6.33,-5.49 12.83,-10.83 19.5,-16c4,4.67 8,9.33 12,14c-0.13,-9.29 -2.29,-18.12 -6.5,-26.5c1.57,-1.81 3.57,-2.98 6,-3.5a60.44,60.44 0 0 1 4.5,13c5.72,-5.75 11.88,-10.59 18.5,-14.5c0.76,1.51 1.76,2.85 3,4a23.47,23.47 0 0 0 -5,5c5.24,7.39 8.74,15.55 10.5,24.5c1.74,0.63 3.57,0.96 5.5,1c4.67,-0.67 9.34,-1.34 14,-2z" fill="#fdf8f8" id="svg_44"/>
   <path d="m206.83855,97.19276c0.88,-0.13 1.54,0.2 2,1c-0.67,1.67 -1.33,3.33 -2,5a44.73,44.73 0 0 1 -11,3c-0.26,-1.48 0.07,-2.81 1,-4c3.43,-1.71 6.76,-3.38 10,-5z" fill="#cd6f63" id="svg_45"/>
   <path d="m413.83855,98.19276c4.43,1.05 8.77,2.39 13,4c-0.06,2.2 -0.73,4.2 -2,6c-3.75,-1.47 -7.42,-3.14 -11,-5c-0.93,-1.59 -0.93,-3.26 0,-5z" fill="#cb6a5f" id="svg_46"/>
   <path d="m485.83855,106.19276c4.59,3.25 8.92,6.91 13,11c1.14,-2.56 1.97,-5.23 2.5,-8c1.78,0.74 3.62,1.41 5.5,2c0.82,2.95 0.82,5.95 0,9c-1.73,-0.31 -3.39,-0.48 -5,-0.5c4.55,4.05 9.21,7.89 14,11.5c-1.33,1.67 -2.67,3.33 -4,5a371.14,371.14 0 0 1 -17.5,-15c0.02,1.61 0.18,3.27 0.5,5c-12.34,-0.74 -13.5,1.59 -3.5,7a34.77,34.77 0 0 0 7.5,-3c1.59,2.17 2.92,4.5 4,7c-14,4.69 -28.34,6.02 -43,4c-0.16,-2.69 0,-5.35 0.5,-8c7.58,2.77 15.41,3.61 23.5,2.5a52.22,52.22 0 0 0 -10,-7c-1.35,-2.79 -0.85,-5.29 1.5,-7.5c5.42,1.32 10.58,0.49 15.5,-2.5a84.05,84.05 0 0 0 -8,-7.5c0.76,-1.86 1.76,-3.53 3,-5z" fill="#fcf8f8" id="svg_47"/>
   <path d="m234.83855,104.19276l0,5l-18,0c5.47,-0.99 11.14,-1.32 17,-1c-0.27,-1.6 0.07,-2.93 1,-4z" fill="#e0a59e" id="svg_48"/>
   <path d="m138.83855,109.19276c1,-0.09 1.83,0.25 2.5,1c3.81,5.61 6.48,11.61 8,18c-4.86,-2.23 -9.69,-4.57 -14.5,-7c-1.3,0.59 -2.13,1.59 -2.5,3c-0.67,-3 -0.67,-6 0,-9c2.34,-1.9 4.5,-3.9 6.5,-6z" fill="#cb6a5f" id="svg_49"/>
   <path d="m279.83855,122.19276c86.17,-4.84 151.67,29.16 196.5,102c29.73,57.75 32.39,116.75 8,177c-33.77,69.73 -89.27,109.23 -166.5,118.5c-70.85,3.51 -128.68,-21.99 -173.5,-76.5c-45.71,-63.79 -53.71,-132.12 -24,-205c33.1,-66.28 86.27,-104.94 159.5,-116z" fill="#f3af82" id="svg_50"/>
   <path d="m175.83855,128.19276c0.06,-0.54 0.39,-0.88 1,-1c1.3,2.81 1.3,5.48 0,8c0.3,-2.56 -0.03,-4.89 -1,-7z" fill="#e5b7b1" id="svg_51"/>
   <path d="m484.83855,159.19276l0,10l-7,0l0,-15c-8.6,0.63 -16.93,-0.54 -25,-3.5c-0.94,-2.38 -1.27,-4.88 -1,-7.5c14.13,5.31 28.3,5.31 42.5,0c2.2,1.37 3.7,3.37 4.5,6a108.43,108.43 0 0 1 -14,4l0,6z" fill="#fdf9f9" id="svg_52"/>
   <path d="m533.83855,142.19276c10.91,16.76 22.08,33.43 33.5,50c-0.13,2.64 -1.63,4.31 -4.5,5c-4.57,-6.12 -8.9,-12.46 -13,-19c-3.62,-1.16 -7.29,-1.32 -11,-0.5c-12.92,8.38 -25.75,16.88 -38.5,25.5c-1.5,-2.17 -3,-4.33 -4.5,-6.5a843.97,843.97 0 0 0 33,-21c-4,-0.33 -8,-0.67 -12,-1a569.91,569.91 0 0 1 -18,-5.5c0.49,-2.31 0.83,-4.64 1,-7c6.68,2.06 13.35,4.23 20,6.5c8.3,1.29 16.63,1.62 25,1a891.21,891.21 0 0 1 -16,-23.5c1.71,-1.39 3.38,-2.72 5,-4z" fill="#fcf8f7" id="svg_53"/>
   <path d="m80.83855,143.19276c2.22,0.61 3.89,1.95 5,4l-15.5,23c-0.61,2.54 -0.11,4.88 1.5,7c5.42,-8.51 11.09,-16.84 17,-25c3.92,2.54 7.75,5.21 11.5,8c2.15,-4.81 4.65,-4.81 7.5,0c-0.67,1 -1.33,2 -2,3a36.17,36.17 0 0 0 8,6a9.35,9.35 0 0 0 3,-3c5.39,1.13 6.05,3.3 2,6.5c6.22,4.76 6.39,9.93 0.5,15.5c-2.21,-0.62 -4.05,-1.79 -5.5,-3.5c1.53,-1.58 2.03,-3.41 1.5,-5.5c-5,7.33 -10,14.67 -15,22c-4.26,-3.21 -8.42,-6.55 -12.5,-10c-1.91,5.81 -4.58,6.31 -8,1.5c1.43,-1.7 2.26,-3.53 2.5,-5.5c-2.93,-2.21 -5.76,-4.55 -8.5,-7c-1.87,1.44 -3.87,2.6 -6,3.5c2.31,0.66 4.65,1.16 7,1.5c-0.49,2.31 -0.83,4.64 -1,7c-2.44,-0.26 -4.77,-0.92 -7,-2c-1.2,0.35 -1.2,0.85 0,1.5c12.17,7.58 24.17,15.42 36,23.5c-0.62,2.25 -1.96,3.92 -4,5a2175.48,2175.48 0 0 1 -53,-35l3.5,-5c3.84,3.03 8.01,5.37 12.5,7l0,-4l4,0c-1.31,-6.28 -3.97,-11.95 -8,-17c3.07,-5 5.91,-5 8.5,0a489.67,489.67 0 0 0 14.5,-23z" fill="#fcf7f7" id="svg_54"/>
   <path d="m88.83855,161.19276c2.84,0.67 5.34,2.01 7.5,4c-0.13,2.6 -1.13,4.93 -3,7c-0.48,-0.95 -0.65,-1.95 -0.5,-3c-2.77,0.08 -5.44,-0.42 -8,-1.5c1.56,-2.05 2.89,-4.22 4,-6.5z" fill="#cc6d61" id="svg_55"/>
   <path d="m484.83855,159.19276c0.98,3.46 1.31,7.13 1,11c-2.88,0.31 -5.55,-0.03 -8,-1l7,0l0,-10z" fill="#dd9b93" id="svg_56"/>
   <path d="m100.83855,169.19276c3.7,1.52 7.04,3.69 10,6.5c-0.8,1.77 -1.97,3.27 -3.5,4.5c-0.5,-1.17 -1.33,-2 -2.5,-2.5c-2.31,-0.5 -4.64,-0.66 -7,-0.5c0.95,-2.64 1.95,-5.31 3,-8z" fill="#cc6d61" id="svg_57"/>
   <path d="m81.83855,172.19276c2.82,1.38 5.49,3.04 8,5l-3.5,5c-2.3,-1.89 -4.47,-3.89 -6.5,-6c0.68,-1.36 1.35,-2.69 2,-4z" fill="#cb6b5f" id="svg_58"/>
   <path d="m95.83855,178.19276c0.66,1.54 1.33,3.21 2,5c2.28,0.71 4.61,1.21 7,1.5a96.17,96.17 0 0 1 -5.5,7.5c-2.83,-2.17 -5.67,-4.33 -8.5,-6.5c1.8,-2.44 3.47,-4.94 5,-7.5z" fill="#cc6d61" id="svg_59"/>
   <path d="m534.83855,184.19276c1.93,0.65 3.93,0.98 6,1c-0.93,7.69 -2.1,15.36 -3.5,23c-0.12,2.51 -1.12,4.51 -3,6c-2.24,-0.87 -4.4,-1.87 -6.5,-3a798.46,798.46 0 0 0 7,-27z" fill="#fcf5f4" id="svg_60"/>
   <path d="m58.83855,196.19276c5.35,2.84 10.02,6.68 14,11.5c-1.58,2.29 -3.58,3.63 -6,4l-10.5,-10.5c0.06,-1.94 0.89,-3.6 2.5,-5z" fill="#fcf6f6" id="svg_61"/>
   <path d="m32.83855,213.19276c1.98,0.5 3.98,1 6,1.5c0.56,0.72 0.89,1.56 1,2.5c-2.16,6.96 -4.16,13.96 -6,21c2.06,2.57 4.4,5.07 7,7.5c14.8,4.62 29.8,8.45 45,11.5c-0.34,2.35 -0.84,4.69 -1.5,7c-0.56,0.52 -1.23,0.86 -2,1a349.18,349.18 0 0 0 -35.5,-9.5c6.21,7.41 10.87,15.74 14,25c-1.37,2.2 -3.37,3.7 -6,4.5c-4.12,-14.92 -11.79,-27.59 -23,-38c-3.12,8.8 -5.45,17.8 -7,27c-3.14,0.59 -5.47,-0.41 -7,-3a617.94,617.94 0 0 0 15,-58z" fill="#fcf7f7" id="svg_62"/>
   <path d="m573.83855,216.19276c2.4,0.9 4.4,2.4 6,4.5a137.41,137.41 0 0 1 -9,10.5a39.81,39.81 0 0 0 -6,-4.5c3.59,-3.08 6.59,-6.58 9,-10.5z" fill="#fcf6f5" id="svg_63"/>
   <path d="m69.83855,224.19276c2.6,2.01 3.6,4.51 3,7.5c-7.84,4.42 -15.84,8.59 -24,12.5c-2.6,-1.71 -3.27,-3.87 -2,-6.5c7.73,-4.53 15.4,-9.03 23,-13.5z" fill="#fcf8f7" id="svg_64"/>
   <path d="m553.83855,218.19276l3,0c0.14,3.59 0.81,7.09 2,10.5c-0.33,0.83 -0.67,1.67 -1,2.5c-8.02,2.34 -16.02,4.67 -24,7c-1.84,2.03 -2.34,4.36 -1.5,7c11.68,-2.64 23.18,-5.97 34.5,-10c0.59,0.21 1.09,0.54 1.5,1c1.34,4.68 2.67,9.35 4,14c0.85,-2.37 2.18,-4.37 4,-6c1.47,0.4 2.81,1.07 4,2c0.17,-0.5 0.33,-1 0.5,-1.5a49.15,49.15 0 0 1 -3,-12.5c1.76,0.14 3.43,-0.19 5,-1c3.66,12.65 7.32,25.32 11,38c-0.87,1.08 -1.87,1.25 -3,0.5c-5.42,-2.79 -10.58,-5.96 -15.5,-9.5c1.23,4.89 2.4,9.89 3.5,15a490.51,490.51 0 0 0 -30,7.5c-2,0.67 -4,0.67 -6,0a40.36,40.36 0 0 1 -4,-6.5c3.18,-5.56 5.85,-5.73 8,-0.5c1.44,0.78 2.78,0.61 4,-0.5a44.34,44.34 0 0 1 -2,-10l-12,3c-0.17,-2.36 -0.51,-4.69 -1,-7c3.33,-0.67 6.67,-1.33 10,-2c-0.08,-3.47 -0.74,-6.81 -2,-10a40.78,40.78 0 0 1 -12,2c1.8,13.19 5.47,25.86 11,38a21.15,21.15 0 0 1 -9,1c-2.99,-11.61 -5.82,-23.28 -8.5,-35c-0.24,-6.01 -0.24,-12.01 0,-18c-2.78,-1.43 -5.62,-2.76 -8.5,-4c0.8,-2.63 2.3,-4.63 4.5,-6c3,1.67 6,3.33 9,5c7.07,-2.19 14.23,-3.86 21.5,-5c-0.26,-2.44 -0.92,-4.77 -2,-7c1.45,-0.67 2.78,-1.34 4,-2z" fill="#fcf7f6" id="svg_65"/>
   <path d="m561.83855,243.19276l3,0c0.46,2.7 1.12,5.37 2,8c-0.33,1.67 -1.33,2.67 -3,3a37.89,37.89 0 0 1 -4,-9c0.74,-0.68 1.41,-1.35 2,-2z" fill="#cd7064" id="svg_66"/>
   <path d="m550.83855,246.19276l4,0c0.41,3.05 1.08,6.05 2,9c-1.24,0.86 -2.57,1.52 -4,2c-2.14,-3.53 -2.81,-7.19 -2,-11z" fill="#cb6a5f" id="svg_67"/>
   <path d="m580.83855,248.19276c2.07,2.96 2.91,6.29 2.5,10a46.94,46.94 0 0 1 -5.5,-3.5a81.57,81.57 0 0 1 3,-6.5z" fill="#ce7367" id="svg_68"/>
   <path d="m564.83855,260.19276c1.64,-0.21 3.14,0.12 4.5,1c0.83,2.67 1.67,5.34 2.5,8c-1.24,0.86 -2.57,1.52 -4,2a44.73,44.73 0 0 1 -3,-11z" fill="#cc6d61" id="svg_69"/>
   <path d="m556.83855,262.19276c3.21,2.8 4.55,6.46 4,11c-1.32,-0.17 -2.49,0.16 -3.5,1a27.68,27.68 0 0 1 -3.5,-11c1.29,0.24 2.29,-0.1 3,-1z" fill="#cd6f64" id="svg_70"/>
   <path d="m537.83855,291.19276c3.67,3.48 7,7.31 10,11.5c6.33,0.5 12.66,0.67 19,0.5l0,-9c2.42,-0.31 4.76,0.03 7,1c-0.95,5.27 -1.28,10.6 -1,16c-9.23,-0.97 -18.4,-0.97 -27.5,0c-3.18,4.86 -5.18,10.19 -6,16c-0.17,10.02 -0.67,20.02 -1.5,30a21.04,21.04 0 0 0 -7,-2c0.13,-11.73 0.96,-23.39 2.5,-35c2.13,-5.1 4.63,-9.93 7.5,-14.5c-1.56,-3.9 -4.23,-6.9 -8,-9c1.87,-1.7 3.54,-3.54 5,-5.5z" fill="#fdf8f8" id="svg_71"/>
   <path d="m40.83855,323.19276c-5.53,-0.32 -10.86,0.01 -16,1c0.58,4.31 0.91,8.64 1,13c2.93,0.96 5.93,1.63 9,2l0,-14l3,0c17.81,1.73 31.81,9.9 42,24.5a32.2,32.2 0 0 1 -4,5.5c-2.83,-3 -5.49,-6.16 -8,-9.5a85.66,85.66 0 0 0 -9,-6.5a29.85,29.85 0 0 0 -5,7.5l-4,0c2,1.67 4,3.33 6,5a51.08,51.08 0 0 0 -4,5.5c-7.19,-6.85 -15.69,-11.18 -25.5,-13c-0.26,4.33 -0.1,8.67 0.5,13l-7,0c-0.27,-19.72 -1.27,-39.39 -3,-59l7,0c0.27,6.34 0.6,12.67 1,19c6.32,-0.59 12.65,-1.09 19,-1.5c-3.85,-4.02 -7.85,-7.85 -12,-11.5c1.69,-1.86 3.19,-3.86 4.5,-6a178.28,178.28 0 0 1 14.5,16.5c5.99,0.5 11.99,0.67 18,0.5c0.17,-4.01 0,-8.01 -0.5,-12c-3,-1.41 -6.16,-2.41 -9.5,-3c1.1,-2.14 2.1,-4.31 3,-6.5c4.46,-0.07 8.63,1.1 12.5,3.5c1.51,7.27 1.85,14.6 1,22c-1.49,1.5 -3.32,2.34 -5.5,2.5c-9.67,0.47 -19.34,0.97 -29,1.5z" fill="#fcf7f7" id="svg_72"/>
   <path d="m590.83855,298.19276c1.65,1.93 3.32,3.93 5,6a97.22,97.22 0 0 1 -13.5,9c-1.87,-2.07 -2.87,-4.4 -3,-7c4.16,-2.32 8,-4.99 11.5,-8z" fill="#fcf6f6" id="svg_73"/>
   <path d="m595.83855,344.19276c-0.9,0.71 -1.24,1.71 -1,3l-12,0l0,10l-6,0l0,-10c-9.66,-0.58 -19.32,-1.08 -29,-1.5c-1.58,-0.71 -3.08,-1.54 -4.5,-2.5a49.78,49.78 0 0 1 -2.5,-13c2.67,-0.33 5.33,-0.67 8,-1c-0.28,2.95 0.06,5.78 1,8.5c8.96,1.17 17.96,1.67 27,1.5c0.67,-7.98 1,-15.98 1,-24l7,0c-0.91,8.29 -1.24,16.63 -1,25l12,0l0,4z" fill="#fcf7f7" id="svg_74"/>
   <path d="m569.83855,318.19276c2.94,1.55 3.94,3.88 3,7c-4.4,2.63 -9.07,4.13 -14,4.5c-1.55,-2.1 -1.88,-4.26 -1,-6.5c4.26,-1.3 8.26,-2.97 12,-5z" fill="#fcf8f7" id="svg_75"/>
   <path d="m24.83855,324.19276l9,0c-0.31,3.21 0.02,6.21 1,9l0,6c-3.07,-0.37 -6.07,-1.04 -9,-2c-0.09,-4.36 -0.42,-8.69 -1,-13z" fill="#ca665a" id="svg_76"/>
   <path d="m24.83855,324.19276c5.14,-0.99 10.47,-1.32 16,-1c-1,0.67 -2,1.33 -3,2l-3,0l0,8c-0.98,-2.79 -1.31,-5.79 -1,-9l-9,0z" fill="#e0a69f" id="svg_77"/>
   <path d="m40.83855,332.19276c3.61,1.2 7.28,2.2 11,3c-0.78,3.63 -2.28,6.96 -4.5,10a28.78,28.78 0 0 0 -6,-4c-0.5,-2.98 -0.66,-5.98 -0.5,-9z" fill="#ca685c" id="svg_78"/>
   <path d="m595.83855,344.19276l0,4c-1.91,0.28 -3.58,-0.05 -5,-1l4,0c-0.24,-1.29 0.1,-2.29 1,-3z" fill="#e5b6b0" id="svg_79"/>
   <path d="m240.83855,545.19276c9.32,-2.25 16.15,0.75 20.5,9c1.28,7.34 -1.22,13 -7.5,17c10.88,6.8 12.88,15.64 6,26.5c-7.13,4.68 -14.8,5.68 -23,3c-7.42,-4.34 -9.59,-10.51 -6.5,-18.5c2.28,-3.07 5.12,-5.57 8.5,-7.5c-6.85,-5.21 -9.35,-12.04 -7.5,-20.5c2.41,-3.91 5.57,-6.91 9.5,-9z" fill="#090303" id="svg_80"/>
   <path d="m279.83855,545.19276c13.09,-2.05 21.26,3.29 24.5,16c1.52,22.98 -8.98,36.65 -31.5,41c-0.26,-1.48 0.07,-2.81 1,-4c9.95,-3.44 16.12,-10.11 18.5,-20c-14.13,4.35 -22.3,-0.82 -24.5,-15.5c0.71,-8.19 4.71,-14.02 12,-17.5z" fill="#0b0403" id="svg_81"/>
   <path d="m337.83855,545.19276l5,0l0,4c-12.61,1.78 -20.11,8.78 -22.5,21c0.9,-1.2 2.07,-2.03 3.5,-2.5c9.32,-2.75 16.15,0.09 20.5,8.5c2.67,21 -6.16,28.83 -26.5,23.5c-12.32,-15.19 -11.99,-30.19 1,-45c5.62,-4.81 11.95,-7.97 19,-9.5z" fill="#080303" id="svg_82"/>
   <path d="m371.83855,545.19276l7,0l0,33l8,0l0,7l-8,0l0,16l-9,0l0,-16l-21,0c-0.16,-2.36 0,-4.69 0.5,-7a454.9,454.9 0 0 0 22.5,-33z" fill="#040101" id="svg_83"/>
   <path d="m242.83855,550.19276c9.82,-0.05 12.99,4.61 9.5,14c-0.95,1.96 -2.29,3.62 -4,5c-9.58,-4.41 -11.41,-10.75 -5.5,-19zm40,0c5.51,-1.39 9.01,0.61 10.5,6c1.61,5.29 1.77,10.63 0.5,16c-7.05,3.84 -12.22,2.17 -15.5,-5c-1.62,-6.62 -0.12,-12.28 4.5,-17z" fill="#c16054" id="svg_84"/>
   <path d="m368.83855,557.19276c0.99,6.81 1.32,13.81 1,21c-4.71,0.33 -9.38,-0.01 -14,-1c4.85,-6.38 9.19,-13.05 13,-20zm-47,16c3.02,-0.16 6.02,0 9,0.5c1.83,0.5 3,1.67 3.5,3.5c2.75,7.27 1.58,13.77 -3.5,19.5c-4.62,1.54 -7.79,0.04 -9.5,-4.5c-3.23,-6.67 -3.06,-13.01 0.5,-19zm-79,4c8.62,1.44 12.45,6.44 11.5,15c-2.44,4.72 -6.27,6.22 -11.5,4.5c-1.43,-0.47 -2.6,-1.3 -3.5,-2.5c-2.85,-6.6 -1.68,-12.27 3.5,-17z" fill="#c36155" id="svg_85"/>
   <use y="-0.82104" id="svg_86" transform="translate(110.561 147.161) scale(1.59218 1.59218)" x="7.74739" xlink:href="#a"/>
  </g>
 </g>
</svg>