<?xml version="1.0"?>
<svg width="640" height="480" xmlns="http://www.w3.org/2000/svg" xmlns:svg="http://www.w3.org/2000/svg" xmlns:xlink="http://www.w3.org/1999/xlink">
 <!-- Created with SVG-edit - https://github.com/SVG-Edit/svgedit-->
 <defs>
  <symbol height="800px" id="svg_33" viewBox="0 0 46.132 46.132" width="800px" xmlns="http://www.w3.org/2000/svg" xmlns:xlink="http://www.w3.org/1999/xlink">
   <g id="svg_32">
    <g id="svg_38">
     <path d="m41.02,0.36c-0.24,-0.34 -0.69,-0.46 -1.07,-0.28c-4.75,2.27 -11.7,6.93 -16.95,16.07c3.04,4.61 5.68,10.56 7.06,18.12c0.18,-7.56 1.68,-23.86 10.85,-32.81c0.3,-0.29 0.35,-0.75 0.11,-1.1z" id="svg_39"/>
     <path d="m9.67,6.91c-0.14,-0.1 -0.3,-0.14 -0.46,-0.14c-0.23,0 -0.46,0.09 -0.63,0.27c-0.28,0.31 -0.3,0.77 -0.04,1.1c9.25,11.85 6.68,32.3 5.94,37.01c-0.04,0.24 0.03,0.49 0.19,0.68c0.17,0.19 0.4,0.3 0.65,0.3l11.91,0c0.23,0 0.45,-0.09 0.61,-0.25s0.24,-0.38 0.24,-0.61c-0.27,-23.03 -11.58,-33.89 -18.41,-38.36z" id="svg_40"/>
     <path d="m2.46,27.55c-0.16,-0.1 -0.38,-0.08 -0.52,0.07c-0.13,0.14 -0.14,0.36 -0.02,0.52c4.39,5.62 3.18,15.31 2.82,17.54c-0.02,0.12 0.02,0.23 0.09,0.32c0.08,0.09 0.19,0.13 0.31,0.13l5.65,0c0.1,0 0.21,-0.03 0.28,-0.11s0.12,-0.17 0.12,-0.28c-0.13,-10.92 -5.49,-16.07 -8.73,-18.19z" id="svg_41"/>
     <path d="m44.15,20.59c-0.19,-0.2 -0.49,-0.24 -0.72,-0.09c-4.46,2.92 -11.85,10.03 -12.04,25.09c0,0.14 0.06,0.28 0.16,0.39c0.11,0.1 0.25,0.15 0.4,0.15l7.79,0c0.16,0 0.31,-0.06 0.42,-0.18c0.1,-0.13 0.15,-0.29 0.13,-0.45c-0.49,-3.08 -2.16,-16.44 3.89,-24.19c0.16,-0.22 0.15,-0.52 -0.03,-0.72z" id="svg_42"/>
    </g>
   </g>
  </symbol>
 </defs>
 <g class="layer">
  <title>Layer 1</title>
  <rect fill="#ffffaa" height="478" id="svg_1" stroke="#000000" width="639" x="0.67" y="1.33">广告，50元一次</rect>
  <text fill="#ff0000" font-family="Serif" font-size="24" id="svg_2" stroke="#000000" stroke-width="0" text-anchor="middle" transform="matrix(3.23335 0 0 3.23335 -151.125 -93.0452)" x="146.84" xml:space="preserve" y="54.29">清明节快乐</text>
  <text fill="#ffff00" font-family="Serif" font-size="24" id="svg_3" stroke="#000000" stroke-width="0" text-anchor="middle" transform="matrix(1 0 0 1 0 0) matrix(0.406417 0 0 0.406417 395.314 273.002)" x="287.52" xml:space="preserve" y="485.36">不管欢度还是扫墓，能拉动经济的就是好节——louiesu</text>
  <text fill="#ffff00" font-family="Serif" font-size="24" id="svg_4" stroke="#000000" stroke-width="0" text-anchor="middle" x="61.67" xml:space="preserve" y="163.33"/>
  <g id="svg_9" transform="rotate(-16.7809 159.083 157.028)">
   <text fill="#ff0000" font-family="Serif" font-size="24" id="svg_5" stroke="#000000" stroke-width="0" text-anchor="middle" x="102.33" xml:space="preserve" y="134.17">工人日报</text>
   <text fill="#ff0000" font-family="Serif" font-size="24" id="svg_6" stroke="#000000" stroke-width="0" text-anchor="middle" transform="matrix(0.624915 0 0 0.624915 -26.9958 66.7914)" x="250.96" xml:space="preserve" y="147.96">踏青出游热度持续攀升</text>
   <text fill="#ff0000" font-family="Serif" font-size="24" id="svg_7" stroke="#000000" stroke-width="0" text-anchor="middle" transform="matrix(0.677067 0 0 0.677067 19.2611 67.6328)" x="171.43" xml:space="preserve" y="162.28">本地消费市场人气旺盛</text>
   <text fill="#ff0000" font-family="Serif" font-size="24" id="svg_8" stroke="#000000" stroke-width="0" text-anchor="middle" transform="matrix(0.653242 0 0 0.653242 -11.206 80.9195)" x="261.83" xml:space="preserve" y="180.08">清明小长假“别样经济”来袭</text>
  </g>
  <g id="svg_10">
   <g id="svg_15" transform="rotate(33.7262 455.659 173.626)">
    <text fill="#ff0000" font-family="Serif" font-size="24" id="svg_11" stroke="#000000" stroke-width="0" text-anchor="middle" transform="matrix(0.957416 -0.288713 0.288713 0.957416 -54.3808 83.7058)" x="431.51" xml:space="preserve" y="201.97">央视网</text>
    <text fill="#ff0000" font-family="Serif" font-size="24" id="svg_12" stroke="#000000" stroke-width="0" text-anchor="middle" transform="matrix(0.598303 -0.180421 0.180421 0.598303 -65.0365 166.238)" x="758.94" xml:space="preserve" y="236.11">清明假期临近</text>
    <text fill="#ff0000" font-family="Serif" font-size="24" id="svg_13" stroke="#000000" stroke-width="0" text-anchor="middle" transform="matrix(0.648235 -0.195478 0.195478 0.648235 4.53147 148.324)" x="636.82" xml:space="preserve" y="244.7">消费市场“燃起来”</text>
    <text fill="#ff0000" font-family="Serif" font-size="24" id="svg_14" stroke="#000000" stroke-width="0" text-anchor="middle" transform="matrix(0.625424 -0.188599 0.188599 0.625424 -52.3278 177.4)" x="744.32" xml:space="preserve" y="267.85">释放更多内需潜力</text>
   </g>
  </g>
  <g id="svg_16" transform="rotate(-16.8125 326.665 248.909)">
   <g id="svg_17">
    <text fill="#ff0000" font-family="Serif" font-size="24" id="svg_18" stroke="#000000" stroke-width="0" text-anchor="middle" transform="matrix(0.956584 0.291458 -0.291458 0.956584 101.024 -88.9747)" x="287.15" xml:space="preserve" y="243.87">交汇点</text>
    <text fill="#ff0000" font-family="Serif" font-size="24" id="svg_19" stroke="#000000" stroke-width="0" text-anchor="middle" transform="matrix(0.597783 0.182136 -0.182136 0.597783 50.1357 -59.4362)" x="520.9" xml:space="preserve" y="355.79">“清明经济”</text>
    <text fill="#ff0000" font-family="Serif" font-size="24" id="svg_21" stroke="#000000" stroke-width="0" text-anchor="middle" transform="rotate(33.7262 328.179 271.762) matrix(0.625424 -0.188599 0.188599 0.625424 -52.3278 177.4)" x="515.98" xml:space="preserve" y="315.15">折射消费活力强复苏</text>
   </g>
  </g>
  <g id="svg_31">
   <rect fill="#00ff00" height="39" id="svg_20" stroke="#000000" width="95" x="70.67" y="308.33">体验扫墓！</rect>
   <text fill="#0000ff" font-family="Serif" font-size="24" id="svg_22" stroke="#000000" stroke-width="0" text-anchor="middle" transform="matrix(0.862708 0 0 0.862708 38.3311 39.4883)" x="95.44" xml:space="preserve" y="333.9">体验扫墓！</text>
   <text fill="#000000" font-family="Serif" font-size="24" id="svg_28" stroke="#000000" stroke-width="0" style="cursor: move;" text-anchor="middle" transform="matrix(0.351513 0 0 0.351513 178.902 184.393)" x="-135.8" xml:space="preserve" y="445.34">广告，54元一次</text>
  </g>
  <g id="svg_43" transform="matrix(1 0 0 1 0 0)">
   <rect fill="#7f7f7f" height="29" id="svg_23" stroke="#000000" width="117" x="13.33" y="447.17"/>
   <rect fill="#7f7f7f" height="83" id="svg_24" stroke="#000000" width="74" x="36.33" y="363.17"/>
   <rect fill="#7f3f00" height="48" id="svg_25" stroke="#000000" width="6" x="116.33" y="399.17"/>
   <rect fill="#7f3f00" height="48" id="svg_26" stroke="#000000" width="6" x="22" y="398"/>
   <path d="m140.34,391.27l-2.63,0.15l-0.7,3.54l-2.33,-0.86l-3.38,2.72l-1.29,-1.58l-10.83,6.78l6.02,-7.56l-5,-0.98l1.56,-1.46l-3.43,-2.68l2.47,-0.65l-0.78,-3.53l2.58,0.37l2.13,-3.26l1.88,1.27l4.35,-1.95l0.58,1.77l5.2,-0.02l-0.9,1.71l4.39,1.91l-2.1,1.1l2.19,3.24l0.02,-0.03z" fill="#bfbfbf" id="svg_27" stroke="#7f7f7f"/>
   <path d="m7,391.48l2.39,0.15l0.64,3.54l2.12,-0.86l3.07,2.72l1.17,-1.58l9.84,6.78l-5.47,-7.56l4.54,-0.98l-1.42,-1.46l3.12,-2.68l-2.24,-0.65l0.7,-3.53l-2.35,0.37l-1.93,-3.26l-1.71,1.27l-3.96,-1.95l-0.53,1.77l-4.72,-0.02l0.82,1.71l-3.99,1.91l1.91,1.1l-1.99,3.24l-0.01,-0.03z" fill="#bfbfbf" id="svg_29" stroke="#7f7f7f">“清明经济”</path>
   <text fill="#ffffff" font-family="Serif" font-size="24" id="svg_30" stroke="#7f7f7f" stroke-width="0" text-anchor="middle" transform="matrix(3.125 0 0 3.125 -219.583 -672.831)" x="93.57" xml:space="preserve" y="354.13">奠</text>
   <use fill="#00ff7f" id="svg_34" transform="matrix(0.0422699 0 0 0.065062 367.468 425.566)" x="-8378.2" xlink:href="#svg_33" y="-38.58">广告，50元折射消费活力强复苏一次</use>
   <use fill="#00ff7f" id="svg_35" transform="matrix(0.0422699 0 0 0.065062 367.468 425.566)" x="-6364.85" xlink:href="#svg_33" y="-45.54">广告，50元折射消费活力强复苏一次</use>
   <use fill="#00ff7f" id="svg_36" transform="matrix(0.0422699 0 0 0.065062 367.468 425.566)" x="-7098.23" xlink:href="#svg_33" y="-45.54">广告，50元折射消费活力强复苏一次</use>
   <use fill="#00ff7f" id="svg_37" transform="matrix(0.0422699 0 0 0.065062 367.468 425.566)" x="-7807.96" xlink:href="#svg_33" y="-45.54">广告，50元折射消费活力强复苏一次</use>
  </g>
  <g id="svg_47">
   <rect fill="#ff007f" height="47" id="svg_44" stroke="#000000" width="112" x="253.33" y="321.17"/>
   <text fill="#aaffd4" font-family="Serif" font-size="24" id="svg_45" stroke="#000000" stroke-width="0" text-anchor="middle" transform="matrix(0.906846 0 0 0.906846 41.359 51.7886)" x="298.81" xml:space="preserve" y="321.81">网红青团！</text>
   <text fill="#aaffaa" font-family="Serif" font-size="24" id="svg_46" stroke="#000000" stroke-width="0" text-anchor="middle" transform="matrix(0.446347 0 0 0.446347 184.976 198.88)" x="332.38" xml:space="preserve" y="360.65">114元6个</text>
  </g>
  <ellipse cx="324.33" cy="425.17" fill="#d4ffaa" id="svg_48" rx="68" ry="46" stroke="#000000">网红青团！</ellipse>
  <ellipse cx="321.33" cy="418.17" fill="#7f3f00" id="svg_49" rx="49" ry="30" stroke="#000000"/>
  <ellipse cx="329.33" cy="421.17" fill="#ffff00" id="svg_50" rx="23" ry="16" stroke="#000000"/>
 </g>
</svg>