<?xml version="1.0"?>
<svg width="640" height="480" xmlns="http://www.w3.org/2000/svg" xmlns:svg="http://www.w3.org/2000/svg" xmlns:xlink="http://www.w3.org/1999/xlink">
 <!-- Created with SVG-edit - https://github.com/SVG-Edit/svgedit-->
 <defs>
  <symbol height="32" id="svg_2" width="32" xmlns="http://www.w3.org/2000/svg" xmlns:svg="http://www.w3.org/2000/svg">
   <g class="layer" id="svg_16">
    <title>Layer 1</title>
    <path d="m31.71,30.28l-9.72,-9.77c1.81,-2.17 2.9,-4.96 2.9,-8.01c0,-6.9 -5.59,-12.5 -12.5,-12.5s-12.5,5.6 -12.5,12.5s5.6,12.5 12.5,12.5c3.14,0 6,-1.16 8.2,-3.07l9.7,9.77c0.39,0.39 1.03,0.39 1.42,0s0.39,-1.03 0,-1.42zm-19.32,-7.26c-5.8,0 -10.51,-4.71 -10.51,-10.52s4.7,-10.52 10.51,-10.52c5.81,0 10.52,4.71 10.52,10.52s-4.71,10.52 -10.52,10.52z" id="svg_1"/>
   </g>
  </symbol>
  <symbol height="612" id="svg_20" width="612" xmlns="http://www.w3.org/2000/svg" xmlns:svg="http://www.w3.org/2000/svg">
   <g class="layer" id="svg_22">
    <title>Layer 1</title>
    <g id="svg_18">
     <path d="m216.02,611.2c5.98,3.17 12.28,-3.71 8.62,-9.4c-19.86,-30.92 -38.67,-82.95 -8.7,-149.96c49.98,-111.73 80.39,-169.61 80.39,-169.61s16.18,67.54 60.03,127.59c42.21,57.79 65.31,130.48 28.07,191.03c-3.5,5.68 2.67,12.39 8.6,9.35c46.1,-23.58 97.81,-70.89 103.64,-165.02c2.15,-28.76 -1.07,-69.03 -17.2,-119.85c-20.74,-64.41 -46.24,-94.46 -60.99,-107.37c-4.42,-3.86 -11.28,-0.43 -10.92,5.42c4.3,69.49 -21.84,87.13 -36.72,47.38c-5.95,-15.87 -9.41,-43.33 -9.41,-76.76c0,-55.67 -16.15,-112.97 -51.76,-159.53c-9.26,-12.11 -20.09,-23.43 -32.52,-33.08c-4.5,-3.49 -11.02,0.02 -10.61,5.7c2.73,37.74 0.25,145.89 -94.63,275.09c-86.03,119.85 -52.69,211.9 -40.86,236.83c22.62,47.76 54.16,75.8 84.97,92.19z" fill="#ff0000" id="svg_19"/>
    </g>
   </g>
  </symbol>
  <symbol height="800px" id="svg_23" viewBox="0 0 512 512" width="800px" xmlns="http://www.w3.org/2000/svg" xmlns:xlink="http://www.w3.org/1999/xlink">
   <g id="svg_25">
    <g id="svg_31">
     <g id="svg_32">
      <path d="m511.68,74.4c-0.56,0.64 -1.27,1.2 -1.9,1.9c-0.63,0.56 -1.26,1.19 -1.89,1.82c-0.56,0.57 -1.06,1.13 -1.62,1.69l-2.1,2.1c-4.92,4.92 -9.27,9.27 -9.27,9.27s-8.35,-5.41 -17.9,-11.93c-9.55,-6.6 -20.29,-14.39 -25.06,-19.17c-19.94,-19.86 -26.54,-45.91 -15.31,-58.75c0.28,-0.36 0.63,-0.71 0.92,-0.99c0,0 20.35,-2.24 39.17,4.78c1.54,0.56 3.02,1.19 4.49,1.89c5.12,2.32 9.97,5.41 14.18,9.62c4.14,4.14 7.3,9.06 9.62,14.18c0.7,1.47 1.33,2.95 1.89,4.49c6.95,18.82 4.78,39.1 4.78,39.1z" fill="#636360" id="svg_33"/>
      <path d="m505.7,55.98c-2.32,2.1 -1.68,4.91 0.32,8.04c1.87,-2.19 4.78,-4.16 -0.32,-8.04z" fill="#E45C5B" id="svg_34"/>
      <path d="m459.7,47.3c7.49,9.97 4.29,-3.41 0,0l0,0z" fill="#E45C5B" id="svg_35"/>
      <path d="m455.98,35.39c-5.92,-5.29 -12.77,-12.62 -15.41,-5.03c13.4,5.07 12.6,9.07 25.11,10.99c0.73,-3.28 1.46,-6.56 2.19,-9.81c-6.49,-10.97 -6.51,4.66 -11.89,3.85z" fill="#4B4A4A" id="svg_36"/>
      <path d="m495.79,66.65c5.51,-2.42 -3.3,-8.24 2.21,-10.65c-5.79,-4.18 -11.51,-8.05 -15.64,-5.35c-1.01,4.43 7.52,14.61 13.43,16z" fill="#4B4A4A" id="svg_37"/>
      <path d="m473.59,21.6c-0.47,-3.79 6.61,1.07 6.73,-2.07c-3.85,-7.03 -14.65,-3.58 -6.73,2.07z" fill="#E45C5B" id="svg_38"/>
      <path d="m495.07,28.77c2.32,-3.31 -9.95,-18.2 -15.54,-18.13c3.21,4.65 11.56,18.58 15.54,18.13z" fill="#4B4A4A" id="svg_39"/>
      <path d="m472.64,58.97c4.74,2.29 10.83,2.29 5.16,-5.16c-1.42,0.17 -10.2,-0.26 -5.16,5.16z" fill="#E45C5B" id="svg_40"/>
      <path d="m486.66,33.2c7.5,9.97 4.29,-3.41 0,0l0,0z" fill="#B98A89" id="svg_41"/>
      <path d="m477.68,75.6c1.4,1.4 2.8,2.8 4.2,4.2c0.86,-0.86 1.72,-1.72 2.57,-2.58c-1.4,-1.4 -2.8,-2.8 -4.2,-4.2c-0.85,0.86 -1.71,1.72 -2.57,2.58z" fill="#BBB28B" id="svg_42"/>
      <path d="m489.46,45.57c-3.45,-3.18 -7.12,-7.46 -8.9,-3.72c3.56,3.69 6.39,4.39 8.9,3.72z" fill="#4B4A4A" id="svg_43"/>
      <path d="m461.59,7.73c-10.15,-5.54 9.29,7.99 0,0l0,0z" fill="#E45C5B" id="svg_44"/>
      <path d="m498.04,48.8c4.5,-0.8 0.32,-11.23 -3.73,-8.87c3.22,3.43 -1.61,4.94 3.73,8.87z" fill="#BBB28B" id="svg_45"/>
      <path d="m440.94,4.78c9.48,8.42 18.19,13.71 26.17,15.89c-9.8,-9.76 -17.81,-12.1 -26.17,-15.89z" fill="#BBB28B" id="svg_46"/>
      <path d="m486.71,73.03c5.77,4.19 11.51,8.06 15.64,5.36c-6.26,-6.08 -12.3,-11.39 -15.64,-5.36z" fill="#B98A89" id="svg_47"/>
     </g>
     <path d="m215.85,348.4c0,2.39 -0.14,4.84 -0.56,7.23c-1.41,10.95 -6.32,21.48 -14.67,29.83l-60.1,60.1l-15.02,15.09l-0.07,0l-7.51,7.58l-0.07,0l-9.13,9.13c-12,12 -28.57,16.99 -44.22,14.74c-10.95,-1.41 -21.55,-6.39 -29.91,-14.74c-8.42,-8.43 -13.34,-19.03 -14.81,-29.98c-0.35,-2.32 -0.49,-4.7 -0.49,-7.02c0,-13.48 5.12,-26.89 15.3,-37.06l91.89,-91.9c8.36,-8.35 18.96,-13.27 29.91,-14.67c0.49,-0.14 0.91,-0.21 1.4,-0.28c1.9,-0.21 3.8,-0.28 5.69,-0.28l0.07,0c1.69,0 3.37,0.07 5.05,0.21l0.07,0c3.66,0.42 7.31,1.12 10.89,2.25c7.58,2.38 14.67,6.52 20.63,12.42l0.36,0.35l0.07,0l0.35,0.42c2.45,2.39 4.49,5.06 6.31,7.79c0,0 0,0.07 0.07,0.07c1.41,2.18 2.67,4.43 3.66,6.81c0.98,1.97 1.75,3.93 2.38,6.04c1.13,3.51 1.9,7.16 2.25,10.81c0.14,1.69 0.21,3.37 0.21,5.06z" fill="#7A633E" id="svg_48"/>
     <g id="svg_49">
      <path d="m234.24,351.84l-93.72,93.72l-15.02,15.09l-0.07,0l-7.51,7.58l-0.07,0l-38.61,38.61l-4.14,4.22c-1.9,1.82 -5.97,0.84 -9.06,-2.18l-31.45,-31.45c0,0 0,0 0,-0.07l-31.45,-31.45c-3.09,-3.09 -4.07,-7.09 -2.17,-8.99l4.21,-4.14l29.41,-29.48l91.89,-91.9l22.68,-22.6l5.55,-5.62l5.4,-5.4c1.9,-1.9 5.97,-0.92 8.99,2.17l31.1,31.1l0.35,0.35l0.07,0l0.35,0.42l8.49,8.43l22.61,22.6c3.09,3.09 4.07,7.16 2.17,8.99z" fill="#7A633E" id="svg_50"/>
      <path d="m59.4,409.81c4.47,3.04 9.4,8.07 13.1,7.93c-4.54,-3.41 -10.93,-14.43 -13.1,-7.93z" fill="#887445" id="svg_51"/>
      <path d="m105.51,388.93c6.69,-7.75 -10.69,-11.93 0,0l0,0z" fill="#887445" id="svg_52"/>
      <path d="m155.81,292.4c-0.71,5.58 11.32,8.47 6.76,1.63c-1.71,1.67 -4.86,-2.5 -6.76,-1.63z" fill="#887445" id="svg_53"/>
      <path d="m51.21,422.21c2.45,3.26 2.17,5.85 7.11,9.71c3.56,-2.35 4.36,-5.36 0.96,-9.36c-1.91,3.16 -5.4,-0.28 -8.07,-0.35z" fill="#887445" id="svg_54"/>
      <path d="m87.41,373.4c4.01,3.42 9.23,11.83 10.98,5.85c-4.42,-5.15 -8.21,-7.59 -10.98,-5.85z" fill="#887445" id="svg_55"/>
      <path d="m24.43,423.77c9.53,11.63 17.84,16.83 18.44,23.59c6.61,3.02 -2.12,-11.02 -1.97,-14.84c5.98,7.16 9.48,3.95 12.75,-0.14c-7.24,-8.05 -13.89,-13.48 -20.2,-17.63c-3.02,3.02 -6.02,6.02 -9.02,9.02z" fill="#887445" id="svg_56"/>
      <path d="m209.47,320.28l8.47,8.47c0.01,0.76 -0.02,1.59 -0.09,2.5c-9.6,-12.94 -11.07,3.31 -7.74,7.74c-13.46,-8.63 -19.67,-6.08 -27.8,-22.66c3.11,-2.57 9.47,8.4 13.9,11.34c5.87,-6.69 3.13,-5.54 4.83,-13.23c2.59,4.1 5.64,5.26 8.43,5.84z" fill="#887445" id="svg_57"/>
      <path d="m125.47,460.63l-7.58,7.57c-8.36,-4.15 -16.59,-7.74 -25.8,-15.4c10.31,-0.84 21.1,0.41 33.38,7.83z" fill="#887445" id="svg_58"/>
      <path d="m101.17,477.33c-9.39,-0.75 10.17,3.94 0,0l0,0z" fill="#887445" id="svg_59"/>
      <path d="m170.03,354.32c4.04,-2.73 -1.06,-7.69 -4.53,-12.25c-6.05,2.28 5.05,8.65 4.53,12.25z" fill="#887445" id="svg_60"/>
      <path d="m164.06,353.48c6.11,1.04 15.11,14.15 19.87,9.57c-17.35,-17.87 -49.55,-31.32 -71.84,-33.22c15.79,8.86 26.46,14.01 39.24,23.79c-1.97,2.91 -5.2,0.48 -7.26,3.06c5.03,0.9 9.45,5.95 17.77,7.45c-4.03,-4.68 5.09,-6.22 2.22,-10.65z" fill="#887445" id="svg_61"/>
      <path d="m108.57,424.23c9.76,12.57 6.4,-1.42 0,0l0,0z" fill="#887445" id="svg_62"/>
      <path d="m135.2,435.44l7.73,7.73l-2.4,2.4c-2.33,-1.23 -5.35,-5.4 -7.9,-7.56l2.57,-2.57z" fill="#887445" id="svg_63"/>
      <path d="m155.53,360.44c5.25,4.47 -1.39,6.07 2.44,10.19c6.95,3.65 3.32,-11.38 -2.44,-10.19z" fill="#887445" id="svg_64"/>
      <path d="m161.09,396.9c5.86,6.34 15.93,7.25 9.35,-0.94c-1.56,6.78 -7.77,-5.8 -9.35,0.94z" fill="#887445" id="svg_65"/>
     </g>
     <path d="m228.84,356.54c0.14,0.21 0.14,0.49 0,0.7l-5.62,5.62c-0.21,0.21 -0.49,0.21 -0.7,0l-73.36,-73.36c-0.21,-0.21 -0.21,-0.56 0,-0.7l5.55,-5.62c0.21,-0.21 0.56,-0.21 0.77,0l13.13,13.2l0.07,0l23.44,23.45l5.83,5.82l30.89,30.89z" fill="#F7F1D7" id="svg_66"/>
     <path d="m507.89,78.12c0,0.07 0,0.15 0,0.15l-1.62,1.54l-2.1,2.1c-4.92,4.92 -9.27,9.27 -9.27,9.27l-260.66,260.66l-0.77,0.77l-20.08,-20.08l-4.14,-4.21l-8.91,-8.84l-3.94,-3.93l-16.84,-16.92l-20.15,-20.15l277.15,-277.16l0.07,0c12.29,4.85 25.06,8.71 34.68,18.47c8.36,8.49 5.97,12.91 3.58,17.34c-2.39,4.42 -4.7,8.84 3.58,17.27c7.37,7.44 15.24,12.77 24.64,16.42c2.67,0.99 4.43,6.32 4.78,7.3z" fill="#F4F4F5" id="svg_67"/>
    </g>
    <path d="m495.38,16.61l0,0l-460.77,460.78l0,0c0,0 0,0.01 0.01,0.01l31.45,31.46c3.08,3.07 7.12,4.04 9,2.16l42.82,-42.82l0,0l7.58,-7.57l15.05,-15.06l2.41,-2.41l0,0l91.3,-91.29c0,-0.01 0,-0.01 0,-0.01l260.67,-260.67c0,0 5.71,-5.71 11.36,-11.36l1.6,-1.6c1.32,-1.32 2.62,-2.62 3.79,-3.8c0,0 2.23,-20.31 -4.74,-39.16c-2.49,-6.74 -6.16,-13.29 -11.53,-18.66z" fill="#040000" id="svg_68" opacity="0.07"/>
   </g>
  </symbol>
 </defs>
 <g class="layer">
  <title>Layer 1</title>
  <rect fill="#bfbfbf" height="485" id="svg_17" stroke="#cccccc" width="640" x="-0.33" y="-0.67"/>
  <g id="svg_14">
   <ellipse cx="491.67" cy="71.33" fill="#FF0000" id="svg_7" rx="40" ry="40" stroke="#ff0000"/>
   <line fill="none" id="svg_8" stroke="#ff0000" x1="437.67" x2="452.67" y1="5.33" y2="26.33"/>
   <line fill="none" id="svg_9" stroke="#ff0000" x1="523.67" x2="514.67" y1="4.33" y2="23.33"/>
   <line fill="none" id="svg_10" stroke="#ff0000" x1="445.67" x2="427.67" y1="75.33" y2="93.33"/>
   <line fill="none" id="svg_11" stroke="#ff0000" x1="480.67" x2="478.67" y1="108.33" y2="130.33"/>
   <line fill="none" id="svg_12" stroke="#ff0000" x1="526.67" x2="550.67" y1="103.33" y2="120.33"/>
   <line fill="none" id="svg_13" stroke="#ff0000" x1="536.67" x2="559.67" y1="69.33" y2="64.33"/>
  </g>
  <g id="svg_15">
   <g id="svg_6">
    <ellipse cx="444.15" cy="189.1" fill="#ff7f00" id="svg_4" rx="43.5" ry="29.5" stroke="#ff7f00" transform="matrix(-1.17318 -0.608632 0.536454 -1.03406 803.851 628.253)"/>
    <path d="m389.78,150.61l-55.06,182.38l-55.06,-182.38l110.12,0z" fill="#ff7f00" id="svg_5" stroke="#ff7f00" transform="rotate(32.0264 334.72 241.801)"/>
   </g>
   <use id="svg_3" transform="rotate(30.0401 395.885 180.917) matrix(5 0 0 2.95633 0 60.4925)" x="63.23" xlink:href="#svg_2" y="24.74"/>
  </g>
  <use id="svg_24" transform="matrix(1 0 0 1 0 0) matrix(-0.124957 0 0 0.162444 243.273 157.494)" x="-1106.06" xlink:href="#svg_23" y="892.78"/>
  <use id="svg_21" transform="matrix(0.115355 0 0 0.115355 103.374 122.929)" x="1324.84" xlink:href="#svg_20" y="1179.25"/>
  <text fill="#ffff00" font-family="Serif" font-size="24" id="svg_26" stroke="#000000" stroke-opacity="0" stroke-width="0" text-anchor="middle" transform="matrix(1 0 0 1 0 0)" x="136.67" xml:space="preserve" y="68.33">Today&#x27;s Beijing, 1976</text>
  <text fill="#ffff00" font-family="Serif" font-size="24" id="svg_27" stroke="#cccccc" stroke-width="0" text-anchor="middle" x="187.67" xml:space="preserve" y="104.33">Latest Chinese Techonology!!!</text>
  <text fill="#ffff00" font-family="Serif" font-size="24" id="svg_28" stroke="#cccccc" stroke-width="0" text-anchor="middle" transform="matrix(1.83334 0 0 1.83334 -15.5561 -106.339)" x="96.67" xml:space="preserve" y="148.33">Solar Lighter</text>
  <text fill="#ffff00" font-family="Serif" font-size="24" id="svg_29" stroke="#cccccc" stroke-width="0" text-anchor="middle" transform="matrix(1.83334 0 0 1.83334 -15.5561 -106.339)" x="96.48" xml:space="preserve" y="177.55">!!!!!!!!!!!</text>
  <path d="m313.32,163.18l4.57,-4.58l-8.83,0l-8.83,0l0,-2.84l0,-2.84l8.73,0c4.8,0 8.73,-0.14 8.73,-0.32c0,-0.18 -1.91,-2.24 -4.25,-4.58l-4.25,-4.26l3.93,0l3.93,0l5.99,6.01l5.99,6.01l-6.01,5.99l-6.01,5.99l-4.13,0l-4.13,0l4.57,-4.58l0,0.01z" fill="#ff0000" id="svg_30" stroke="#cccccc"/>
  <text fill="#ffff00" font-family="Serif" font-size="24" id="svg_69" stroke="#cccccc" stroke-width="0" text-anchor="middle" transform="matrix(1 0 0 1 0 0) matrix(1.23293 0 0 1.23293 -1.7946 -106.838)" x="254.38" xml:space="preserve" y="463.17">I&#x27;m really proud of my Country!!!</text>
 </g>
</svg>