<?xml version="1.0"?>
<svg width="256" height="256" xmlns="http://www.w3.org/2000/svg" xmlns:svg="http://www.w3.org/2000/svg" clip-rule="evenodd" fill-rule="evenodd" version="1.1">
 <g class="layer">
  <title>Layer 1</title>
  <g id="svg_37">
   <g id="svg_3">
    <path d="m37.8,47.53c11.93,-0.84 19.64,4.37 23.12,15.65c-2.7,3.37 -4.07,7.22 -4.08,11.57c8.09,0.35 16.03,-0.55 23.81,-2.72c4.25,1.32 8.1,3.13 11.57,5.44c-11.84,5.92 -24.55,9.77 -38.09,11.57c-4.29,3.14 -8.37,6.54 -12.25,10.2c-2.67,4.71 -6.06,8.79 -10.2,12.25c-0.91,2.28 -0.91,4.53 0,6.81c5.99,10.76 10.3,22.32 12.92,34.69c-1,4.76 -1.9,9.52 -2.72,14.28c-5.66,-1.56 -9.74,-5.2 -12.25,-10.89c-1.23,-4.25 -2.12,-8.55 -2.72,-12.92c1.7,-7.78 1.7,-15.5 0,-23.12c-1.29,-0.84 -2.42,-0.61 -3.4,0.68c-2.64,8.9 -6.72,17.06 -12.25,24.49c-4.46,-3.47 -5.82,-8 -4.08,-13.6c0.97,-3.34 2.34,-6.5 4.08,-9.52c7.39,-11.47 15.32,-22.59 23.81,-33.33c-0.56,-1.29 -1.46,-2.19 -2.72,-2.72c-4.53,-0.45 -9.07,-0.91 -13.6,-1.36c-1.14,-1.38 -1.6,-2.97 -1.36,-4.76c7.33,-0.69 14.59,-1.83 21.77,-3.4c8.94,-7.96 8.71,-15.9 -0.68,-23.81c-0.67,-1.75 -0.9,-3.58 -0.68,-5.44l0,-0.05z" fill="#e81d12" id="svg_4"/>
   </g>
   <g id="svg_5">
    <path d="m221.49,88.34c-1.46,11.56 -2.36,23.33 -2.72,35.37c4.15,0.54 7.78,-0.38 10.89,-2.72c4.18,-1.74 8.02,-4.02 11.57,-6.81c4.76,2.25 7.72,5.89 8.84,10.89c-11.15,-0.72 -21.13,2.22 -29.93,8.84c-3.53,4.06 -4.9,8.82 -4.08,14.28c7.45,0.67 14.49,-0.69 21.09,-4.08c7.44,0.67 9.25,4.3 5.44,10.89c-8.58,8.13 -16.74,16.74 -24.49,25.85c-1.24,3.32 -0.11,5.14 3.4,5.44c0.15,0.84 0.6,1.52 1.36,2.05c4.97,0.68 9.96,0.91 14.97,0.68c7.66,5.15 7.21,9.24 -1.36,12.25c-3.13,-0.66 -5.85,-2.01 -8.16,-4.08c-5.15,-1.52 -10.59,-2.42 -16.33,-2.72c-6.98,-4.14 -8.57,-10.05 -4.76,-17.68c5.03,-4.59 9.58,-9.56 13.6,-14.97c0.67,-1.75 0.9,-3.58 0.68,-5.44c-5.02,0.55 -10,0.77 -14.97,0.68c-0.88,-3.76 -2.91,-6.72 -6.13,-8.84c0.69,-6.49 1.84,-12.85 3.4,-19.05c2.65,-7.12 3.57,-14.83 2.72,-23.12c1.04,-16.78 1.27,-33.55 0.68,-50.34c-2.78,-2.01 -3.91,-4.74 -3.4,-8.16c2.31,-0.22 4.59,0.01 6.81,0.68c3.43,3.64 7.05,7.05 10.89,10.2c0.77,9.94 0.77,19.91 0,29.93l-0.01,-0.05z" fill="#e41a12" id="svg_6"/>
   </g>
   <g id="svg_7">
    <path d="m165.7,54.32c1.75,1.07 3.35,2.44 4.76,4.08c0.28,14.52 0.28,29.03 0,43.53c0.56,0.62 1.24,1.07 2.05,1.36c1.96,-1.86 3.76,-3.91 5.44,-6.13c1.29,-0.66 2.65,-0.89 4.08,-0.68c-0.19,9.32 -4.51,16.12 -12.92,20.41c-0.01,6.83 -1.16,13.41 -3.4,19.73c0.35,1.72 1.27,3.08 2.72,4.08c6.72,1.12 9.21,4.98 7.49,11.57c-7.72,5.89 -14.52,12.69 -20.41,20.41c-1.85,-1.49 -2.31,-3.31 -1.36,-5.44c7.18,-4.37 10.58,-10.48 10.2,-18.36c-3.14,-0.68 -6.31,-0.9 -9.52,-0.68c-0.44,-6.61 0.01,-12.97 1.36,-19.05c1.3,-2.4 1.77,-5.11 1.36,-8.16c-4.53,0 -9.07,0 -13.6,0c0,-1.36 0,-2.72 0,-4.08c3.03,0.39 5.76,-0.05 8.16,-1.36c2.53,-2.08 5.02,-4.36 7.49,-6.81c0.49,-10.7 1.62,-21.13 3.4,-31.3c1.78,-7.07 1.78,-14.34 0,-21.77c0.62,-1.08 1.52,-1.53 2.72,-1.36l-0.01,0.01z" fill="#e52418" id="svg_8"/>
   </g>
   <g id="svg_9">
    <path d="m165.7,54.32c-1.19,-0.18 -2.09,0.27 -2.72,1.36c1.78,7.43 1.78,14.7 0,21.77c0.19,-8.22 -0.26,-16.38 -1.36,-24.49c1.75,-0.33 3.12,0.13 4.08,1.36l0,-0.01z" fill="#ef6b68" id="svg_10"/>
   </g>
   <g id="svg_11">
    <path d="m104.47,137.32c-1.94,2.74 -2.85,5.92 -2.72,9.52c-2.29,8.34 -5.92,16.27 -10.89,23.81c-1.36,0.91 -2.72,0.91 -4.08,0c-4.51,-4.06 -8.58,-8.6 -12.25,-13.6c-1.29,-0.84 -2.42,-0.61 -3.4,0.68c-0.3,2.56 -1.19,4.83 -2.72,6.81c1,14.19 -1.96,27.35 -8.84,39.45c-0.8,-0.28 -1.49,-0.73 -2.05,-1.36c-3.46,-24.05 -3.69,-48.1 -0.68,-72.11c-2.18,0.37 -3.98,-0.1 -5.44,-1.36c-1.66,-0.9 -3.47,-1.81 -5.44,-2.72c2.29,-0.89 4.1,-2.24 5.44,-4.08c2.67,-2.46 5.83,-3.82 9.52,-4.08c0.22,-2.76 0,-5.48 -0.68,-8.16c-7.23,-8.23 -5.2,-11.18 6.13,-8.84c3.31,3.58 5.11,7.89 5.44,12.92c1.36,0.45 2.72,0.91 4.08,1.36c5.93,-2.57 12.06,-4.83 18.36,-6.81c7.27,1.4 12.49,5.26 15.65,11.57c-2.91,5.26 -4.74,10.92 -5.44,17.01l0,-0.01m-25.85,-13.6c11.67,2.46 15.51,9.27 11.57,20.41c-3.63,1.7 -6.13,4.42 -7.49,8.16c-9.04,2.31 -13.11,-1.32 -12.25,-10.89c0.23,-2.72 0.45,-5.44 0.68,-8.16c2.28,-3.4 4.76,-6.58 7.49,-9.52z" fill="#e71a10" id="svg_12"/>
   </g>
   <g id="svg_13">
    <path d="m221.49,88.34c0,11.34 0,22.69 0,34.01c2.72,-0.45 5.44,-0.91 8.16,-1.36c-3.11,2.34 -6.73,3.25 -10.89,2.72c0.35,-12.04 1.27,-23.82 2.72,-35.37l0.01,0.01z" fill="#f9b6b4" id="svg_14"/>
   </g>
   <g id="svg_15">
    <path d="m152.09,115.55c-2.41,1.3 -5.13,1.75 -8.16,1.36c0,1.36 0,2.72 0,4.08c4.53,0 9.07,0 13.6,0c0.41,3.04 -0.05,5.77 -1.36,8.16c0,-2.28 0,-4.53 0,-6.81c-4.91,0.39 -9.67,-0.05 -14.28,-1.36c-0.93,-1.74 -0.71,-3.34 0.68,-4.76c3.14,-0.68 6.31,-0.9 9.52,-0.68l0,0.01z" fill="#ee7167" id="svg_16"/>
   </g>
   <g id="svg_17">
    <path d="m51.42,122.35c-1.33,1.84 -3.15,3.2 -5.44,4.08c1.97,0.91 3.79,1.83 5.44,2.72c-2.28,0 -4.53,0 -6.81,0c0,-1.81 0,-3.63 0,-5.44c2.34,-0.18 4.6,-0.62 6.81,-1.36l0,0.01z" fill="#f4695f" id="svg_18"/>
   </g>
   <g id="svg_21">
    <path d="m206.52,106.03c0.84,8.3 -0.07,16 -2.72,23.12c0.55,-7.94 1.44,-15.66 2.72,-23.12z" fill="#ed544b" id="svg_22"/>
   </g>
   <g id="svg_23">
    <path d="m104.47,137.32c0.12,3.6 -0.79,6.79 -2.72,9.52c-0.12,-3.6 0.79,-6.79 2.72,-9.52z" fill="#f8a7a5" id="svg_24"/>
   </g>
   <g id="svg_25">
    <path d="m184.75,155c2.07,0.01 3.64,0.93 4.76,2.72c2.47,6.72 4.75,13.53 6.81,20.41c6.98,7.4 5.38,12.4 -4.76,14.97c-1.28,-0.15 -2.42,-0.6 -3.4,-1.36c-1.36,-2.72 -2.72,-5.44 -4.08,-8.16c-0.21,-7.42 -1.33,-14.69 -3.4,-21.77c0.35,-2.98 1.72,-5.25 4.08,-6.81l-0.01,0.01z" fill="#e41b12" id="svg_26"/>
   </g>
   <g id="svg_27">
    <path d="m157.53,193.1c-6.43,0.3 -12.79,-0.16 -19.05,-1.36c-2.75,-1.41 -3.2,-3.23 -1.36,-5.44c5.92,0.23 11.81,0 17.68,-0.68c1.25,-0.38 2.16,-1.06 2.72,-2.05c3.35,-2.67 6.53,-5.61 9.52,-8.84c1.29,-0.66 2.65,-0.89 4.08,-0.68c-1.18,4.64 -2.76,9.17 -4.76,13.6c-2.44,2.9 -5.38,4.71 -8.84,5.44l0.01,0.01z" fill="#e41812" id="svg_28"/>
   </g>
   <g id="svg_29">
    <path d="m157.53,183.58c-0.57,0.97 -1.47,1.66 -2.72,2.05c-5.88,0.68 -11.76,0.91 -17.68,0.68c6.2,-2.64 13.01,-3.56 20.41,-2.72l-0.01,-0.01z" fill="#fac9c7" id="svg_30"/>
   </g>
   <g id="svg_31">
    <path d="m221.49,186.3c5.88,-0.57 11.32,0.34 16.33,2.72c-5,0.23 -10,0 -14.97,-0.68c-0.77,-0.51 -1.21,-1.19 -1.36,-2.05l0,0.01z" fill="#ee564c" id="svg_32"/>
   </g>
   <g id="svg_33">
    <path d="m138.49,191.74c6.26,1.19 12.62,1.66 19.05,1.36c-5.58,3.34 -11.47,3.57 -17.68,0.68c-0.77,-0.51 -1.21,-1.19 -1.36,-2.05z" fill="#ef685f" id="svg_34"/>
   </g>
   <g id="svg_35">
    <path d="m211.96,194.47c5.72,0.3 11.17,1.19 16.33,2.72c-6.08,0.8 -11.52,-0.11 -16.33,-2.72z" fill="#fabab8" id="svg_36"/>
   </g>
  </g>
 </g>
</svg>