<?xml version="1.0"?>
<svg width="20" height="20" xmlns="http://www.w3.org/2000/svg" xmlns:svg="http://www.w3.org/2000/svg" version="1.1">
 <title>github [#142]</title>
 <desc>Created with Sketch.</desc>

 <g class="layer">
  <title>Layer 1</title>
  <ellipse cx="10" cy="10.12" fill="#ffffff" id="svg_1" rx="7.44" ry="7.44" stroke="#ffffff" stroke-width="5"/>
  <g fill="none" fill-rule="evenodd" id="Page-1">
   <g fill="#000000" id="Dribbble-Light-Preview" transform="translate(-140.000000, -7559.000000)">
    <g id="icons" transform="translate(56.000000, 160.000000)">
     <path d="m94,7399c5.52,0 10,4.59 10,10.25c0,4.53 -2.86,8.37 -6.83,9.73c-0.51,0.1 -0.69,-0.22 -0.69,-0.49c0,-0.34 0.01,-1.44 0.01,-2.81c0,-0.96 -0.32,-1.58 -0.68,-1.9c2.23,-0.26 4.57,-1.12 4.57,-5.06c0,-1.12 -0.39,-2.04 -1.03,-2.75c0.1,-0.26 0.45,-1.31 -0.1,-2.72c0,0 -0.84,-0.27 -2.75,1.05c-0.79,-0.22 -1.65,-0.34 -2.5,-0.34c-0.85,0 -1.7,0.12 -2.5,0.34c-1.91,-1.32 -2.75,-1.05 -2.75,-1.05c-0.55,1.41 -0.2,2.46 -0.1,2.72c-0.64,0.71 -1.03,1.63 -1.03,2.75c0,3.93 2.33,4.81 4.55,5.06c-0.28,0.26 -0.54,0.71 -0.63,1.38c-0.57,0.26 -2.02,0.71 -2.91,-0.86c0,0 -0.53,-0.98 -1.53,-1.05c0,0 -0.98,-0.02 -0.07,0.62c0,0 0.65,0.32 1.11,1.5c0,0 0.59,1.83 3.37,1.21c0,0.86 0.01,1.66 0.01,1.91c0,0.27 -0.18,0.59 -0.68,0.49c-3.98,-1.35 -6.84,-5.2 -6.84,-9.73c0,-5.66 4.48,-10.25 10,-10.25" id="github-[#142]"/>
    </g>
   </g>
  </g>
 </g>
</svg>