<?xml version="1.0"?>
<svg width="512" height="512" xmlns="http://www.w3.org/2000/svg" xmlns:svg="http://www.w3.org/2000/svg" aria-label="Gmail">
 <g class="layer">
  <title>Layer 1</title>
  <path d="m158,391l0,-142l-82,-63l0,175q0,30 30,30" fill="#4285f4" id="svg_2" transform="matrix(1 0 0 1 0 0)"/>
  <path d="m154,248l102,77l102,-77l0,-98l-102,77l-102,-77" fill="#ea4335" id="svg_3"/>
  <path d="m354,391l0,-142l82,-63l0,175q0,30 -30,30" fill="#34a853" id="svg_4"/>
  <path d="m76,188l82,63l0,-98l-30,-23c-27,-21 -52,0 -52,26" fill="#c5221f" id="svg_5"/>
  <path d="m436,188l-82,63l0,-98l30,-23c27,-21 52,0 52,26" fill="#fbbc04" id="svg_6"/>
 </g>
</svg>