<?xml version="1.0" encoding="UTF-8"?>
<!DOCTYPE svg PUBLIC "-//W3C//DTD SVG 1.1//EN" "http://www.w3.org/Graphics/SVG/1.1/DTD/svg11.dtd">
<svg xmlns="http://www.w3.org/2000/svg" version="1.1" width="420px" height="420px" style="shape-rendering:geometricPrecision; text-rendering:geometricPrecision; image-rendering:optimizeQuality; fill-rule:evenodd; clip-rule:evenodd" xmlns:xlink="http://www.w3.org/1999/xlink">
<g><path style="opacity:1" fill="#eff0ef" d="M -0.5,-0.5 C 139.5,-0.5 279.5,-0.5 419.5,-0.5C 419.5,139.5 419.5,279.5 419.5,419.5C 279.5,419.5 139.5,419.5 -0.5,419.5C -0.5,279.5 -0.5,139.5 -0.5,-0.5 Z"/></g>
<g><path style="opacity:1" fill="#83da7b" d="M 104.5,34.5 C 128.167,34.5 151.833,34.5 175.5,34.5C 175.5,57.8333 175.5,81.1667 175.5,104.5C 198.5,104.5 221.5,104.5 244.5,104.5C 244.5,81.1667 244.5,57.8333 244.5,34.5C 268.167,34.5 291.833,34.5 315.5,34.5C 315.5,57.8333 315.5,81.1667 315.5,104.5C 338.833,104.5 362.167,104.5 385.5,104.5C 385.5,198.167 385.5,291.833 385.5,385.5C 338.5,385.5 291.5,385.5 244.5,385.5C 244.5,362.167 244.5,338.833 244.5,315.5C 221.5,315.5 198.5,315.5 175.5,315.5C 175.5,338.833 175.5,362.167 175.5,385.5C 128.5,385.5 81.5,385.5 34.5,385.5C 34.5,291.833 34.5,198.167 34.5,104.5C 57.8333,104.5 81.1667,104.5 104.5,104.5C 104.5,81.1667 104.5,57.8333 104.5,34.5 Z"/></g>
</svg>
