<?xml version="1.0"?>
<svg width="64" height="64" xmlns="http://www.w3.org/2000/svg" xmlns:svg="http://www.w3.org/2000/svg" xmlns:xlink="http://www.w3.org/1999/xlink">
 <g class="layer" id="Layer_1">
  <title>Layer 1</title>
  <g id="svg_20">
   <g id="svg_1">
    <g id="svg_47" transform="matrix(0.45157 0.260714 -0.260714 0.45157 -73.4009 -292.226)">
     <ellipse cx="485.07" cy="437.24" fill="#A0D58A" id="svg_2" rx="59.67" ry="59.67" stroke="#619E73"/>
     <text fill="#ffffff" font-family="Noto Sans JP" font-size="10" id="svg_3" stroke="#e5e5e5" stroke-width="0.2" text-anchor="start" transform="rotate(-120 435.948 460.753)" x="430.95" xml:space="preserve" y="464.73">教</text>
     <text fill="#ffffff" font-family="Noto Sans JP" font-size="10" id="svg_4" stroke="#e5e5e5" stroke-width="0.2" text-anchor="start" x="481.4" xml:space="preserve" y="386.52">审</text>
     <text fill="#ffffff" font-family="Noto Sans JP" font-size="10" id="svg_5" stroke="#e5e5e5" stroke-width="0.2" text-anchor="start" transform="rotate(-105 432.067 448.516)" x="427.07" xml:space="preserve" y="452.49">育</text>
     <text fill="#ffffff" font-family="Noto Sans JP" font-size="10" id="svg_37" stroke="#e5e5e5" stroke-width="0.2" text-anchor="start" transform="rotate(-90 431.172 436.275)" x="426.17" xml:space="preserve" y="440.25">部</text>
     <text fill="#ffffff" font-family="Noto Sans JP" font-size="10" id="svg_38" stroke="#e5e5e5" stroke-width="0.2" text-anchor="start" transform="rotate(-30 458.635 390.007)" x="453.64" xml:space="preserve" y="393.99">作</text>
     <text fill="#ffffff" font-family="Noto Sans JP" font-size="10" id="svg_39" stroke="#e5e5e5" stroke-width="0.2" text-anchor="start" transform="rotate(-75 432.963 422.844)" x="427.97" xml:space="preserve" y="426.82">双</text>
     <text fill="#ffffff" font-family="Noto Sans JP" font-size="10" id="svg_40" stroke="#e5e5e5" stroke-width="0.2" text-anchor="start" transform="rotate(-15 472.365 384.634)" x="467.37" xml:space="preserve" y="388.61">组</text>
     <text fill="#ffffff" font-family="Noto Sans JP" font-size="10" id="svg_41" stroke="#e5e5e5" stroke-width="0.2" text-anchor="start" transform="rotate(-60 438.337 410.007)" x="433.34" xml:space="preserve" y="413.99">减</text>
     <text fill="#ffffff" font-family="Noto Sans JP" font-size="10" id="svg_42" stroke="#e5e5e5" stroke-width="0.2" text-anchor="start" transform="rotate(15 499.306 384.335)" x="494.23" xml:space="preserve" y="388.31">核</text>
     <text fill="#ffffff" font-family="Noto Sans JP" font-size="10" id="svg_43" stroke="#e5e5e5" stroke-width="0.2" text-anchor="start" transform="rotate(-45 447.589 398.068)" x="442.59" xml:space="preserve" y="402.04">工</text>
     <text fill="#ffffff" font-family="Noto Sans JP" font-size="10" id="svg_44" stroke="#e5e5e5" stroke-width="0.2" text-anchor="start" transform="rotate(30 512.365 390.007)" x="507.37" xml:space="preserve" y="393.99">不</text>
     <text fill="#ffffff" font-family="Noto Sans JP" font-size="10" id="svg_45" stroke="#e5e5e5" stroke-width="0.2" text-anchor="start" transform="rotate(45 522.217 398.366)" x="517.22" xml:space="preserve" y="402.34">通</text>
     <text fill="#ffffff" font-family="Noto Sans JP" font-size="10" id="svg_46" stroke="#e5e5e5" stroke-width="0.2" text-anchor="start" transform="rotate(60 530.276 408.515)" x="525.28" xml:space="preserve" y="412.49">过</text>
    </g>
    <ellipse cx="31.5" cy="32.09" fill="#0fffff" id="svg_48" rx="24.67" ry="24.67"/>
    <text fill="#ffff00" font-family="Noto Sans JP" font-size="12" id="svg_50" stroke-width="1.5" text-anchor="start" transform="matrix(0.521427 0 0 0.521427 -194.072 -165.274)" x="408.35" xml:space="preserve" y="431.55">课后服务</text>
   </g>
   <use id="svg_18" transform="matrix(0.127286 0 0 0.127286 -92.1591 -60.7689)" x="685.13" xlink:href="#svg_17" y="506.85"/>
  </g>
 </g>
 <defs>
  <symbol height="424" id="svg_17" width="588" xmlns="http://www.w3.org/2000/svg" xmlns:svg="http://www.w3.org/2000/svg">
   <g class="layer" id="svg_19">
    <title>Layer 1</title>
    <path d="m136.69,147.37l1.61,-8.81a0.42,0.42 0 0 1 0.41,-0.34l18.96,0a0.42,0.42 0 0 1 0.42,0.5l-1.59,8.49a0.42,0.42 0 0 0 0.42,0.5l22.91,0a0.42,0.42 0 0 1 0.42,0.49l-1.59,9.46a0.42,0.42 0 0 1 -0.42,0.35l-67.17,0a0.42,0.42 0 0 1 -0.41,-0.49l1.54,-9.46a0.42,0.42 0 0 1 0.42,-0.35l23.66,0a0.42,0.42 0 0 0 0.41,-0.34z" fill="#016d3c" id="svg_16"/>
    <path d="m349.67,247.08l16.73,-73.34q0.12,-0.51 -0.41,-0.51l-90.94,0.01a0.8,0.79 11.9 0 0 -0.73,0.47l-7.33,17.02q-0.32,0.74 0.49,0.74l17.42,0.01q0.65,0 0.76,-0.64l1.51,-9.08q0.08,-0.47 0.56,-0.47l24.12,-0.02a0.51,0.51 0 0 1 0.5,0.6l-1.56,9.1a0.44,0.44 0 0 0 0.43,0.51l41.85,0a0.49,0.48 -83.4 0 1 0.47,0.6l-2.63,11.36a0.65,0.64 6.8 0 1 -0.63,0.49l-41.07,0.01a0.72,0.72 0 0 0 -0.71,0.6l-7.41,43.47q-0.09,0.52 -0.62,0.52l-24.16,0.01q-0.47,0 -0.39,-0.46l7.41,-43.51a0.53,0.53 0 0 0 -0.52,-0.62l-44.33,-0.01q-0.68,0 -0.41,-0.63l12.65,-29.33q0.33,-0.75 -0.49,-0.75l-18.92,0.01a0.53,0.52 4.5 0 0 -0.52,0.44l-18.78,111.48q-0.08,0.46 -0.54,0.46l-18.17,0q-0.57,0 -0.47,-0.55l18.77,-111.38q0.08,-0.47 -0.39,-0.47l-8.73,0.02q-0.55,0 -0.64,0.54l-12.64,74.3q-0.07,0.45 -0.53,0.45l-18.44,0q-0.55,0 -0.45,-0.54l10.63,-62.76q0.09,-0.51 -0.43,-0.51l-29.48,0.01a0.62,0.61 4.3 0 0 -0.61,0.52l-1.1,6.82q-0.1,0.62 0.52,0.62l22.74,0a0.54,0.53 4.6 0 1 0.53,0.62l-1.55,9.24q-0.08,0.49 -0.58,0.49l-23.03,0.01q-0.54,0 -0.64,0.54l-7.62,44.51q-0.08,0.43 -0.52,0.43l-18.87,-0.01q-0.49,0 -0.41,-0.48l7.6,-44.49a0.43,0.42 5.1 0 0 -0.42,-0.5l-23.06,-0.01q-0.57,0 -0.48,-0.56l1.57,-9.22q0.09,-0.57 0.67,-0.57l23.05,0a0.64,0.63 -85.1 0 0 0.62,-0.53l1.17,-6.83a0.52,0.51 -85.2 0 0 -0.5,-0.6l-27.35,-0.03q-0.49,0 -0.4,-0.47l1.64,-9.34q0.1,-0.53 0.64,-0.53l13.62,0q0.57,0 0.52,-0.58l-0.84,-9.97a0.53,0.53 0 0 1 0.53,-0.58l16.85,0.01a0.6,0.59 -2 0 1 0.6,0.55l0.44,6.26q0.05,0.68 0.73,0.68l12.93,0.01a0.8,0.79 10.9 0 0 0.74,-0.49l2.73,-6.6q0.17,-0.41 0.61,-0.41l18.03,-0.02a0.48,0.48 0 0 1 0.44,0.67l-4.16,9.83q-0.26,0.63 0.42,0.63l13.44,-0.01q0.51,0 0.6,-0.51q2.05,-12.33 4.24,-24.56c1.35,-7.58 6.08,-9.36 13.48,-9.38q20.9,-0.07 41.77,0q0.63,0.01 0.52,0.63l-1.65,9.7q-0.09,0.54 -0.64,0.54q-14.81,-0.01 -29.55,0.07c-5.15,0.03 -6.03,5.15 -6.3,9.33q-0.04,0.56 0.53,0.56l51.21,0.01q0.49,0 0.69,-0.46l3.51,-8.11a0.68,0.68 0 0 1 0.62,-0.4l22.24,0.01a0.54,0.54 0 0 1 0.5,0.76l-3.38,7.61a0.42,0.42 0 0 0 0.38,0.59l118.21,0q0.46,0 0.54,-0.45l1.31,-8.03q0.1,-0.57 0.68,-0.57l22.8,-0.01q0.65,0 0.54,0.64l-1.33,7.76a0.57,0.57 0 0 0 0.56,0.66l45.7,0q0.55,0 0.46,0.54l-1.93,11.49q-0.08,0.47 -0.56,0.47l-75.55,0.01q-0.59,0 -0.72,0.57l-2.55,11.14q-0.15,0.67 0.53,0.67l69.05,0q0.61,0 0.51,0.6q-3.97,24.27 -8.04,48.38q-1.01,6.05 -2.88,8.62q-3.8,5.24 -11.35,5.28q-18.5,0.11 -37.03,0q-0.47,0 -0.39,-0.47l1.88,-11.06a0.63,0.63 0 0 1 0.61,-0.52q9.12,-0.02 18.19,-0.07c3.43,-0.01 5.32,-2.51 5.92,-5.85q2.84,-15.92 5.09,-31.93q0.07,-0.57 -0.49,-0.57l-44.28,0.01q-0.3,0 -0.37,0.3l-11.33,49.72a0.6,0.6 0 0 1 -0.59,0.48l-46.89,0a0.59,0.59 0 0 1 -0.58,-0.48l-6.57,-35.27q-0.12,-0.68 0.56,-0.68l21.75,0.02q0.61,0 0.72,0.59l6.42,34.35a0.29,0.29 0 0 0 0.56,0.01z" fill="#016d3c" id="svg_15"/>
    <path d="m119.74,211.06l-8.47,37.19a0.37,0.37 0 0 1 -0.37,0.29l-15.26,-0.02a0.37,0.37 0 0 1 -0.36,-0.45l8.49,-37.17a0.37,0.37 0 0 1 0.37,-0.29l15.24,0a0.37,0.37 0 0 1 0.36,0.45z" fill="#016d3c" id="svg_14"/>
    <path d="m167.56,211.08l-4.26,37.1a0.41,0.41 0 0 1 -0.41,0.36l-15.19,-0.02a0.41,0.41 0 0 1 -0.41,-0.46l4.27,-37.07a0.41,0.41 0 0 1 0.41,-0.36l15.18,-0.01a0.41,0.41 0 0 1 0.41,0.46z" fill="#016d3c" id="svg_13"/>
    <path d="m229.28,247.96l15.15,-35.59a0.41,0.41 0 0 1 0.38,-0.25l22.61,0.01a0.41,0.41 0 0 1 0.38,0.57l-15.13,35.59a0.41,0.41 0 0 1 -0.38,0.25l-22.63,-0.01a0.41,0.41 0 0 1 -0.38,-0.57z" fill="#016d3c" id="svg_12"/>
    <path d="m381.1,265.4c-4.26,1.82 -6.67,7.23 -3.34,10.99c3.94,4.43 11.51,3.32 15.92,0.19q0.44,-0.31 0.8,0.09l4.54,5.08q0.43,0.48 -0.12,0.81c-8.37,5.14 -20.78,6.39 -29.16,0.77c-9.35,-6.28 -6,-19.54 3.43,-23.68q15.07,-6.61 28.78,2.27q0.66,0.43 0,0.85l-6.41,4.07q-0.47,0.3 -0.93,-0.03q-6.17,-4.55 -13.51,-1.41z" fill="#f9be00" id="svg_11"/>
    <path d="m247.25,265.51l7.97,-7.14a0.32,0.32 0 0 1 0.21,-0.08l12.35,-0.03a0.32,0.32 0 0 1 0.21,0.56l-14.11,12.78a0.32,0.32 0 0 0 -0.03,0.44l10.65,13.16a0.32,0.32 0 0 1 -0.25,0.53l-12.87,-0.1a0.32,0.32 0 0 1 -0.26,-0.12l-5.82,-7.51a0.32,0.32 0 0 0 -0.47,-0.05l-8.76,7.61a0.32,0.32 0 0 1 -0.21,0.08l-12.65,0.05a0.32,0.32 0 0 1 -0.22,-0.56l15.22,-13.54a0.32,0.32 0 0 0 0.04,-0.44l-9.39,-12.41a0.32,0.32 0 0 1 0.26,-0.51l12.56,0.03a0.32,0.32 0 0 1 0.27,0.14l4.82,7.05a0.32,0.32 0 0 0 0.48,0.06z" fill="#f9be00" id="svg_10"/>
    <path d="m294.49,258.45c8.67,0.31 16.58,4.52 14.25,14.84c-2.19,9.7 -11.96,12.35 -20.74,12.44q-8.38,0.09 -16.77,-0.16q-0.57,-0.02 -0.47,-0.57l4.64,-26.23q0.08,-0.47 0.56,-0.48q9.33,-0.16 18.53,0.16zm-8.13,6.6l-2.42,13.7q-0.09,0.52 0.44,0.57c6.99,0.7 13.46,-2.5 12.39,-10.6c-0.57,-4.37 -6.86,-4.62 -10.01,-4.06a0.5,0.48 -0.2 0 0 -0.4,0.39z" fill="#f9be00" id="svg_9"/>
    <path d="m328.69,264.54l-1.07,6.44a0.42,0.42 0 0 0 0.42,0.49l15.02,-0.01a0.42,0.42 0 0 1 0.41,0.49l-0.74,4.73a0.42,0.42 0 0 1 -0.42,0.36l-15.42,-0.03a0.42,0.42 0 0 0 -0.41,0.35l-1.42,7.95a0.42,0.42 0 0 1 -0.41,0.35l-11.34,0.01a0.42,0.42 0 0 1 -0.41,-0.49l4.71,-26.56a0.42,0.42 0 0 1 0.41,-0.35l28.9,0.01a0.42,0.42 0 0 1 0.41,0.49l-0.91,5.11a0.42,0.42 0 0 1 -0.41,0.35l-16.9,-0.04a0.42,0.42 0 0 0 -0.42,0.35z" fill="#f9be00" id="svg_8"/>
    <path d="m419.36,271.47l-2.73,13.94a0.34,0.34 0 0 1 -0.33,0.27l-10.75,0a0.34,0.34 0 0 1 -0.34,-0.4l4.7,-26.73a0.34,0.34 0 0 1 0.33,-0.28l7.9,-0.02a0.34,0.34 0 0 1 0.25,0.11l13.77,14.6a0.34,0.34 0 0 0 0.58,-0.17l2.7,-14.25a0.34,0.34 0 0 1 0.33,-0.28l10.46,0.01a0.34,0.34 0 0 1 0.33,0.4l-4.5,26.69a0.34,0.34 0 0 1 -0.34,0.28l-7.72,0.06a0.34,0.34 0 0 1 -0.25,-0.1l-13.82,-14.3a0.34,0.34 0 0 0 -0.57,0.17z" fill="#f9be00" id="svg_7"/>
    <path d="m356.4,285.68l-9.51,0.01a0.38,0.38 0 0 1 -0.38,-0.45l1.27,-6.94a0.38,0.38 0 0 1 0.38,-0.31l9.35,0a0.38,0.38 0 0 1 0.38,0.44l-1.12,6.93a0.38,0.38 0 0 1 -0.37,0.32z" fill="#f9be00" id="svg_6"/>
   </g>
  </symbol>
 </defs>
</svg>