<?xml version="1.0"?>
<svg width="645" height="645" xmlns="http://www.w3.org/2000/svg" xmlns:svg="http://www.w3.org/2000/svg" xmlns:xlink="http://www.w3.org/1999/xlink" clip-rule="evenodd" fill-rule="evenodd">
 <defs>
  <symbol fill-rule="evenodd" id="a" xmlns="http://www.w3.org/2000/svg" xmlns:xlink="http://www.w3.org/1999/xlink">
   <path d="m149.5,64.5c0.34,2.66 -0.33,4.99 -2,7c-5.31,0.65 -10.64,0.82 -16,0.5c-3.18,1.88 -3.85,4.55 -2,8c-0.83,4.3 -1.5,8.63 -2,13c-0.17,1.66 -0.84,2.99 -2,4c4,0.14 7.84,0.98 11.5,2.5l2,-2c1.77,0.73 3.6,1.07 5.5,1l3,0c-1.38,21.56 -12.72,30.72 -34,27.5c-6.09,-1.36 -11.59,-3.86 -16.5,-7.5c0.55,-3.15 0.38,-6.15 -0.5,-9c0.79,-2.93 2.79,-4.77 6,-5.5c4.31,0.25 8.65,0.25 13,0c6.71,-3.44 9.21,-8.94 7.5,-16.5a25.77,25.77 0 0 1 -2,-8a11.15,11.15 0 0 0 -4.5,-3c-2.2,-0.67 -4.53,-1.33 -7,-2c-0.33,-0.67 -0.67,-1.33 -1,-2c4.94,-0.89 5.11,-1.89 0.5,-3c-2.66,0.25 -4.83,1.42 -6.5,3.5c1.78,-0.98 3.44,-0.65 5,1c-0.46,0.41 -0.79,0.91 -1,1.5c-4.82,0.67 -9.48,1.33 -14,2c-10.18,1 -18.68,5.34 -25.5,13c-2.32,2.97 -3.82,6.3 -4.5,10c-0.53,2.42 -1.36,4.76 -2.5,7c-0.38,-0.56 -0.88,-0.89 -1.5,-1c-5.95,-13.37 -8.12,-27.37 -6.5,-42c1.75,-10.68 6.92,-19.18 15.5,-25.5c-3.73,-0.07 -7.23,-0.9 -10.5,-2.5c-2.7,-4.54 -3.03,-9.21 -1,-14c3.65,-4.81 8.32,-7.81 14,-9c4.2,-0.05 7.87,1.29 11,4c1.08,6.19 -0.92,11.19 -6,15c-0.59,0.98 -0.26,1.65 1,2c10.89,-7.01 22.72,-9.01 35.5,-6c-1.36,-4.04 -2.69,-8.04 -4,-12c-0.17,-2.19 0.49,-4.03 2,-5.5c8.4,-5.18 16.06,-4.18 23,3c3.55,4.22 4.72,9.06 3.5,14.5c-4.97,4.45 -10.47,5.11 -16.5,2c-1.5,-0.05 -2.5,0.62 -3,2c2.02,1.86 4.19,3.52 6.5,5c3.92,6.17 8.09,12.17 12.5,18c4.93,2.64 9.6,5.64 14,9z" fill="#f5cd70" id="svg_1"/>
   <path d="m116.5,76.5c-7.99,0.6 -15.99,0.93 -24,1c4.52,-0.67 9.18,-1.33 14,-2c0.21,-0.59 0.54,-1.09 1,-1.5c-1.56,-1.65 -3.22,-1.98 -5,-1c1.67,-2.08 3.84,-3.25 6.5,-3.5c4.61,1.11 4.44,2.11 -0.5,3c0.33,0.67 0.67,1.33 1,2c2.47,0.67 4.8,1.33 7,2z" fill="#cc9751" id="svg_2"/>
   <path d="m149.5,64.5c1.05,2.84 1.05,5.84 0,9c1.29,0.24 2.29,-0.1 3,-1l1,0c-0.68,1.68 -2.02,2.34 -4,2c-7.37,-1.45 -13.54,0.55 -18.5,6c-1.07,7.63 2.1,12.79 9.5,15.5c5.13,0.54 10.13,0.21 15,-1c-2.46,0.72 -3.46,2.06 -3,4c-0.95,0.48 -1.95,0.65 -3,0.5c0.31,3.21 -0.02,6.21 -1,9l0,-11c-1.6,-0.27 -2.93,0.07 -4,1c-1.9,0.07 -3.73,-0.27 -5.5,-1l-2,2c-3.66,-1.52 -7.5,-2.36 -11.5,-2.5c1.16,-1.01 1.83,-2.34 2,-4c0.5,-4.37 1.17,-8.7 2,-13c-1.85,-3.45 -1.18,-6.12 2,-8c5.36,0.32 10.69,0.15 16,-0.5c1.67,-2.01 2.34,-4.34 2,-7z" fill="#955225" id="svg_3"/>
   <path d="m131.5,73.5c1.7,-0.16 3.37,0.01 5,0.5a33.84,33.84 0 0 1 -6,3.5l-1,-1c0.69,-1.02 1.36,-2.02 2,-3z" fill="#e8b96b" id="svg_4"/>
   <path d="m149.5,74.5c10.68,3.34 16.02,10.67 16,22c0.04,4.46 -0.63,8.8 -2,13c-3.19,3.03 -5.85,6.53 -8,10.5c-3.33,0.67 -6.67,0.67 -10,0c-0.46,-0.41 -0.79,-0.91 -1,-1.5c1.91,-3.14 3.24,-6.47 4,-10c0.98,-2.79 1.31,-5.79 1,-9c1.05,0.15 2.05,-0.02 3,-0.5c-0.46,-1.94 0.54,-3.28 3,-4c-4.87,1.21 -9.87,1.54 -15,1c-7.4,-2.71 -10.57,-7.87 -9.5,-15.5c4.96,-5.45 11.13,-7.45 18.5,-6z" fill="#f5cd70" id="svg_5"/>
   <path d="m93.5,107.5c-0.96,0.45 -1.79,1.12 -2.5,2c-0.3,8.44 -4.8,12.77 -13.5,13c-8.21,0.12 -12.54,-3.88 -13,-12c-0.47,-16.71 7.53,-26.88 24,-30.5c7.33,-0.67 14.67,-0.67 22,0c11.53,4.04 13.86,11.04 7,21c-1.7,0.96 -3.53,1.46 -5.5,1.5c-7.48,-3.34 -13.65,-1.67 -18.5,5z" fill="#f5ce70" id="svg_6"/>
   <path d="m116.5,76.5c1.73,0.62 3.23,1.62 4.5,3c0.24,2.79 0.91,5.46 2,8c1.71,7.56 -0.79,13.06 -7.5,16.5c-4.35,0.25 -8.69,0.25 -13,0c-3.21,0.73 -5.21,2.57 -6,5.5c-0.72,-1.05 -1.72,-1.72 -3,-2c4.85,-6.67 11.02,-8.34 18.5,-5c1.97,-0.04 3.8,-0.54 5.5,-1.5c6.86,-9.96 4.53,-16.96 -7,-21c-7.33,-0.67 -14.67,-0.67 -22,0c-16.47,3.62 -24.47,13.79 -24,30.5c-0.67,-3.33 -1.33,-6.67 -2,-10c0.68,-3.7 2.18,-7.03 4.5,-10c6.82,-7.66 15.32,-12 25.5,-13c8.01,-0.07 16.01,-0.4 24,-1z" fill="#904b21" id="svg_7"/>
   <path d="m129.5,90.5c1.8,1.29 3.46,2.79 5,4.5c-1.63,0.49 -3.3,0.66 -5,0.5l0,-5z" fill="#eec26d" id="svg_8"/>
   <path d="m152.5,72.5c-0.71,0.9 -1.71,1.24 -3,1c1.05,-3.16 1.05,-6.16 0,-9c-4.4,-3.36 -9.07,-6.36 -14,-9c-4.41,-5.83 -8.58,-11.83 -12.5,-18a46.98,46.98 0 0 1 -6.5,-5c0.5,-1.38 1.5,-2.05 3,-2c6.03,3.11 11.53,2.45 16.5,-2c1.22,-5.44 0.05,-10.28 -3.5,-14.5c-6.94,-7.18 -14.6,-8.18 -23,-3c-1.51,1.47 -2.17,3.31 -2,5.5c1.31,3.96 2.64,7.96 4,12c-12.78,-3.01 -24.61,-1.01 -35.5,6c-1.26,-0.35 -1.59,-1.02 -1,-2c5.08,-3.81 7.08,-8.81 6,-15c-3.13,-2.71 -6.8,-4.05 -11,-4c-5.68,1.19 -10.35,4.19 -14,9c-2.03,4.79 -1.7,9.46 1,14c3.27,1.6 6.77,2.43 10.5,2.5c-8.58,6.32 -13.75,14.82 -15.5,25.5c-1.62,14.63 0.55,28.63 6.5,42l0,2c-3.16,-0.89 -5.16,0.44 -6,4c1.11,2.28 2.45,4.45 4,6.5c-0.79,1.63 -1.79,3.13 -3,4.5c3.74,3.18 4.91,7.18 3.5,12c-2.1,3.21 -3.94,6.54 -5.5,10c1.77,3.27 4.1,6.1 7,8.5c1.08,0.47 2.08,0.3 3,-0.5c0.67,0 1,0.33 1,1c-7.99,18.82 -4.65,35.66 10,50.5c3.23,2.11 6.56,3.94 10,5.5c2.95,1.96 6.28,3.13 10,3.5c5.52,0.82 10.85,0.65 16,-0.5c0.88,0.13 1.54,-0.2 2,-1c-1.69,-2.73 -3.36,-5.4 -5,-8c0.71,-0.9 1.71,-1.24 3,-1c-0.27,1.6 0.07,2.93 1,4c3.03,5.37 7.7,8.53 14,9.5c6.48,1.18 11.98,-0.66 16.5,-5.5c10.56,-17.88 5.56,-26.22 -15,-25c-1.03,-0.34 -1.53,-1 -1.5,-2c8.82,-2.77 16.32,-0.77 22.5,6c1.56,2.46 2.56,5.12 3,8l2,-2c1.59,5.09 4.76,8.75 9.5,11c2.33,1.33 4.67,1.33 7,0c5.66,-1.95 8.99,-5.95 10,-12c1.99,-3.9 2.32,-7.9 1,-12c-2.83,-10.08 -9.17,-13.25 -19,-9.5c-2.46,2.41 -4.29,5.24 -5.5,8.5c-0.33,4.67 -0.67,9.33 -1,14c-0.67,-5.67 -0.67,-11.33 0,-17c1.29,-2.29 2.96,-4.29 5,-6c0.92,-6.48 0.42,-12.81 -1.5,-19c-0.33,-3 1,-4.33 4,-4c-0.64,0.98 -1.31,1.98 -2,3c2.34,5.4 3.51,11.06 3.5,17c3.41,-1.12 6.91,-1.29 10.5,-0.5c9.88,9.29 11.72,20.13 5.5,32.5c-5.27,7.96 -12.44,10.12 -21.5,6.5a34.86,34.86 0 0 1 -6.5,-7.5c-3.91,3.85 -6.75,8.35 -8.5,13.5a35.34,35.34 0 0 1 -13.5,5.5c-5.19,-1.23 -10.36,-2.56 -15.5,-4c-19.83,3.56 -36.33,-2.11 -49.5,-17c-4.64,-8.42 -7.14,-17.42 -7.5,-27c0.58,-5.67 0.74,-11.34 0.5,-17c-6.89,-4.67 -8.23,-10.67 -4,-18c1.79,-1.28 2.95,-2.94 3.5,-5c-1.62,-2.9 -2.95,-5.9 -4,-9c-0.11,-1.87 0.56,-3.37 2,-4.5c-4.13,-5.08 -3.8,-9.91 1,-14.5c-6.65,-16.69 -7.49,-33.69 -2.5,-51c2.22,-4.6 5.05,-8.77 8.5,-12.5c-6.38,-1.39 -9.38,-5.39 -9,-12c1.59,-8.27 6.25,-14.27 14,-18c14.43,-3.25 20.59,2.25 18.5,16.5c1.94,-1.36 4.11,-2.2 6.5,-2.5c5.05,-0.78 10.05,-0.61 15,0.5l1,-1c-5.03,-12.34 -0.7,-18.68 13,-19c15.24,1.73 21.41,10.06 18.5,25c-3.41,3.41 -7.58,5.41 -12.5,6c4.08,4.49 7.41,9.49 10,15a65.83,65.83 0 0 1 16.5,12c0.85,3.09 0.35,5.92 -1.5,8.5c0.59,0.46 1.26,0.63 2,0.5z" fill="#88482f" id="svg_9"/>
   <path d="m113.5,19.5c3.94,3.4 8.61,4.9 14,4.5c-3.57,1.84 -7.24,1.84 -11,0c-1.64,-1.13 -2.64,-2.63 -3,-4.5z" fill="#b67e3f" id="svg_10"/>
   <path d="m144.5,98.5c1.07,-0.93 2.4,-1.27 4,-1l0,11c-0.76,3.53 -2.09,6.86 -4,10c0.21,0.59 0.54,1.09 1,1.5c3.33,0.67 6.67,0.67 10,0c2.15,-3.97 4.81,-7.47 8,-10.5c0.03,1.7 0.69,3.03 2,4c-4.62,0.63 -6.62,3.29 -6,8c-5.88,1.64 -11.54,1.31 -17,-1a64.09,64.09 0 0 0 -7,6.5c-11.08,2.5 -21.91,1.67 -32.5,-2.5c-0.5,0.17 -1,0.33 -1.5,0.5c0.95,0.72 1.12,1.55 0.5,2.5a11.51,11.51 0 0 1 -3.5,-5c-1.4,3.36 -2.9,6.7 -4.5,10c-1.11,1.83 -2.61,2.66 -4.5,2.5c4.79,-3.74 6.62,-8.58 5.5,-14.5a36.17,36.17 0 0 1 -3.5,4.5c-0.83,0.69 -1.5,0.52 -2,-0.5c4.49,-3.57 6.32,-8.23 5.5,-14c-4.63,13.05 -13.46,16.89 -26.5,11.5c-3.15,-2.46 -5.15,-5.63 -6,-9.5l0,-3l-4,0l0,-3c0.62,0.11 1.12,0.44 1.5,1c1.14,-2.24 1.97,-4.58 2.5,-7c0.67,3.33 1.33,6.67 2,10c0.46,8.12 4.79,12.12 13,12c8.7,-0.23 13.2,-4.56 13.5,-13c0.71,-0.88 1.54,-1.55 2.5,-2c1.28,0.28 2.28,0.95 3,2c0.88,2.85 1.05,5.85 0.5,9c4.91,3.64 10.41,6.14 16.5,7.5c21.28,3.22 32.62,-5.94 34,-27.5l-3,0z" fill="#90391b" id="svg_11"/>
   <path d="m140.5,110.5c-1.41,0.47 -2.07,1.47 -2,3c-5.83,2.19 -10.66,0.86 -14.5,-4c-1.54,-5.64 0.63,-8.64 6.5,-9c3.33,0.55 6.66,1.05 10,1.5c1.18,2.8 1.18,5.63 0,8.5z" fill="#82361b" id="svg_12"/>
   <path d="m138.5,113.5c-0.07,-1.53 0.59,-2.53 2,-3c-0.93,7.75 -5.43,11.41 -13.5,11c-5.85,-0.1 -10.19,-2.76 -13,-8c-1.28,1.15 -1.61,0.81 -1,-1l2,-2c3.23,8.62 9.4,11.45 18.5,8.5c2.58,-1.08 4.25,-2.91 5,-5.5z" fill="#b78141" id="svg_13"/>
   <path d="m153.5,72.5c10.83,4.91 15.83,13.41 15,25.5c0.02,4.42 -0.98,8.59 -3,12.5c1.97,3.05 2.47,6.38 1.5,10c-4.46,4.17 -8.63,8.66 -12.5,13.5c5.49,0.73 8.82,3.73 10,9c-0.5,3.05 -1.83,5.55 -4,7.5l0,-3c2.08,-2.01 2.41,-4.34 1,-7c-4.69,-0.95 -8.69,-3.11 -12,-6.5c4.61,-4.07 9.11,-8.23 13.5,-12.5c1.71,-2.41 2.54,-5.08 2.5,-8c-1.31,-0.97 -1.97,-2.3 -2,-4c1.37,-4.2 2.04,-8.54 2,-13c0.02,-11.33 -5.32,-18.66 -16,-22c1.98,0.34 3.32,-0.32 4,-2z" fill="#8c4832" id="svg_14"/>
   <path d="m58.5,108.5l0,1c3.93,9.45 7.43,19.12 10.5,29c0.33,-1.33 0.67,-2.67 1,-4c0.72,0.95 1.55,1.12 2.5,0.5a21.81,21.81 0 0 1 -6,-7.5c1.33,-0.33 2.67,-0.67 4,-1c-6.22,-3.12 -9.39,-8.12 -9.5,-15c0.38,0.56 0.88,0.89 1.5,1c0.85,3.87 2.85,7.04 6,9.5c13.04,5.39 21.87,1.55 26.5,-11.5c0.82,5.77 -1.01,10.43 -5.5,14c0.5,1.02 1.17,1.19 2,0.5c1.29,-1.41 2.45,-2.91 3.5,-4.5c1.12,5.92 -0.71,10.76 -5.5,14.5c1.89,0.16 3.39,-0.67 4.5,-2.5c1.6,-3.3 3.1,-6.64 4.5,-10c0.72,1.98 1.88,3.65 3.5,5c0.62,-0.95 0.45,-1.78 -0.5,-2.5c0.5,-0.17 1,-0.33 1.5,-0.5c10.59,4.17 21.42,5 32.5,2.5c2.18,-2.35 4.52,-4.52 7,-6.5c5.46,2.31 11.12,2.64 17,1c-0.62,-4.71 1.38,-7.37 6,-8c0.04,2.92 -0.79,5.59 -2.5,8c-4.39,4.27 -8.89,8.43 -13.5,12.5c3.31,3.39 7.31,5.55 12,6.5c1.41,2.66 1.08,4.99 -1,7c-1.26,0.4 -2.42,1.07 -3.5,2c-3.47,-2.77 -2.97,-4.77 1.5,-6c-2.36,-1.21 -4.53,-0.87 -6.5,1c-2.79,-1.02 -5.62,-1.18 -8.5,-0.5c-19.54,13.63 -41.2,18.63 -65,15a39.7,39.7 0 0 1 -8,-7c-3.62,-2.37 -6.62,-1.87 -9,1.5c-0.92,0.8 -1.92,0.97 -3,0.5c-2.9,-2.4 -5.23,-5.23 -7,-8.5c1.56,-3.46 3.4,-6.79 5.5,-10c1.41,-4.82 0.24,-8.82 -3.5,-12c1.21,-1.37 2.21,-2.87 3,-4.5a39.3,39.3 0 0 1 -4,-6.5c0.84,-3.56 2.84,-4.89 6,-4z" fill="#f53e3c" id="svg_15"/>
   <path d="m58.5,109.5l4,0l0,3c-0.62,-0.11 -1.12,-0.44 -1.5,-1c0.11,6.88 3.28,11.88 9.5,15c-1.33,0.33 -2.67,0.67 -4,1a21.81,21.81 0 0 0 6,7.5c-0.95,0.62 -1.78,0.45 -2.5,-0.5c-0.33,1.33 -0.67,2.67 -1,4c-3.07,-9.88 -6.57,-19.55 -10.5,-29z" fill="#b83224" id="svg_16"/>
   <path d="m131.5,135.5c1.37,-0.16 2.71,0.01 4,0.5c-2.67,0.67 -2.67,1.33 0,2c-7.07,2.18 -14.07,4.18 -21,6a7.38,7.38 0 0 0 3,-2a51.1,51.1 0 0 1 -7,0c7.13,-2.1 14.13,-4.27 21,-6.5z" fill="#b03222" id="svg_17"/>
   <path d="m156.5,154.5c1.92,6.19 2.42,12.52 1.5,19a21.64,21.64 0 0 0 -5,6c-0.67,5.67 -0.67,11.33 0,17c0.33,-4.67 0.67,-9.33 1,-14c1.21,-3.26 3.04,-6.09 5.5,-8.5c9.83,-3.75 16.17,-0.58 19,9.5c0.16,1.37 -0.01,2.71 -0.5,4c-2.9,-8.08 -8.06,-10.08 -15.5,-6c-0.83,1 -1.67,2 -2.5,3c-0.5,4.99 -0.67,9.99 -0.5,15c0.32,2.81 1.32,5.31 3,7.5c-0.59,0.46 -1.26,0.63 -2,0.5c-4.74,-2.25 -7.91,-5.91 -9.5,-11l-2,2c-0.44,-2.88 -1.44,-5.54 -3,-8c-6.18,-6.77 -13.68,-8.77 -22.5,-6c-3.64,-6 -8.97,-9.84 -16,-11.5c-6,-0.67 -12,-0.67 -18,0a12.74,12.74 0 0 0 -6,3c-4.7,-0.45 -8.53,1.05 -11.5,4.5c-0.67,0.67 -0.67,1.33 0,2c1.84,-2.88 4.34,-4.38 7.5,-4.5c-6.59,5.34 -9.76,12.18 -9.5,20.5c2.55,5.2 6.72,8.37 12.5,9.5c4.42,0.77 8.75,0.6 13,-0.5l10,-3c1.64,2.6 3.31,5.27 5,8c-0.46,0.8 -1.12,1.13 -2,1c-8.84,0.3 -17.5,-0.7 -26,-3a74.56,74.56 0 0 1 -10,-5.5c-14.65,-14.84 -17.99,-31.68 -10,-50.5c1.34,-1.61 3,-2.11 5,-1.5c3.05,4.18 7.05,6.85 12,8c24.74,3.11 47.24,-2.39 67.5,-16.5c2.14,0.74 4.14,1.74 6,3c0.9,2.57 2.06,4.9 3.5,7z" fill="#f4cb6f" id="svg_18"/>
   <path d="m160.5,147.5l0,3c-3,-0.33 -4.33,1 -4,4c-1.44,-2.1 -2.6,-4.43 -3.5,-7a25.52,25.52 0 0 0 -6,-3c-20.26,14.11 -42.76,19.61 -67.5,16.5c-4.95,-1.15 -8.95,-3.82 -12,-8c-2,-0.61 -3.66,-0.11 -5,1.5c0,-0.67 -0.33,-1 -1,-1c2.38,-3.37 5.38,-3.87 9,-1.5c2.37,2.71 5.04,5.04 8,7c23.8,3.63 45.46,-1.37 65,-15c2.88,-0.68 5.71,-0.52 8.5,0.5c1.97,-1.87 4.14,-2.21 6.5,-1c-4.47,1.23 -4.97,3.23 -1.5,6c1.08,-0.93 2.24,-1.6 3.5,-2z" fill="#913b1c" id="svg_19"/>
   <path d="m123.5,184.5c-0.03,1 0.47,1.66 1.5,2c20.56,-1.22 25.56,7.12 15,25c-4.52,4.84 -10.02,6.68 -16.5,5.5c-6.3,-0.97 -10.97,-4.13 -14,-9.5l0,-3c2.6,-0.14 4.93,-0.98 7,-2.5c-1.88,-0.58 -3.71,-0.41 -5.5,0.5a9.3,9.3 0 0 1 -2.5,-2c-4.5,2.6 -9.17,4.6 -14,6c-7.01,0.59 -13.67,-0.57 -20,-3.5c-3.28,-4.18 -3.78,-8.68 -1.5,-13.5c8.14,-13.33 19.98,-18.16 35.5,-14.5c5.67,2.18 10.67,5.34 15,9.5zm54,11c-1.01,6.05 -4.34,10.05 -10,12c-1.89,0.2 -3.39,-0.46 -4.5,-2a51.24,51.24 0 0 1 -1.5,-16c0.08,-6.92 3.42,-9.42 10,-7.5c4.59,3.23 6.59,7.73 6,13.5z" fill="#f5cd70" id="svg_20"/>
   <path d="m178.5,183.5c1.32,4.1 0.99,8.1 -1,12c0.59,-5.77 -1.41,-10.27 -6,-13.5c-6.58,-1.92 -9.92,0.58 -10,7.5c-0.67,3.33 -1.33,6.67 -2,10c-0.17,-5.01 0,-10.01 0.5,-15c0.83,-1 1.67,-2 2.5,-3c7.44,-4.08 12.6,-2.08 15.5,6c0.49,-1.29 0.66,-2.63 0.5,-4z" fill="#945324" id="svg_21"/>
   <path d="m123.5,184.5c-4.33,-4.16 -9.33,-7.32 -15,-9.5c-15.52,-3.66 -27.36,1.17 -35.5,14.5c-2.28,4.82 -1.78,9.32 1.5,13.5c6.33,2.93 12.99,4.09 20,3.5c0.67,0 1,0.33 1,1c-4.25,1.1 -8.58,1.27 -13,0.5c-5.78,-1.13 -9.95,-4.3 -12.5,-9.5c-0.26,-8.32 2.91,-15.16 9.5,-20.5c-3.16,0.12 -5.66,1.62 -7.5,4.5c-0.67,-0.67 -0.67,-1.33 0,-2c2.97,-3.45 6.8,-4.95 11.5,-4.5a12.74,12.74 0 0 1 6,-3c6,-0.67 12,-0.67 18,0c7.03,1.66 12.36,5.5 16,11.5z" fill="#935122" id="svg_22"/>
   <path d="m109.5,207.5c-0.93,-1.07 -1.27,-2.4 -1,-4c-1.29,-0.24 -2.29,0.1 -3,1l-10,3c0,-0.67 -0.33,-1 -1,-1c4.83,-1.4 9.5,-3.4 14,-6a9.3,9.3 0 0 0 2.5,2c1.79,-0.91 3.62,-1.08 5.5,-0.5c-2.07,1.52 -4.4,2.36 -7,2.5l0,3z" fill="#bb8643" id="svg_23"/>
   <path d="m161.5,189.5c-0.34,5.43 0.16,10.76 1.5,16c1.11,1.54 2.61,2.2 4.5,2c-2.33,1.33 -4.67,1.33 -7,0c0.74,0.13 1.41,-0.04 2,-0.5c-1.68,-2.19 -2.68,-4.69 -3,-7.5c0.67,-3.33 1.33,-6.67 2,-10z" fill="#b98344" id="svg_24"/>
   <path d="m82.5,210.5c8.5,2.3 17.16,3.3 26,3c-5.15,1.15 -10.48,1.32 -16,0.5c-3.72,-0.37 -7.05,-1.54 -10,-3.5z" fill="#b4783f" id="svg_25"/>
  </symbol>
 </defs>
 <g class="layer">
  <title>Layer 1</title>
  <g id="svg_26">
   <path d="m296.7,0.19c133.77,-3.81 234.66,48.86 302.71,158c50.2,90.52 57.52,184.19 21.96,281c-39.01,95.31 -109.25,159.14 -210.7,191.5c-126,30.5 -233.52,0.66 -322.58,-89.5c-74.53,-85.1 -100.67,-182.43 -78.42,-292c26.95,-107.42 93,-183.58 198.15,-228.5c28.86,-10.49 58.48,-17.32 88.88,-20.5z" fill="#c96458" id="svg_28"/>
   <path d="m296.7,36.19l6.27,0c0.47,6.69 1.17,13.36 2.09,20c-15.67,1.8 -31.36,3.46 -47.05,5c-0.58,-5.68 -1.27,-11.34 -2.09,-17c0.12,-0.94 0.46,-1.78 1.05,-2.5a794.53,759.85 0 0 0 39.73,-5.5z" fill="#fcf6f5" id="svg_29"/>
   <path d="m362.58,36.19c2.74,0.98 5.18,2.48 7.32,4.5c-1.22,1.87 -1.05,3.7 0.52,5.5c6.59,8.64 14.79,15.47 24.57,20.5a32.74,31.31 0 0 1 -5.23,4.5a47.96,45.87 0 0 1 -12.02,-8c-0.51,1.63 -0.69,3.3 -0.52,5c-11.19,-1.05 -22.35,-2.39 -33.46,-4c0.17,-1.7 -0.01,-3.37 -0.52,-5a106.39,101.75 0 0 1 -12.55,6a41.63,39.81 0 0 0 -4.71,-6c14.92,-3.95 27.12,-11.62 36.6,-23z" fill="#fcf7f6" id="svg_30"/>
   <path d="m290.43,43.19l5.23,0c0.07,2.71 0.43,5.37 1.05,8c-10.35,1.13 -20.63,2.46 -30.85,4c-0.86,-2.62 -1.38,-5.28 -1.57,-8c8.89,-1.1 17.61,-2.43 26.14,-4zm72.15,3c3.93,4.94 8.11,9.77 12.55,14.5c-9.6,0.61 -19.01,-0.39 -28.23,-3c5.68,-3.37 10.91,-7.2 15.68,-11.5z" fill="#cb6a5e" id="svg_31"/>
   <path d="m214.1,50.19c2.74,0.98 5.18,2.48 7.32,4.5c-6.31,3.68 -12.58,7.34 -18.82,11c0.4,1.63 1.09,3.13 2.09,4.5c8.08,-3.28 15.93,-6.95 23.53,-11c1.88,2.01 2.4,4.18 1.57,6.5c-5.57,2.33 -11.16,4.67 -16.73,7c7.96,1.8 15.98,1.96 24.05,0.5c0.36,2.16 0.36,4.49 0,7c-6.24,0.97 -12.52,1.14 -18.82,0.5c-3.45,-0.49 -6.59,-1.65 -9.41,-3.5l-1.05,1c1.39,2.67 2.79,5.33 4.18,8c-2.14,2.22 -4.58,2.89 -7.32,2a63.06,60.31 0 0 0 -4.18,-8c-3.17,9.39 -8.92,17.05 -17.25,23c-1.88,-1.82 -4.15,-2.98 -6.8,-3.5c7.02,-5.04 12.95,-11.04 17.78,-18c-6.79,1.78 -13.41,4.28 -19.87,7.5c-1.31,-1.5 -2.35,-3.17 -3.14,-5c8.91,-3.76 17.62,-7.76 26.14,-12c-0.35,-1.67 -1.39,-2.67 -3.14,-3c-6.16,2.53 -12.25,5.19 -18.3,8c-2.05,-0.79 -3.62,-2.13 -4.71,-4l30.32,-14.5c4.43,-2.61 8.62,-5.44 12.55,-8.5z" fill="#fcf8f7" id="svg_32"/>
   <path d="m442.05,57.19c1.84,0.96 3.93,1.29 6.27,1c-0.32,3.54 0.02,6.88 1.05,10c8.43,3.53 16.79,7.36 25.1,11.5c-2.24,3.79 -4.33,7.62 -6.27,11.5c-5.52,-1.57 -6.57,-4.57 -3.14,-9a436.28,417.24 0 0 0 -46.01,-18.5c-0.83,2.37 -2.05,4.53 -3.66,6.5c-2.48,-0.79 -4.74,-1.96 -6.8,-3.5c2.42,-4.12 4.68,-8.29 6.8,-12.5c8.35,3.83 16.89,7.16 25.62,10c-0.31,-2.56 0.03,-4.89 1.05,-7z" fill="#fdf8f8" id="svg_33"/>
   <path d="m298.79,60.19l9.41,0c1.28,7.63 2.32,15.3 3.14,23c-2.83,0.08 -5.62,0.41 -8.37,1c-0.89,-5.64 -1.59,-11.31 -2.09,-17c-11.91,0.86 -23.76,2.2 -35.55,4c0.92,5.97 1.62,11.97 2.09,18c-2.75,0.59 -5.53,0.92 -8.37,1c-0.27,-7.77 -1.32,-15.44 -3.14,-23c14.39,-2.63 28.67,-4.96 42.87,-7z" fill="#fcf7f6" id="svg_34"/>
   <path d="m442.05,57.19l7.32,0l0,11c-1.02,-3.12 -1.37,-6.46 -1.05,-10c-2.34,0.29 -4.43,-0.04 -6.27,-1z" fill="#eac4bf" id="svg_35"/>
   <path d="m330.16,69.19c19.14,2.66 38.3,4.99 57.51,7l0,6c-9.65,-0.84 -19.24,-2.18 -28.76,-4c-0.87,0.17 -1.75,0.33 -2.61,0.5c1.84,0.97 2.19,2.13 1.05,3.5c-4.89,2.67 -9.77,5.34 -14.64,8a147.8,141.35 0 0 0 26.14,2.5a22.39,21.41 0 0 1 -5.23,-6c0.83,-1.96 2.23,-3.46 4.18,-4.5a146.29,139.9 0 0 1 14.64,18c-3.54,5.38 -6.68,5.21 -9.41,-0.5a319.75,305.79 0 0 0 -41.83,-2.5c-0.35,-2.67 -0.7,-5.33 -1.05,-8c8.03,-2.01 15,-5.84 20.91,-11.5c-7.26,-1.42 -14.58,-2.25 -21.96,-2.5c-0.19,-2.12 0.17,-4.12 1.05,-6z" fill="#fcf6f5" id="svg_36"/>
   <path d="m415.91,71.19c6.59,1.9 13.04,4.23 19.34,7c1.97,-1.12 2.83,-2.79 2.61,-5c7.07,-0.27 8.8,2.4 5.23,8c5.76,2.92 11.69,5.59 17.78,8c1.16,1.22 1.34,2.56 0.52,4c-4.2,8.7 -8.39,17.36 -12.55,26c-3.69,-0.52 -5.96,-2.52 -6.8,-6a73.37,70.17 0 0 1 -10.98,-5c-2.27,4.33 -4.53,8.67 -6.8,13c-2.49,-0.85 -4.58,-2.18 -6.27,-4c2.51,-3.78 4.08,-7.78 4.71,-12c-3.84,-1.67 -7.66,-3.33 -11.5,-5c-2.92,2.58 -5.53,2.25 -7.84,-1c4.39,-9.28 8.57,-18.61 12.55,-28z" fill="#fdf9f8" id="svg_37"/>
   <path d="m279.97,72.19l8.37,0c1.79,12.08 -2.75,21.25 -13.59,27.5a95.67,91.49 0 0 1 -17.78,6.5c-0.29,-2.46 -1.34,-4.63 -3.14,-6.5c5.11,-1.81 10.34,-3.48 15.68,-5c8.97,-5 12.45,-12.5 10.46,-22.5z" fill="#fdf8f8" id="svg_38"/>
   <path d="m420.09,79.19c4.53,1.33 9.07,2.67 13.59,4c-0.12,2.28 -0.98,4.28 -2.61,6a73.37,70.17 0 0 0 -10.98,-5c-0.97,-1.59 -0.97,-3.26 0,-5z" fill="#cb6b60" id="svg_39"/>
   <path d="m247.56,104.19c-0.97,1.07 -1.33,2.4 -1.05,4c-6.13,-0.32 -12.06,0.01 -17.78,1c-2.12,-0.16 -4.21,0 -6.27,0.5a94.79,90.65 0 0 1 -25.62,20.5a19.62,18.76 0 0 0 -5.75,-4.5c7.96,-4.61 15.62,-9.61 23,-15c-5.19,0.35 -10.41,0.85 -15.68,1.5c0.09,-2.18 0.78,-4.18 2.09,-6l-1.05,-1c-5.81,2.57 -11.56,5.24 -17.25,8c-0.87,-1.67 -1.75,-3.33 -2.61,-5c6.4,-3.22 13.02,-6.22 19.87,-9a22.12,21.15 0 0 0 1.05,-9c2.88,-0.31 5.66,0.02 8.37,1a7.13,6.82 0 0 0 -1.05,4c10.78,-3.9 21.4,-8.23 31.89,-13c1.59,1.2 2.81,2.7 3.66,4.5c-4.8,2.26 -9.68,4.42 -14.64,6.5a44.93,42.97 0 0 0 -3.14,10c7.29,-0.96 14.61,-1.63 21.96,-2l0,3z" fill="#fdf8f8" id="svg_40"/>
   <path d="m291.48,83.19c9.99,1.63 19.4,4.63 28.23,9c-0.67,2.29 -2.06,3.96 -4.18,5c-8.14,-3.15 -16.5,-5.48 -25.1,-7c0.51,-2.31 0.87,-4.64 1.05,-7z" fill="#fcf8f7" id="svg_41"/>
   <path d="m439.96,87.19a49.13,46.99 0 0 1 12.55,5c0.58,1.5 0.58,3.17 0,5a92.76,88.71 0 0 1 -12.55,-4.5c-1.09,-1.78 -1.09,-3.61 0,-5.5zm-24.05,2c3.89,1.47 7.73,3.13 11.5,5c1.38,2.36 0.68,4.03 -2.09,5c-4.18,-1.33 -8.02,-3.17 -11.5,-5.5c0.56,-1.58 1.27,-3.08 2.09,-4.5z" fill="#cc6c60" id="svg_42"/>
   <path d="m503.74,89.19c2.49,1.19 4.58,2.86 6.27,5a73.87,70.65 0 0 0 -9.41,11c1.92,1.34 3.66,2.84 5.23,4.5a1016.52,972.15 0 0 1 -3.66,5.5a22.63,21.64 0 0 0 -6.27,-5a21.07,20.15 0 0 0 -3.66,4a7.61,7.28 0 0 1 2.09,3c-0.89,3.62 -1.23,7.28 -1.05,11l-7.32,0c0.14,-2.42 0.3,-4.75 0.52,-7a309.15,295.66 0 0 0 -19.87,22c-2.4,-1.58 -3.8,-3.58 -4.18,-6c5.71,-7.13 11.81,-13.96 18.3,-20.5c-4.63,1.78 -9.52,3.28 -14.64,4.5c-0.28,-2.62 0.06,-5.12 1.05,-7.5a66.17,63.28 0 0 0 21.44,-7.5c-0.64,-2.96 -2.55,-5.13 -5.75,-6.5a19.62,18.76 0 0 0 4.71,-5.5a58.37,55.82 0 0 0 6.8,6c3.52,-3.37 6.66,-7.04 9.41,-11z" fill="#fcf8f7" id="svg_43"/>
   <path d="m185.87,128.19c1.01,2.11 1.36,4.44 1.05,7c-7.12,0.99 -14.44,1.32 -21.96,1c-0.53,8.73 -3.33,16.73 -8.37,24c-1.69,-0.65 -3.43,-1.15 -5.23,-1.5c-0.48,-0.41 -0.83,-0.91 -1.05,-1.5c4.46,-7.14 7.26,-14.81 8.37,-23a54.08,51.72 0 0 1 -17.25,-7c-0.5,0.95 -0.68,1.95 -0.52,3c-1.43,-0.16 -2.83,0.01 -4.18,0.5c0.99,0.72 1.17,1.55 0.52,2.5a41.23,39.43 0 0 0 -10.98,10.5c3.63,5.09 7.63,9.92 12.02,14.5c1.9,-4.94 3.65,-9.94 5.23,-15c1.76,-1.1 3.33,-0.77 4.71,1c0.35,0.67 0.7,1.33 1.05,2a474,453.31 0 0 0 -7.32,23c-2.47,-0.17 -4.9,-0.51 -7.32,-1c-0.36,-3.02 -1.58,-5.68 -3.66,-8a370.56,354.39 0 0 1 -15.16,-17c4.22,-3.68 8.41,-7.34 12.55,-11c-3.15,-3.37 -6.28,-6.71 -9.41,-10l-14.64,11c-1.75,-1 -3.14,-2.33 -4.18,-4c6.62,-5.49 13.42,-10.83 20.39,-16c4.18,4.67 8.37,9.33 12.55,14c-0.14,-9.29 -2.39,-18.12 -6.8,-26.5c1.64,-1.81 3.73,-2.98 6.27,-3.5a63.2,60.44 0 0 1 4.71,13c5.98,-5.75 12.42,-10.59 19.34,-14.5c0.79,1.51 1.84,2.85 3.14,4a24.54,23.47 0 0 0 -5.23,5c5.48,7.39 9.14,15.55 10.98,24.5c1.82,0.63 3.73,0.96 5.75,1c4.88,-0.67 9.77,-1.34 14.64,-2z" fill="#fdf8f8" id="svg_44"/>
   <path d="m218.28,97.19c0.92,-0.13 1.61,0.2 2.09,1c-0.7,1.67 -1.39,3.33 -2.09,5a46.77,44.73 0 0 1 -11.5,3c-0.27,-1.48 0.07,-2.81 1.05,-4c3.59,-1.71 7.07,-3.38 10.46,-5z" fill="#cd6f63" id="svg_45"/>
   <path d="m434.73,98.19c4.63,1.05 9.17,2.39 13.59,4c-0.06,2.2 -0.76,4.2 -2.09,6c-3.92,-1.47 -7.76,-3.14 -11.5,-5c-0.97,-1.59 -0.97,-3.26 0,-5z" fill="#cb6a5f" id="svg_46"/>
   <path d="m510.01,106.19c4.8,3.25 9.33,6.91 13.59,11c1.19,-2.56 2.06,-5.23 2.61,-8c1.86,0.74 3.79,1.41 5.75,2c0.86,2.95 0.86,5.95 0,9c-1.81,-0.31 -3.54,-0.48 -5.23,-0.5c4.76,4.05 9.63,7.89 14.64,11.5c-1.39,1.67 -2.79,3.33 -4.18,5a388.08,371.14 0 0 1 -18.3,-15c0.02,1.61 0.19,3.27 0.52,5c-12.9,-0.74 -14.12,1.59 -3.66,7a36.36,34.77 0 0 0 7.84,-3c1.66,2.17 3.05,4.5 4.18,7c-14.64,4.69 -29.63,6.02 -44.96,4c-0.17,-2.69 0,-5.35 0.52,-8c7.93,2.77 16.11,3.61 24.57,2.5a54.6,52.22 0 0 0 -10.46,-7c-1.41,-2.79 -0.89,-5.29 1.57,-7.5c5.67,1.32 11.06,0.49 16.21,-2.5a87.89,84.05 0 0 0 -8.37,-7.5c0.79,-1.86 1.84,-3.53 3.14,-5z" fill="#fcf8f8" id="svg_47"/>
   <path d="m247.56,104.19l0,5l-18.82,0c5.72,-0.99 11.65,-1.32 17.78,-1c-0.28,-1.6 0.07,-2.93 1.05,-4z" fill="#e0a59e" id="svg_48"/>
   <path d="m147.18,109.19c1.05,-0.09 1.91,0.25 2.61,1c3.98,5.61 6.78,11.61 8.37,18c-5.08,-2.23 -10.13,-4.57 -15.16,-7c-1.36,0.59 -2.23,1.59 -2.61,3c-0.7,-3 -0.7,-6 0,-9c2.45,-1.9 4.71,-3.9 6.8,-6z" fill="#cb6a5f" id="svg_49"/>
   <path d="m294.61,122.19c90.1,-4.84 158.59,29.16 205.47,102c31.09,57.75 33.87,116.75 8.37,177c-35.31,69.73 -93.34,109.23 -174.1,118.5c-74.08,3.51 -134.55,-21.99 -181.42,-76.5c-47.8,-63.79 -56.16,-132.12 -25.1,-205c34.61,-66.28 90.21,-104.94 166.78,-116z" fill="#f3af82" id="svg_50"/>
   <path d="m185.87,128.19c0.06,-0.54 0.41,-0.88 1.05,-1c1.36,2.81 1.36,5.48 0,8c0.31,-2.56 -0.03,-4.89 -1.05,-7z" fill="#e5b7b1" id="svg_51"/>
   <path d="m508.97,159.19l0,10l-7.32,0l0,-15c-8.99,0.63 -17.7,-0.54 -26.14,-3.5c-0.98,-2.38 -1.33,-4.88 -1.05,-7.5c14.77,5.31 29.59,5.31 44.44,0c2.3,1.37 3.87,3.37 4.71,6a113.38,108.43 0 0 1 -14.64,4l0,6z" fill="#fdf9f9" id="svg_52"/>
   <path d="m560.2,142.19c11.41,16.76 23.09,33.43 35.03,50c-0.14,2.64 -1.7,4.31 -4.71,5c-4.78,-6.12 -9.31,-12.46 -13.59,-19c-3.79,-1.16 -7.62,-1.32 -11.5,-0.5c-13.51,8.38 -26.93,16.88 -40.26,25.5c-1.57,-2.17 -3.14,-4.33 -4.71,-6.5a882.49,843.97 0 0 0 34.51,-21c-4.18,-0.33 -8.37,-0.67 -12.55,-1a595.92,569.91 0 0 1 -18.82,-5.5c0.51,-2.31 0.87,-4.64 1.05,-7c6.98,2.06 13.96,4.23 20.91,6.5c8.68,1.29 17.39,1.62 26.14,1a931.89,891.21 0 0 1 -16.73,-23.5c1.79,-1.39 3.53,-2.72 5.23,-4z" fill="#fcf8f7" id="svg_53"/>
   <path d="m86.53,143.19c2.32,0.61 4.07,1.95 5.23,4l-16.21,23c-0.64,2.54 -0.12,4.88 1.57,7c5.67,-8.51 11.6,-16.84 17.78,-25c4.1,2.54 8.1,5.21 12.02,8c2.25,-4.81 4.86,-4.81 7.84,0c-0.7,1 -1.39,2 -2.09,3a37.82,36.17 0 0 0 8.37,6a9.78,9.35 0 0 0 3.14,-3c5.64,1.13 6.33,3.3 2.09,6.5c6.5,4.76 6.68,9.93 0.52,15.5c-2.31,-0.62 -4.23,-1.79 -5.75,-3.5c1.6,-1.58 2.12,-3.41 1.57,-5.5c-5.23,7.33 -10.46,14.67 -15.68,22c-4.45,-3.21 -8.8,-6.55 -13.07,-10c-2,5.81 -4.79,6.31 -8.37,1.5c1.5,-1.7 2.36,-3.53 2.61,-5.5c-3.06,-2.21 -6.02,-4.55 -8.89,-7c-1.96,1.44 -4.05,2.6 -6.27,3.5c2.42,0.66 4.86,1.16 7.32,1.5c-0.51,2.31 -0.87,4.64 -1.05,7c-2.55,-0.26 -4.99,-0.92 -7.32,-2c-1.25,0.35 -1.25,0.85 0,1.5c12.73,7.58 25.27,15.42 37.64,23.5c-0.65,2.25 -2.05,3.92 -4.18,5a2274.77,2175.48 0 0 1 -55.42,-35l3.66,-5c4.02,3.03 8.38,5.37 13.07,7l0,-4l4.18,0c-1.37,-6.28 -4.15,-11.95 -8.37,-17c3.21,-5 6.18,-5 8.89,0a512.02,489.67 0 0 0 15.16,-23z" fill="#fcf7f7" id="svg_54"/>
   <path d="m94.89,161.19c2.97,0.67 5.58,2.01 7.84,4c-0.14,2.6 -1.18,4.93 -3.14,7c-0.5,-0.95 -0.68,-1.95 -0.52,-3c-2.9,0.08 -5.69,-0.42 -8.37,-1.5c1.63,-2.05 3.02,-4.22 4.18,-6.5z" fill="#cc6d61" id="svg_55"/>
   <path d="m508.97,159.19c1.02,3.46 1.37,7.13 1.05,11c-3.01,0.31 -5.8,-0.03 -8.37,-1l7.32,0l0,-10z" fill="#dd9b93" id="svg_56"/>
   <path d="m107.44,169.19c3.87,1.52 7.36,3.69 10.46,6.5c-0.84,1.77 -2.06,3.27 -3.66,4.5c-0.52,-1.17 -1.39,-2 -2.61,-2.5c-2.42,-0.5 -4.85,-0.66 -7.32,-0.5c0.99,-2.64 2.04,-5.31 3.14,-8z" fill="#cc6d61" id="svg_57"/>
   <path d="m87.58,172.19c2.95,1.38 5.74,3.04 8.37,5l-3.66,5c-2.4,-1.89 -4.67,-3.89 -6.8,-6c0.71,-1.36 1.41,-2.69 2.09,-4z" fill="#cb6b5f" id="svg_58"/>
   <path d="m102.21,178.19c0.69,1.54 1.39,3.21 2.09,5c2.38,0.71 4.82,1.21 7.32,1.5a100.56,96.17 0 0 1 -5.75,7.5c-2.96,-2.17 -5.93,-4.33 -8.89,-6.5c1.88,-2.44 3.63,-4.94 5.23,-7.5z" fill="#cc6d61" id="svg_59"/>
   <path d="m561.25,184.19c2.02,0.65 4.11,0.98 6.27,1c-0.97,7.69 -2.2,15.36 -3.66,23c-0.13,2.51 -1.17,4.51 -3.14,6c-2.34,-0.87 -4.6,-1.87 -6.8,-3a834.9,798.46 0 0 0 7.32,-27z" fill="#fcf5f4" id="svg_60"/>
   <path d="m63.53,196.19c5.59,2.84 10.48,6.68 14.64,11.5c-1.65,2.29 -3.74,3.63 -6.27,4l-10.98,-10.5c0.06,-1.94 0.93,-3.6 2.61,-5z" fill="#fcf6f6" id="svg_61"/>
   <path d="m36.34,213.19c2.07,0.5 4.16,1 6.27,1.5c0.59,0.72 0.93,1.56 1.05,2.5c-2.26,6.96 -4.35,13.96 -6.27,21c2.15,2.57 4.6,5.07 7.32,7.5c15.48,4.62 31.16,8.45 47.05,11.5c-0.36,2.35 -0.88,4.69 -1.57,7c-0.59,0.52 -1.29,0.86 -2.09,1a365.12,349.18 0 0 0 -37.12,-9.5c6.49,7.41 11.37,15.74 14.64,25c-1.43,2.2 -3.52,3.7 -6.27,4.5c-4.31,-14.92 -12.33,-27.59 -24.05,-38c-3.26,8.8 -5.7,17.8 -7.32,27c-3.28,0.59 -5.72,-0.41 -7.32,-3a646.14,617.94 0 0 0 15.68,-58z" fill="#fcf7f7" id="svg_62"/>
   <path d="m602.03,216.19c2.51,0.9 4.6,2.4 6.27,4.5a143.68,137.41 0 0 1 -9.41,10.5a41.63,39.81 0 0 0 -6.27,-4.5c3.75,-3.08 6.89,-6.58 9.41,-10.5z" fill="#fcf6f5" id="svg_63"/>
   <path d="m75.03,224.19c2.72,2.01 3.76,4.51 3.14,7.5c-8.2,4.42 -16.56,8.59 -25.1,12.5c-2.72,-1.71 -3.42,-3.87 -2.09,-6.5c8.08,-4.53 16.1,-9.03 24.05,-13.5z" fill="#fcf8f7" id="svg_64"/>
   <path d="m581.12,218.19l3.14,0c0.15,3.59 0.85,7.09 2.09,10.5c-0.35,0.83 -0.7,1.67 -1.05,2.5c-8.39,2.34 -16.75,4.67 -25.1,7c-1.92,2.03 -2.45,4.36 -1.57,7c12.21,-2.64 24.24,-5.97 36.07,-10c0.62,0.21 1.14,0.54 1.57,1c1.4,4.68 2.79,9.35 4.18,14c0.89,-2.37 2.28,-4.37 4.18,-6c1.54,0.4 2.94,1.07 4.18,2c0.18,-0.5 0.35,-1 0.52,-1.5a51.39,49.15 0 0 1 -3.14,-12.5c1.84,0.14 3.59,-0.19 5.23,-1c3.83,12.65 7.65,25.32 11.5,38c-0.91,1.08 -1.96,1.25 -3.14,0.5c-5.67,-2.79 -11.06,-5.96 -16.21,-9.5c1.29,4.89 2.51,9.89 3.66,15a512.9,490.51 0 0 0 -31.37,7.5c-2.09,0.67 -4.18,0.67 -6.27,0a42.2,40.36 0 0 1 -4.18,-6.5c3.33,-5.56 6.12,-5.73 8.37,-0.5c1.51,0.78 2.91,0.61 4.18,-0.5a46.36,44.34 0 0 1 -2.09,-10l-12.55,3c-0.18,-2.36 -0.53,-4.69 -1.05,-7c3.48,-0.67 6.97,-1.33 10.46,-2c-0.08,-3.47 -0.77,-6.81 -2.09,-10a42.64,40.78 0 0 1 -12.55,2c1.88,13.19 5.72,25.86 11.5,38a22.12,21.15 0 0 1 -9.41,1c-3.13,-11.61 -6.09,-23.28 -8.89,-35c-0.25,-6.01 -0.25,-12.01 0,-18c-2.91,-1.43 -5.88,-2.76 -8.89,-4c0.84,-2.63 2.4,-4.63 4.71,-6c3.14,1.67 6.27,3.33 9.41,5c7.39,-2.19 14.88,-3.86 22.48,-5c-0.27,-2.44 -0.96,-4.77 -2.09,-7c1.52,-0.67 2.91,-1.34 4.18,-2z" fill="#fcf7f6" id="svg_65"/>
   <path d="m589.48,243.19l3.14,0c0.48,2.7 1.17,5.37 2.09,8c-0.35,1.67 -1.39,2.67 -3.14,3a39.62,37.89 0 0 1 -4.18,-9c0.77,-0.68 1.47,-1.35 2.09,-2z" fill="#cd7064" id="svg_66"/>
   <path d="m577.98,246.19l4.18,0c0.43,3.05 1.13,6.05 2.09,9c-1.3,0.86 -2.69,1.52 -4.18,2c-2.24,-3.53 -2.94,-7.19 -2.09,-11z" fill="#cb6a5f" id="svg_67"/>
   <path d="m609.35,248.19c2.16,2.96 3.04,6.29 2.61,10a49.08,46.94 0 0 1 -5.75,-3.5a85.29,81.57 0 0 1 3.14,-6.5z" fill="#ce7367" id="svg_68"/>
   <path d="m592.62,260.19c1.71,-0.21 3.28,0.12 4.71,1c0.87,2.67 1.75,5.34 2.61,8c-1.3,0.86 -2.69,1.52 -4.18,2a46.77,44.73 0 0 1 -3.14,-11z" fill="#cc6d61" id="svg_69"/>
   <path d="m584.25,262.19c3.36,2.8 4.76,6.46 4.18,11c-1.38,-0.17 -2.6,0.16 -3.66,1a28.94,27.68 0 0 1 -3.66,-11c1.35,0.24 2.39,-0.1 3.14,-1z" fill="#cd6f64" id="svg_70"/>
   <path d="m564.39,291.19c3.84,3.48 7.32,7.31 10.46,11.5c6.62,0.5 13.24,0.67 19.87,0.5l0,-9c2.53,-0.31 4.98,0.03 7.32,1c-0.99,5.27 -1.34,10.6 -1.05,16c-9.65,-0.97 -19.24,-0.97 -28.76,0c-3.33,4.86 -5.42,10.19 -6.27,16c-0.18,10.02 -0.7,20.02 -1.57,30a22,21.04 0 0 0 -7.32,-2c0.14,-11.73 1,-23.39 2.61,-35c2.23,-5.1 4.84,-9.93 7.84,-14.5c-1.63,-3.9 -4.42,-6.9 -8.37,-9c1.96,-1.7 3.7,-3.54 5.23,-5.5z" fill="#fdf8f8" id="svg_71"/>
   <path d="m44.7,323.19c-5.78,-0.32 -11.36,0.01 -16.73,1c0.61,4.31 0.95,8.64 1.05,13c3.06,0.96 6.2,1.63 9.41,2l0,-14l3.14,0c18.62,1.73 33.26,9.9 43.92,24.5a33.67,32.2 0 0 1 -4.18,5.5c-2.96,-3 -5.74,-6.16 -8.37,-9.5a89.57,85.66 0 0 0 -9.41,-6.5a31.21,29.85 0 0 0 -5.23,7.5l-4.18,0c2.09,1.67 4.18,3.33 6.27,5a53.41,51.08 0 0 0 -4.18,5.5c-7.52,-6.85 -16.41,-11.18 -26.66,-13c-0.27,4.33 -0.1,8.67 0.52,13l-7.32,0c-0.28,-19.72 -1.33,-39.39 -3.14,-59l7.32,0c0.28,6.34 0.63,12.67 1.05,19c6.61,-0.59 13.23,-1.09 19.87,-1.5c-4.03,-4.02 -8.21,-7.85 -12.55,-11.5c1.77,-1.86 3.34,-3.86 4.71,-6a186.42,178.28 0 0 1 15.16,16.5c6.26,0.5 12.54,0.67 18.82,0.5c0.18,-4.01 0,-8.01 -0.52,-12c-3.14,-1.41 -6.44,-2.41 -9.93,-3c1.15,-2.14 2.2,-4.31 3.14,-6.5c4.66,-0.07 9.02,1.1 13.07,3.5c1.58,7.27 1.93,14.6 1.05,22c-1.56,1.5 -3.47,2.34 -5.75,2.5c-10.11,0.47 -20.22,0.97 -30.32,1.5z" fill="#fcf7f7" id="svg_72"/>
   <path d="m619.81,298.19c1.73,1.93 3.47,3.93 5.23,6a101.66,97.22 0 0 1 -14.12,9c-1.96,-2.07 -3,-4.4 -3.14,-7c4.35,-2.32 8.37,-4.99 12.02,-8z" fill="#fcf6f6" id="svg_73"/>
   <path d="m625.03,344.19c-0.94,0.71 -1.3,1.71 -1.05,3l-12.55,0l0,10l-6.27,0l0,-10c-10.1,-0.58 -20.2,-1.08 -30.32,-1.5c-1.65,-0.71 -3.22,-1.54 -4.71,-2.5a52.05,49.78 0 0 1 -2.61,-13c2.79,-0.33 5.57,-0.67 8.37,-1c-0.29,2.95 0.06,5.78 1.05,8.5c9.37,1.17 18.78,1.67 28.23,1.5c0.7,-7.98 1.05,-15.98 1.05,-24l7.32,0c-0.95,8.29 -1.3,16.63 -1.05,25l12.55,0l0,4z" fill="#fcf7f7" id="svg_74"/>
   <path d="m597.85,318.19c3.07,1.55 4.12,3.88 3.14,7c-4.6,2.63 -9.48,4.13 -14.64,4.5c-1.62,-2.1 -1.97,-4.26 -1.05,-6.5c4.45,-1.3 8.64,-2.97 12.55,-5z" fill="#fcf8f7" id="svg_75"/>
   <path d="m27.97,324.19l9.41,0c-0.32,3.21 0.02,6.21 1.05,9l0,6c-3.21,-0.37 -6.35,-1.04 -9.41,-2c-0.09,-4.36 -0.44,-8.69 -1.05,-13z" fill="#ca665a" id="svg_76"/>
   <path d="m27.97,324.19c5.37,-0.99 10.95,-1.32 16.73,-1c-1.05,0.67 -2.09,1.33 -3.14,2l-3.14,0l0,8c-1.02,-2.79 -1.37,-5.79 -1.05,-9l-9.41,0z" fill="#e0a69f" id="svg_77"/>
   <path d="m44.7,332.19c3.77,1.2 7.61,2.2 11.5,3c-0.82,3.63 -2.38,6.96 -4.71,10a30.09,28.78 0 0 0 -6.27,-4c-0.52,-2.98 -0.69,-5.98 -0.52,-9z" fill="#ca685c" id="svg_78"/>
   <path d="m625.03,344.19l0,4c-2,0.28 -3.74,-0.05 -5.23,-1l4.18,0c-0.25,-1.29 0.1,-2.29 1.05,-3z" fill="#e5b6b0" id="svg_79"/>
   <path d="m253.83,545.19c9.75,-2.25 16.89,0.75 21.44,9c1.34,7.34 -1.28,13 -7.84,17c11.38,6.8 13.47,15.64 6.27,26.5c-7.46,4.68 -15.48,5.68 -24.05,3c-7.76,-4.34 -10.03,-10.51 -6.8,-18.5c2.38,-3.07 5.35,-5.57 8.89,-7.5c-7.16,-5.21 -9.78,-12.04 -7.84,-20.5c2.52,-3.91 5.82,-6.91 9.93,-9z" fill="#090303" id="svg_80"/>
   <path d="m294.61,545.19c13.69,-2.05 22.23,3.29 25.62,16c1.59,22.98 -9.39,36.65 -32.94,41c-0.27,-1.48 0.07,-2.81 1.05,-4c10.4,-3.44 16.86,-10.11 19.34,-20c-14.77,4.35 -23.32,-0.82 -25.62,-15.5c0.74,-8.19 4.92,-14.02 12.55,-17.5z" fill="#0b0403" id="svg_81"/>
   <path d="m355.26,545.19l5.23,0l0,4c-13.19,1.78 -21.03,8.78 -23.53,21c0.94,-1.2 2.16,-2.03 3.66,-2.5c9.75,-2.75 16.89,0.09 21.44,8.5c2.79,21 -6.44,28.83 -27.71,23.5c-12.88,-15.19 -12.54,-30.19 1.05,-45c5.88,-4.81 12.5,-7.97 19.87,-9.5z" fill="#080303" id="svg_82"/>
   <path d="m390.81,545.19l7.32,0l0,33l8.37,0l0,7l-8.37,0l0,16l-9.41,0l0,-16l-21.96,0c-0.17,-2.36 0,-4.69 0.52,-7a475.66,454.9 0 0 0 23.53,-33z" fill="#040101" id="svg_83"/>
   <path d="m255.92,550.19c10.27,-0.05 13.58,4.61 9.93,14c-0.99,1.96 -2.39,3.62 -4.18,5c-10.02,-4.41 -11.93,-10.75 -5.75,-19zm41.83,0c5.76,-1.39 9.42,0.61 10.98,6c1.68,5.29 1.85,10.63 0.52,16c-7.37,3.84 -12.78,2.17 -16.21,-5c-1.69,-6.62 -0.13,-12.28 4.71,-17z" fill="#c16054" id="svg_84"/>
   <path d="m387.67,557.19c1.04,6.81 1.38,13.81 1.05,21c-4.92,0.33 -9.81,-0.01 -14.64,-1c5.07,-6.38 9.61,-13.05 13.59,-20zm-49.15,16c3.16,-0.16 6.29,0 9.41,0.5c1.91,0.5 3.14,1.67 3.66,3.5c2.88,7.27 1.65,13.77 -3.66,19.5c-4.83,1.54 -8.15,0.04 -9.93,-4.5c-3.38,-6.67 -3.2,-13.01 0.52,-19zm-82.61,4c9.01,1.44 13.02,6.44 12.02,15c-2.55,4.72 -6.56,6.22 -12.02,4.5c-1.5,-0.47 -2.72,-1.3 -3.66,-2.5c-2.98,-6.6 -1.76,-12.27 3.66,-17z" fill="#c36155" id="svg_85"/>
   <use id="svg_86" transform="matrix(1.66485 0 0 1.59218 110.47 147.161)" x="9" xlink:href="#a" y="-0.82"/>
  </g>
 </g>
</svg>