<?xml version="1.0"?>
<svg width="512" height="512" xmlns="http://www.w3.org/2000/svg" xmlns:svg="http://www.w3.org/2000/svg" xmlns:xlink="http://www.w3.org/1999/xlink" clip-rule="evenodd" fill-rule="evenodd">
 <defs>
  <symbol fill-rule="evenodd" id="a" xmlns="http://www.w3.org/2000/svg" xmlns:xlink="http://www.w3.org/1999/xlink">
   <path d="m149.5,64.5c0.34,2.66 -0.33,4.99 -2,7c-5.31,0.65 -10.64,0.82 -16,0.5c-3.18,1.88 -3.85,4.55 -2,8c-0.83,4.3 -1.5,8.63 -2,13c-0.17,1.66 -0.84,2.99 -2,4c4,0.14 7.84,0.98 11.5,2.5l2,-2c1.77,0.73 3.6,1.07 5.5,1l3,0c-1.38,21.56 -12.72,30.72 -34,27.5c-6.09,-1.36 -11.59,-3.86 -16.5,-7.5c0.55,-3.15 0.38,-6.15 -0.5,-9c0.79,-2.93 2.79,-4.77 6,-5.5c4.31,0.25 8.65,0.25 13,0c6.71,-3.44 9.21,-8.94 7.5,-16.5a25.77,25.77 0 0 1 -2,-8a11.15,11.15 0 0 0 -4.5,-3c-2.2,-0.67 -4.53,-1.33 -7,-2c-0.33,-0.67 -0.67,-1.33 -1,-2c4.94,-0.89 5.11,-1.89 0.5,-3c-2.66,0.25 -4.83,1.42 -6.5,3.5c1.78,-0.98 3.44,-0.65 5,1c-0.46,0.41 -0.79,0.91 -1,1.5c-4.82,0.67 -9.48,1.33 -14,2c-10.18,1 -18.68,5.34 -25.5,13c-2.32,2.97 -3.82,6.3 -4.5,10c-0.53,2.42 -1.36,4.76 -2.5,7c-0.38,-0.56 -0.88,-0.89 -1.5,-1c-5.95,-13.37 -8.12,-27.37 -6.5,-42c1.75,-10.68 6.92,-19.18 15.5,-25.5c-3.73,-0.07 -7.23,-0.9 -10.5,-2.5c-2.7,-4.54 -3.03,-9.21 -1,-14c3.65,-4.81 8.32,-7.81 14,-9c4.2,-0.05 7.87,1.29 11,4c1.08,6.19 -0.92,11.19 -6,15c-0.59,0.98 -0.26,1.65 1,2c10.89,-7.01 22.72,-9.01 35.5,-6c-1.36,-4.04 -2.69,-8.04 -4,-12c-0.17,-2.19 0.49,-4.03 2,-5.5c8.4,-5.18 16.06,-4.18 23,3c3.55,4.22 4.72,9.06 3.5,14.5c-4.97,4.45 -10.47,5.11 -16.5,2c-1.5,-0.05 -2.5,0.62 -3,2c2.02,1.86 4.19,3.52 6.5,5c3.92,6.17 8.09,12.17 12.5,18c4.93,2.64 9.6,5.64 14,9z" fill="#f5cd70" id="svg_1"/>
   <path d="m116.5,76.5c-7.99,0.6 -15.99,0.93 -24,1c4.52,-0.67 9.18,-1.33 14,-2c0.21,-0.59 0.54,-1.09 1,-1.5c-1.56,-1.65 -3.22,-1.98 -5,-1c1.67,-2.08 3.84,-3.25 6.5,-3.5c4.61,1.11 4.44,2.11 -0.5,3c0.33,0.67 0.67,1.33 1,2c2.47,0.67 4.8,1.33 7,2z" fill="#cc9751" id="svg_2"/>
   <path d="m149.5,64.5c1.05,2.84 1.05,5.84 0,9c1.29,0.24 2.29,-0.1 3,-1l1,0c-0.68,1.68 -2.02,2.34 -4,2c-7.37,-1.45 -13.54,0.55 -18.5,6c-1.07,7.63 2.1,12.79 9.5,15.5c5.13,0.54 10.13,0.21 15,-1c-2.46,0.72 -3.46,2.06 -3,4c-0.95,0.48 -1.95,0.65 -3,0.5c0.31,3.21 -0.02,6.21 -1,9l0,-11c-1.6,-0.27 -2.93,0.07 -4,1c-1.9,0.07 -3.73,-0.27 -5.5,-1l-2,2c-3.66,-1.52 -7.5,-2.36 -11.5,-2.5c1.16,-1.01 1.83,-2.34 2,-4c0.5,-4.37 1.17,-8.7 2,-13c-1.85,-3.45 -1.18,-6.12 2,-8c5.36,0.32 10.69,0.15 16,-0.5c1.67,-2.01 2.34,-4.34 2,-7z" fill="#955225" id="svg_3"/>
   <path d="m131.5,73.5c1.7,-0.16 3.37,0.01 5,0.5a33.84,33.84 0 0 1 -6,3.5l-1,-1c0.69,-1.02 1.36,-2.02 2,-3z" fill="#e8b96b" id="svg_4"/>
   <path d="m149.5,74.5c10.68,3.34 16.02,10.67 16,22c0.04,4.46 -0.63,8.8 -2,13c-3.19,3.03 -5.85,6.53 -8,10.5c-3.33,0.67 -6.67,0.67 -10,0c-0.46,-0.41 -0.79,-0.91 -1,-1.5c1.91,-3.14 3.24,-6.47 4,-10c0.98,-2.79 1.31,-5.79 1,-9c1.05,0.15 2.05,-0.02 3,-0.5c-0.46,-1.94 0.54,-3.28 3,-4c-4.87,1.21 -9.87,1.54 -15,1c-7.4,-2.71 -10.57,-7.87 -9.5,-15.5c4.96,-5.45 11.13,-7.45 18.5,-6z" fill="#f5cd70" id="svg_5"/>
   <path d="m93.5,107.5c-0.96,0.45 -1.79,1.12 -2.5,2c-0.3,8.44 -4.8,12.77 -13.5,13c-8.21,0.12 -12.54,-3.88 -13,-12c-0.47,-16.71 7.53,-26.88 24,-30.5c7.33,-0.67 14.67,-0.67 22,0c11.53,4.04 13.86,11.04 7,21c-1.7,0.96 -3.53,1.46 -5.5,1.5c-7.48,-3.34 -13.65,-1.67 -18.5,5z" fill="#f5ce70" id="svg_6"/>
   <path d="m116.5,76.5c1.73,0.62 3.23,1.62 4.5,3c0.24,2.79 0.91,5.46 2,8c1.71,7.56 -0.79,13.06 -7.5,16.5c-4.35,0.25 -8.69,0.25 -13,0c-3.21,0.73 -5.21,2.57 -6,5.5c-0.72,-1.05 -1.72,-1.72 -3,-2c4.85,-6.67 11.02,-8.34 18.5,-5c1.97,-0.04 3.8,-0.54 5.5,-1.5c6.86,-9.96 4.53,-16.96 -7,-21c-7.33,-0.67 -14.67,-0.67 -22,0c-16.47,3.62 -24.47,13.79 -24,30.5c-0.67,-3.33 -1.33,-6.67 -2,-10c0.68,-3.7 2.18,-7.03 4.5,-10c6.82,-7.66 15.32,-12 25.5,-13c8.01,-0.07 16.01,-0.4 24,-1z" fill="#904b21" id="svg_7"/>
   <path d="m129.5,90.5c1.8,1.29 3.46,2.79 5,4.5c-1.63,0.49 -3.3,0.66 -5,0.5l0,-5z" fill="#eec26d" id="svg_8"/>
   <path d="m152.5,72.5c-0.71,0.9 -1.71,1.24 -3,1c1.05,-3.16 1.05,-6.16 0,-9c-4.4,-3.36 -9.07,-6.36 -14,-9c-4.41,-5.83 -8.58,-11.83 -12.5,-18a46.98,46.98 0 0 1 -6.5,-5c0.5,-1.38 1.5,-2.05 3,-2c6.03,3.11 11.53,2.45 16.5,-2c1.22,-5.44 0.05,-10.28 -3.5,-14.5c-6.94,-7.18 -14.6,-8.18 -23,-3c-1.51,1.47 -2.17,3.31 -2,5.5c1.31,3.96 2.64,7.96 4,12c-12.78,-3.01 -24.61,-1.01 -35.5,6c-1.26,-0.35 -1.59,-1.02 -1,-2c5.08,-3.81 7.08,-8.81 6,-15c-3.13,-2.71 -6.8,-4.05 -11,-4c-5.68,1.19 -10.35,4.19 -14,9c-2.03,4.79 -1.7,9.46 1,14c3.27,1.6 6.77,2.43 10.5,2.5c-8.58,6.32 -13.75,14.82 -15.5,25.5c-1.62,14.63 0.55,28.63 6.5,42l0,2c-3.16,-0.89 -5.16,0.44 -6,4c1.11,2.28 2.45,4.45 4,6.5c-0.79,1.63 -1.79,3.13 -3,4.5c3.74,3.18 4.91,7.18 3.5,12c-2.1,3.21 -3.94,6.54 -5.5,10c1.77,3.27 4.1,6.1 7,8.5c1.08,0.47 2.08,0.3 3,-0.5c0.67,0 1,0.33 1,1c-7.99,18.82 -4.65,35.66 10,50.5c3.23,2.11 6.56,3.94 10,5.5c2.95,1.96 6.28,3.13 10,3.5c5.52,0.82 10.85,0.65 16,-0.5c0.88,0.13 1.54,-0.2 2,-1c-1.69,-2.73 -3.36,-5.4 -5,-8c0.71,-0.9 1.71,-1.24 3,-1c-0.27,1.6 0.07,2.93 1,4c3.03,5.37 7.7,8.53 14,9.5c6.48,1.18 11.98,-0.66 16.5,-5.5c10.56,-17.88 5.56,-26.22 -15,-25c-1.03,-0.34 -1.53,-1 -1.5,-2c8.82,-2.77 16.32,-0.77 22.5,6c1.56,2.46 2.56,5.12 3,8l2,-2c1.59,5.09 4.76,8.75 9.5,11c2.33,1.33 4.67,1.33 7,0c5.66,-1.95 8.99,-5.95 10,-12c1.99,-3.9 2.32,-7.9 1,-12c-2.83,-10.08 -9.17,-13.25 -19,-9.5c-2.46,2.41 -4.29,5.24 -5.5,8.5c-0.33,4.67 -0.67,9.33 -1,14c-0.67,-5.67 -0.67,-11.33 0,-17c1.29,-2.29 2.96,-4.29 5,-6c0.92,-6.48 0.42,-12.81 -1.5,-19c-0.33,-3 1,-4.33 4,-4c-0.64,0.98 -1.31,1.98 -2,3c2.34,5.4 3.51,11.06 3.5,17c3.41,-1.12 6.91,-1.29 10.5,-0.5c9.88,9.29 11.72,20.13 5.5,32.5c-5.27,7.96 -12.44,10.12 -21.5,6.5a34.86,34.86 0 0 1 -6.5,-7.5c-3.91,3.85 -6.75,8.35 -8.5,13.5a35.34,35.34 0 0 1 -13.5,5.5c-5.19,-1.23 -10.36,-2.56 -15.5,-4c-19.83,3.56 -36.33,-2.11 -49.5,-17c-4.64,-8.42 -7.14,-17.42 -7.5,-27c0.58,-5.67 0.74,-11.34 0.5,-17c-6.89,-4.67 -8.23,-10.67 -4,-18c1.79,-1.28 2.95,-2.94 3.5,-5c-1.62,-2.9 -2.95,-5.9 -4,-9c-0.11,-1.87 0.56,-3.37 2,-4.5c-4.13,-5.08 -3.8,-9.91 1,-14.5c-6.65,-16.69 -7.49,-33.69 -2.5,-51c2.22,-4.6 5.05,-8.77 8.5,-12.5c-6.38,-1.39 -9.38,-5.39 -9,-12c1.59,-8.27 6.25,-14.27 14,-18c14.43,-3.25 20.59,2.25 18.5,16.5c1.94,-1.36 4.11,-2.2 6.5,-2.5c5.05,-0.78 10.05,-0.61 15,0.5l1,-1c-5.03,-12.34 -0.7,-18.68 13,-19c15.24,1.73 21.41,10.06 18.5,25c-3.41,3.41 -7.58,5.41 -12.5,6c4.08,4.49 7.41,9.49 10,15a65.83,65.83 0 0 1 16.5,12c0.85,3.09 0.35,5.92 -1.5,8.5c0.59,0.46 1.26,0.63 2,0.5z" fill="#88482f" id="svg_9"/>
   <path d="m113.5,19.5c3.94,3.4 8.61,4.9 14,4.5c-3.57,1.84 -7.24,1.84 -11,0c-1.64,-1.13 -2.64,-2.63 -3,-4.5z" fill="#b67e3f" id="svg_10"/>
   <path d="m144.5,98.5c1.07,-0.93 2.4,-1.27 4,-1l0,11c-0.76,3.53 -2.09,6.86 -4,10c0.21,0.59 0.54,1.09 1,1.5c3.33,0.67 6.67,0.67 10,0c2.15,-3.97 4.81,-7.47 8,-10.5c0.03,1.7 0.69,3.03 2,4c-4.62,0.63 -6.62,3.29 -6,8c-5.88,1.64 -11.54,1.31 -17,-1a64.09,64.09 0 0 0 -7,6.5c-11.08,2.5 -21.91,1.67 -32.5,-2.5c-0.5,0.17 -1,0.33 -1.5,0.5c0.95,0.72 1.12,1.55 0.5,2.5a11.51,11.51 0 0 1 -3.5,-5c-1.4,3.36 -2.9,6.7 -4.5,10c-1.11,1.83 -2.61,2.66 -4.5,2.5c4.79,-3.74 6.62,-8.58 5.5,-14.5a36.17,36.17 0 0 1 -3.5,4.5c-0.83,0.69 -1.5,0.52 -2,-0.5c4.49,-3.57 6.32,-8.23 5.5,-14c-4.63,13.05 -13.46,16.89 -26.5,11.5c-3.15,-2.46 -5.15,-5.63 -6,-9.5l0,-3l-4,0l0,-3c0.62,0.11 1.12,0.44 1.5,1c1.14,-2.24 1.97,-4.58 2.5,-7c0.67,3.33 1.33,6.67 2,10c0.46,8.12 4.79,12.12 13,12c8.7,-0.23 13.2,-4.56 13.5,-13c0.71,-0.88 1.54,-1.55 2.5,-2c1.28,0.28 2.28,0.95 3,2c0.88,2.85 1.05,5.85 0.5,9c4.91,3.64 10.41,6.14 16.5,7.5c21.28,3.22 32.62,-5.94 34,-27.5l-3,0z" fill="#90391b" id="svg_11"/>
   <path d="m140.5,110.5c-1.41,0.47 -2.07,1.47 -2,3c-5.83,2.19 -10.66,0.86 -14.5,-4c-1.54,-5.64 0.63,-8.64 6.5,-9c3.33,0.55 6.66,1.05 10,1.5c1.18,2.8 1.18,5.63 0,8.5z" fill="#82361b" id="svg_12"/>
   <path d="m138.5,113.5c-0.07,-1.53 0.59,-2.53 2,-3c-0.93,7.75 -5.43,11.41 -13.5,11c-5.85,-0.1 -10.19,-2.76 -13,-8c-1.28,1.15 -1.61,0.81 -1,-1l2,-2c3.23,8.62 9.4,11.45 18.5,8.5c2.58,-1.08 4.25,-2.91 5,-5.5z" fill="#b78141" id="svg_13"/>
   <path d="m153.5,72.5c10.83,4.91 15.83,13.41 15,25.5c0.02,4.42 -0.98,8.59 -3,12.5c1.97,3.05 2.47,6.38 1.5,10c-4.46,4.17 -8.63,8.66 -12.5,13.5c5.49,0.73 8.82,3.73 10,9c-0.5,3.05 -1.83,5.55 -4,7.5l0,-3c2.08,-2.01 2.41,-4.34 1,-7c-4.69,-0.95 -8.69,-3.11 -12,-6.5c4.61,-4.07 9.11,-8.23 13.5,-12.5c1.71,-2.41 2.54,-5.08 2.5,-8c-1.31,-0.97 -1.97,-2.3 -2,-4c1.37,-4.2 2.04,-8.54 2,-13c0.02,-11.33 -5.32,-18.66 -16,-22c1.98,0.34 3.32,-0.32 4,-2z" fill="#8c4832" id="svg_14"/>
   <path d="m58.5,108.5l0,1c3.93,9.45 7.43,19.12 10.5,29c0.33,-1.33 0.67,-2.67 1,-4c0.72,0.95 1.55,1.12 2.5,0.5a21.81,21.81 0 0 1 -6,-7.5c1.33,-0.33 2.67,-0.67 4,-1c-6.22,-3.12 -9.39,-8.12 -9.5,-15c0.38,0.56 0.88,0.89 1.5,1c0.85,3.87 2.85,7.04 6,9.5c13.04,5.39 21.87,1.55 26.5,-11.5c0.82,5.77 -1.01,10.43 -5.5,14c0.5,1.02 1.17,1.19 2,0.5c1.29,-1.41 2.45,-2.91 3.5,-4.5c1.12,5.92 -0.71,10.76 -5.5,14.5c1.89,0.16 3.39,-0.67 4.5,-2.5c1.6,-3.3 3.1,-6.64 4.5,-10c0.72,1.98 1.88,3.65 3.5,5c0.62,-0.95 0.45,-1.78 -0.5,-2.5c0.5,-0.17 1,-0.33 1.5,-0.5c10.59,4.17 21.42,5 32.5,2.5c2.18,-2.35 4.52,-4.52 7,-6.5c5.46,2.31 11.12,2.64 17,1c-0.62,-4.71 1.38,-7.37 6,-8c0.04,2.92 -0.79,5.59 -2.5,8c-4.39,4.27 -8.89,8.43 -13.5,12.5c3.31,3.39 7.31,5.55 12,6.5c1.41,2.66 1.08,4.99 -1,7c-1.26,0.4 -2.42,1.07 -3.5,2c-3.47,-2.77 -2.97,-4.77 1.5,-6c-2.36,-1.21 -4.53,-0.87 -6.5,1c-2.79,-1.02 -5.62,-1.18 -8.5,-0.5c-19.54,13.63 -41.2,18.63 -65,15a39.7,39.7 0 0 1 -8,-7c-3.62,-2.37 -6.62,-1.87 -9,1.5c-0.92,0.8 -1.92,0.97 -3,0.5c-2.9,-2.4 -5.23,-5.23 -7,-8.5c1.56,-3.46 3.4,-6.79 5.5,-10c1.41,-4.82 0.24,-8.82 -3.5,-12c1.21,-1.37 2.21,-2.87 3,-4.5a39.3,39.3 0 0 1 -4,-6.5c0.84,-3.56 2.84,-4.89 6,-4z" fill="#f53e3c" id="svg_15"/>
   <path d="m58.5,109.5l4,0l0,3c-0.62,-0.11 -1.12,-0.44 -1.5,-1c0.11,6.88 3.28,11.88 9.5,15c-1.33,0.33 -2.67,0.67 -4,1a21.81,21.81 0 0 0 6,7.5c-0.95,0.62 -1.78,0.45 -2.5,-0.5c-0.33,1.33 -0.67,2.67 -1,4c-3.07,-9.88 -6.57,-19.55 -10.5,-29z" fill="#b83224" id="svg_16"/>
   <path d="m131.5,135.5c1.37,-0.16 2.71,0.01 4,0.5c-2.67,0.67 -2.67,1.33 0,2c-7.07,2.18 -14.07,4.18 -21,6a7.38,7.38 0 0 0 3,-2a51.1,51.1 0 0 1 -7,0c7.13,-2.1 14.13,-4.27 21,-6.5z" fill="#b03222" id="svg_17"/>
   <path d="m156.5,154.5c1.92,6.19 2.42,12.52 1.5,19a21.64,21.64 0 0 0 -5,6c-0.67,5.67 -0.67,11.33 0,17c0.33,-4.67 0.67,-9.33 1,-14c1.21,-3.26 3.04,-6.09 5.5,-8.5c9.83,-3.75 16.17,-0.58 19,9.5c0.16,1.37 -0.01,2.71 -0.5,4c-2.9,-8.08 -8.06,-10.08 -15.5,-6c-0.83,1 -1.67,2 -2.5,3c-0.5,4.99 -0.67,9.99 -0.5,15c0.32,2.81 1.32,5.31 3,7.5c-0.59,0.46 -1.26,0.63 -2,0.5c-4.74,-2.25 -7.91,-5.91 -9.5,-11l-2,2c-0.44,-2.88 -1.44,-5.54 -3,-8c-6.18,-6.77 -13.68,-8.77 -22.5,-6c-3.64,-6 -8.97,-9.84 -16,-11.5c-6,-0.67 -12,-0.67 -18,0a12.74,12.74 0 0 0 -6,3c-4.7,-0.45 -8.53,1.05 -11.5,4.5c-0.67,0.67 -0.67,1.33 0,2c1.84,-2.88 4.34,-4.38 7.5,-4.5c-6.59,5.34 -9.76,12.18 -9.5,20.5c2.55,5.2 6.72,8.37 12.5,9.5c4.42,0.77 8.75,0.6 13,-0.5l10,-3c1.64,2.6 3.31,5.27 5,8c-0.46,0.8 -1.12,1.13 -2,1c-8.84,0.3 -17.5,-0.7 -26,-3a74.56,74.56 0 0 1 -10,-5.5c-14.65,-14.84 -17.99,-31.68 -10,-50.5c1.34,-1.61 3,-2.11 5,-1.5c3.05,4.18 7.05,6.85 12,8c24.74,3.11 47.24,-2.39 67.5,-16.5c2.14,0.74 4.14,1.74 6,3c0.9,2.57 2.06,4.9 3.5,7z" fill="#f4cb6f" id="svg_18"/>
   <path d="m160.5,147.5l0,3c-3,-0.33 -4.33,1 -4,4c-1.44,-2.1 -2.6,-4.43 -3.5,-7a25.52,25.52 0 0 0 -6,-3c-20.26,14.11 -42.76,19.61 -67.5,16.5c-4.95,-1.15 -8.95,-3.82 -12,-8c-2,-0.61 -3.66,-0.11 -5,1.5c0,-0.67 -0.33,-1 -1,-1c2.38,-3.37 5.38,-3.87 9,-1.5c2.37,2.71 5.04,5.04 8,7c23.8,3.63 45.46,-1.37 65,-15c2.88,-0.68 5.71,-0.52 8.5,0.5c1.97,-1.87 4.14,-2.21 6.5,-1c-4.47,1.23 -4.97,3.23 -1.5,6c1.08,-0.93 2.24,-1.6 3.5,-2z" fill="#913b1c" id="svg_19"/>
   <path d="m123.5,184.5c-0.03,1 0.47,1.66 1.5,2c20.56,-1.22 25.56,7.12 15,25c-4.52,4.84 -10.02,6.68 -16.5,5.5c-6.3,-0.97 -10.97,-4.13 -14,-9.5l0,-3c2.6,-0.14 4.93,-0.98 7,-2.5c-1.88,-0.58 -3.71,-0.41 -5.5,0.5a9.3,9.3 0 0 1 -2.5,-2c-4.5,2.6 -9.17,4.6 -14,6c-7.01,0.59 -13.67,-0.57 -20,-3.5c-3.28,-4.18 -3.78,-8.68 -1.5,-13.5c8.14,-13.33 19.98,-18.16 35.5,-14.5c5.67,2.18 10.67,5.34 15,9.5zm54,11c-1.01,6.05 -4.34,10.05 -10,12c-1.89,0.2 -3.39,-0.46 -4.5,-2a51.24,51.24 0 0 1 -1.5,-16c0.08,-6.92 3.42,-9.42 10,-7.5c4.59,3.23 6.59,7.73 6,13.5z" fill="#f5cd70" id="svg_20"/>
   <path d="m178.5,183.5c1.32,4.1 0.99,8.1 -1,12c0.59,-5.77 -1.41,-10.27 -6,-13.5c-6.58,-1.92 -9.92,0.58 -10,7.5c-0.67,3.33 -1.33,6.67 -2,10c-0.17,-5.01 0,-10.01 0.5,-15c0.83,-1 1.67,-2 2.5,-3c7.44,-4.08 12.6,-2.08 15.5,6c0.49,-1.29 0.66,-2.63 0.5,-4z" fill="#945324" id="svg_21"/>
   <path d="m123.5,184.5c-4.33,-4.16 -9.33,-7.32 -15,-9.5c-15.52,-3.66 -27.36,1.17 -35.5,14.5c-2.28,4.82 -1.78,9.32 1.5,13.5c6.33,2.93 12.99,4.09 20,3.5c0.67,0 1,0.33 1,1c-4.25,1.1 -8.58,1.27 -13,0.5c-5.78,-1.13 -9.95,-4.3 -12.5,-9.5c-0.26,-8.32 2.91,-15.16 9.5,-20.5c-3.16,0.12 -5.66,1.62 -7.5,4.5c-0.67,-0.67 -0.67,-1.33 0,-2c2.97,-3.45 6.8,-4.95 11.5,-4.5a12.74,12.74 0 0 1 6,-3c6,-0.67 12,-0.67 18,0c7.03,1.66 12.36,5.5 16,11.5z" fill="#935122" id="svg_22"/>
   <path d="m109.5,207.5c-0.93,-1.07 -1.27,-2.4 -1,-4c-1.29,-0.24 -2.29,0.1 -3,1l-10,3c0,-0.67 -0.33,-1 -1,-1c4.83,-1.4 9.5,-3.4 14,-6a9.3,9.3 0 0 0 2.5,2c1.79,-0.91 3.62,-1.08 5.5,-0.5c-2.07,1.52 -4.4,2.36 -7,2.5l0,3z" fill="#bb8643" id="svg_23"/>
   <path d="m161.5,189.5c-0.34,5.43 0.16,10.76 1.5,16c1.11,1.54 2.61,2.2 4.5,2c-2.33,1.33 -4.67,1.33 -7,0c0.74,0.13 1.41,-0.04 2,-0.5c-1.68,-2.19 -2.68,-4.69 -3,-7.5c0.67,-3.33 1.33,-6.67 2,-10z" fill="#b98344" id="svg_24"/>
   <path d="m82.5,210.5c8.5,2.3 17.16,3.3 26,3c-5.15,1.15 -10.48,1.32 -16,0.5c-3.72,-0.37 -7.05,-1.54 -10,-3.5z" fill="#b4783f" id="svg_25"/>
  </symbol>
  <symbol clip-rule="evenodd" fill-rule="evenodd" height="100" id="svg_37" width="80" xmlns="http://www.w3.org/2000/svg" xmlns:svg="http://www.w3.org/2000/svg" xmlns:xlink="http://www.w3.org/1999/xlink">
   <g class="layer">
    <title>Layer 1</title>
    <use id="svg_36" transform="rotate(-0.686157 40.5349 49.2893) matrix(0.120952 0 0 0.120952 539.782 278.087)" x="-4727.65" xlink:href="#svg_27" y="-2291.64">QQ小企鹅</use>
   </g>
   <defs>
    <symbol height="800" id="svg_27" viewBox="-18.15 -35.9725 157.3 215.835" width="1200" xmlns="http://www.w3.org/2000/svg">
     <path d="m60.5,142.24c-12.53,0 -24.03,-4.2 -31.44,-10.46c-3.76,1.12 -8.58,2.93 -11.61,5.17c-2.6,1.92 -2.28,3.88 -1.81,4.67c2.06,3.47 35.27,2.21 44.86,1.13l0,-0.51zm0,0c12.54,0 24.04,-4.2 31.45,-10.46c3.76,1.12 8.57,2.93 11.61,5.17c2.6,1.92 2.27,3.88 1.81,4.67c-2.06,3.47 -35.28,2.21 -44.87,1.13l0,-0.51zm0,0" fill="#faab07" id="svg_35"/>
     <path d="m60.58,67.12c20.69,-0.14 37.28,-4.15 42.9,-5.68c1.34,-0.37 2.06,-1.03 2.06,-1.03c0,-0.19 0.08,-3.37 0.08,-5.01c0,-27.63 -13.04,-55.4 -45.12,-55.4c-32.08,0 -45.12,27.77 -45.12,55.4c0,1.64 0.08,4.82 0.08,5.01c0,0 0.58,0.62 1.65,0.91c5.19,1.45 22.09,5.65 43.31,5.8l0.16,0zm56.24,23.02c-1.28,-4.13 -3.03,-8.95 -4.81,-13.57c0,0 -1.02,-0.13 -1.53,0.02c-15.92,4.63 -35.21,7.57 -49.9,7.4l-0.16,0c-14.61,0.17 -33.77,-2.74 -49.63,-7.32c-0.61,-0.17 -1.8,-0.1 -1.8,-0.1c-1.78,4.62 -3.53,9.44 -4.81,13.57c-6.12,19.69 -4.14,27.84 -2.63,28.02c3.24,0.39 12.61,-14.82 12.61,-14.82c0,15.46 13.96,39.19 45.92,39.41l0.84,0c31.96,-0.22 45.92,-23.95 45.92,-39.41c0,0 9.37,15.21 12.61,14.82c1.51,-0.18 3.49,-8.33 -2.63,-28.02" id="svg_34"/>
     <path d="m49.09,40.82c-4.36,0.2 -8.07,-4.76 -8.31,-11.06c-0.23,-6.3 3.1,-11.58 7.45,-11.77c4.35,-0.2 8.07,4.76 8.3,11.06c0.24,6.31 -3.1,11.58 -7.44,11.77m31.13,-11.06c-0.24,6.3 -3.95,11.26 -8.3,11.06c-4.35,-0.19 -7.69,-5.46 -7.45,-11.77c0.24,-6.3 3.95,-11.26 8.3,-11.06c4.35,0.19 7.69,5.47 7.45,11.77" fill="#fff" id="svg_33"/>
     <path d="m87.95,49.73c-1.16,-2.58 -12.87,-5.45 -27.37,-5.45l-0.16,0c-14.5,0 -26.21,2.87 -27.37,5.45a0.86,0.86 0 0 0 -0.09,0.36a0.88,0.88 0 0 0 0.16,0.5c0.98,1.43 13.99,8.49 27.3,8.49l0.16,0c13.31,0 26.32,-7.06 27.3,-8.49a0.87,0.87 0 0 0 0.16,-0.5a0.86,0.86 0 0 0 -0.09,-0.36" fill="#faab07" id="svg_32"/>
     <path d="m54.43,29.85c0.2,2.49 -1.16,4.71 -3.04,4.95c-1.89,0.24 -3.57,-1.58 -3.77,-4.07c-0.2,-2.5 1.17,-4.71 3.04,-4.95c1.89,-0.24 3.58,1.58 3.77,4.07m11.96,0.84c0.39,-0.69 3,-4.32 8.43,-3c1.42,0.35 2.08,0.86 2.22,1.06c0.21,0.3 0.26,0.72 0.05,1.29c-0.41,1.12 -1.26,1.09 -1.73,0.87c-0.31,-0.14 -4.08,-2.66 -7.56,1.1c-0.24,0.25 -0.67,0.34 -1.08,0.04c-0.4,-0.31 -0.57,-0.93 -0.33,-1.36" id="svg_31"/>
     <path d="m60.58,83.08l-0.16,0c-9.99,0.12 -22.11,-1.2 -33.85,-3.52c-1,5.82 -1.61,13.13 -1.09,21.85c1.32,22.05 14.41,35.9 34.61,36.1l0.82,0c20.21,-0.2 33.3,-14.05 34.62,-36.1c0.52,-8.72 -0.09,-16.03 -1.09,-21.85c-11.74,2.32 -23.87,3.64 -33.86,3.52" fill="#fff" id="svg_30"/>
     <path d="m32.1,81.23l0,21.7s9.94,2 19.89,0.61l0,-20.01c-6.3,-0.35 -13.1,-1.15 -19.89,-2.3" fill="#eb1923" id="svg_29"/>
     <path d="m105.54,60.41s-19.33,6.1 -44.96,6.28l-0.16,0c-25.59,-0.17 -44.89,-6.26 -44.96,-6.28l-6.47,16.16c16.19,4.88 36.26,8.03 51.43,7.84l0.16,0c15.17,0.19 35.24,-2.96 51.43,-7.84l-6.47,-16.16zm0,0" fill="#eb1923" id="svg_28"/>
    </symbol>
   </defs>
  </symbol>
 </defs>
 <g class="layer">
  <title>Layer 1</title>
  <use id="svg_86" stroke-width="0" transform="matrix(1 0 0 1 0 0) matrix(1.82836 0 0 1.82836 -81.0643 -51.8115)" x="4.79" xlink:href="#a" y="88.54"/>
  <text fill="#ff0000" font-family="Cursive" font-size="24" id="svg_26" stroke="#000000" stroke-width="0" text-anchor="middle" transform="matrix(3.73487 0 0 3.73487 -319.469 -91.4726)" x="160.02" xml:space="preserve" y="49.22">审核不通过！</text>
  <use id="svg_38" transform="matrix(5.18841 0 0 5.18841 -638.554 -362.976)" x="153.69" xlink:href="#svg_37" y="80.18"/>
 </g>
</svg>