<?xml version="1.0"?>
<svg width="128" height="128" xmlns="http://www.w3.org/2000/svg" xmlns:svg="http://www.w3.org/2000/svg" xmlns:xlink="http://www.w3.org/1999/xlink">
 <!-- Created with SVG-edit - https://github.com/SVG-Edit/svgedit-->
 <defs>
  <symbol height="256" id="svg_6" width="256" xmlns="http://www.w3.org/2000/svg" xmlns:svg="http://www.w3.org/2000/svg" xmlns:xlink="http://www.w3.org/1999/xlink">
   <g class="layer" id="svg_2">
    <title>Layer 1</title>
    <path d="m85.3,124.3l0,-9.7l0,-9.7l-0.3,0l-16.8,0l0,9.7l-5.4,0l0,-9.7l-16.8,0l0,9.7l-5.4,0l0,-9.7l-16.8,0l0,9.7l-5.4,0l0,-9.7l-16.8,0l0,19.4l83.5,0l0.2,0zm85.8,40.2l-12.1,0l0,-16.8l-16.8,0l0,16.8l-5.7,0l0,0l0,-16.8l-0.3,0l-16.5,0l-0.3,0l0,16.8l0,0l-5.7,0l0,-16.8l-16.8,0l0,16.8l-12.1,0l0,-33.6l-82.9,0l0,105.5l118.2,0l16.5,0l118,0l0,-105.6l-83.5,0l0,33.7zm-119.7,33l-15.7,0l0,-15.7l15.7,0l0,15.7zm153,-15.7l15.7,0l0,15.7l-15.7,0l0,-15.7zm-190.1,-104.6l0,21.1l25.7,0l6.3,0l0.3,0l25.7,0l0.3,0l0,-21.1c-10.3,-1.4 -20.2,-7.7 -29.1,-13.7c-8.9,6 -18.6,12.3 -29.2,13.7zm29.1,-25.9c6.3,8.3 19.4,20.2 40.8,20.2l0,-8.8c-26.5,0 -37.3,-21.9 -37.9,-22.8l-6,0c-0.6,0.9 -11.1,22.8 -37.9,22.8l0,8.8c21.6,0 34.4,-11.9 41,-20.2zm210.6,53.6l-16.8,0l0,9.7l-5.4,0l0,-9.7l-16.8,0l0,9.7l-5.4,0l0,-9.7l-16.8,0l0,9.7l-5.4,0l0,-9.7l-16.8,0l0,19.4l83.4,0l0.3,0l0,-9.7l0,-9.7l-0.3,0zm-70.6,-27.7l0,21.1l25.6,0l6.3,0l0.3,0l25.4,0l0.3,0l0,-21.1c-10.3,-1.4 -20.3,-7.7 -29.2,-13.6c-8.5,5.9 -18.2,12.2 -28.7,13.6zm29,-25.9c6.3,8.3 19.4,20.2 40.8,20.2l0,-8.8c-26.5,0 -37.3,-21.9 -37.9,-22.8l-6,0c-0.6,0.9 -11.1,22.8 -37.9,22.8l0,8.8c21.9,0 34.8,-11.9 41,-20.2z" fill="#ff0000" id="svg_5" transform="matrix(1 0 0 1 0 0)"/>
    <use id="svg_4" transform="matrix(0.0640165 0 0 0.0640165 85.8517 113.901)" x="278.29" xlink:href="#svg_3" y="1032.19"/>
   </g>
   <defs>
    <symbol height="800px" id="svg_3" viewBox="0 0 611.999 611.999" width="800px" xmlns="http://www.w3.org/2000/svg" xmlns:xlink="http://www.w3.org/1999/xlink">
     <g id="svg_25">
      <path d="m216.02,611.2c5.98,3.17 12.28,-3.71 8.62,-9.4c-19.86,-30.92 -38.67,-82.95 -8.7,-149.96c49.98,-111.73 80.39,-169.61 80.39,-169.61s16.18,67.54 60.03,127.59c42.21,57.79 65.31,130.48 28.07,191.03c-3.5,5.68 2.67,12.39 8.6,9.35c46.1,-23.58 97.81,-70.89 103.64,-165.02c2.15,-28.76 -1.07,-69.03 -17.2,-119.85c-20.74,-64.41 -46.24,-94.46 -60.99,-107.37c-4.42,-3.86 -11.28,-0.43 -10.92,5.42c4.3,69.49 -21.84,87.13 -36.72,47.38c-5.95,-15.87 -9.41,-43.33 -9.41,-76.76c0,-55.67 -16.15,-112.97 -51.76,-159.53c-9.26,-12.11 -20.09,-23.43 -32.52,-33.08c-4.5,-3.49 -11.02,0.02 -10.61,5.7c2.73,37.74 0.25,145.89 -94.63,275.09c-86.03,119.85 -52.69,211.9 -40.86,236.83c22.62,47.76 54.16,75.8 84.97,92.19z" id="svg_29"/>
     </g>
    </symbol>
   </defs>
  </symbol>
 </defs>
 <g class="layer">
  <title>Layer 1</title>
  <use id="svg_7" transform="matrix(0.509526 0 0 0.509526 -5.29627 52.5276)" x="7.32" xlink:href="#svg_6" y="-87.06"/>
  <text fill="#ffffff" font-family="Serif" font-size="24" id="svg_1" stroke="#000000" stroke-width="0" text-anchor="middle" transform="matrix(1 0 0 1 0 0) matrix(0.314563 0 0 0.314563 432.722 324.673)" x="538.67" xml:space="preserve" y="468.33">author: louiesun</text>
  <text fill="#ff0000" font-family="Serif" font-size="24" id="svg_8" stroke="#7f0000" stroke-width="0" text-anchor="middle" x="62" xml:space="preserve" y="23.5">墙上有洞</text>
 </g>
</svg>